{
.appVersion = "122";
copyright = "Copyright © 2025 by Thomas Nicholson";
customParameters = (
{
name = vendorID;
value = "TN  ";
},
{
name = panose;
value = (
0,
0,
0,
0,
0,
0,
0,
0,
0,
0
);
},
{
name = fsType;
value = (
2
);
},
{
name = blueShift;
value = 0;
},
{
name = familyName;
value = "Plainsound Text";
},
{
name = postscriptFontName;
value = "PlainsoundText-Regular";
},
{
name = postscriptFullName;
value = "Plainsound Text Regular";
},
{
name = license;
value = "SIL Open Font License Version 1.1 with reserved font name";
}
);
date = "2002-01-15 12:20:35 +0000";
designer = "Thomas Nicholson";
designerURL = www.superparticular.com;
familyName = "Plainsound Text";
featurePrefixes = (
{
automatic = 1;
code = "languagesystem DFLT dflt;\012languagesystem latn dflt;\012languagesystem latn ROM;\012languagesystem latn MOL;\012languagesystem latn KAZ;\012languagesystem latn TAT;\012languagesystem latn TRK;\012languagesystem latn CRT;\012languagesystem latn AZE;\012";
name = Languagesystems;
}
);
features = (
{
automatic = 1;
code = "feature locl;\012feature frac;\012feature ordn;\012";
name = aalt;
},
{
automatic = 1;
code = "script latn;\012language ROM;\012sub Scedilla by Scommaaccent;\012sub scedilla by scommaaccent;\012sub Tcedilla by Tcommaaccent;\012sub tcedilla by tcommaaccent;\012language MOL;\012sub Scedilla by Scommaaccent;\012sub scedilla by scommaaccent;\012sub Tcedilla by Tcommaaccent;\012sub tcedilla by tcommaaccent;\012language KAZ;\012sub i by idotaccent;\012language TAT;\012sub i by idotaccent;\012language TRK;\012sub i by idotaccent;\012language CRT;\012sub i by idotaccent;\012language AZE;\012sub i by idotaccent;\012";
name = locl;
},
{
automatic = 1;

glyphs = (
{
color = 10;
glyphname = A;
lastChange = "2025-02-17 08:45:43 +0000";
layers = (
{
anchors = (
{
name = bottom;
position = "{280, 0}";
},
{
name = ogonek;
position = "{540, 0}";
},
{
name = top;
position = "{280, 727}";
}
);
background = {
paths = (
{
closed = 1;
nodes = (
"540 0 LINE",
"338 727 LINE",
"262 727 LINE",
"468 0 LINE"
);
},
{
closed = 1;
nodes = (
"451 174 LINE",
"451 244 LINE",
"112 244 LINE",
"112 174 LINE"
);
},
{
closed = 1;
nodes = (
"92 0 LINE",
"298 727 LINE",
"222 727 LINE",
"20 0 LINE"
);
}
);
};
layerId = m01;
paths = (
{
closed = 1;
nodes = (
"540 0 LINE",
"338 727 LINE",
"222 727 LINE",
"20 0 LINE",
"92 0 LINE",
"141 174 LINE",
"419 174 LINE",
"468 0 LINE"
);
},
{
closed = 1;
nodes = (
"280 663 LINE",
"399 244 LINE",
"161 244 LINE"
);
}
);
vertWidth = 1200;
width = 560;
}
);
leftKerningGroup = A;
note = A;
rightKerningGroup = A;
unicode = 0041;
},
{
color = 10;
glyphname = AE;
lastChange = "2025-02-17 08:47:20 +0000";
layers = (
{
components = (
{
name = E;
transform = "{1, 0, 0, 1, 310, 0}";
}
);
layerId = m01;
paths = (
{
closed = 1;
nodes = (
"451 174 LINE",
"451 244 LINE",
"112 244 LINE",
"112 174 LINE"
);
},
{
closed = 1;
nodes = (
"97 0 LINE",
"353 727 LINE",
"272 727 LINE",
"20 0 LINE"
);
},
{
closed = 1;
nodes = (
"286 657 LINE",
"492 657 LINE",
"492 727 LINE",
"286 727 LINE"
);
}
);
width = 790;
}
);
leftKerningGroup = A;
leftMetricsKey = A;
rightMetricsKey = E;
unicode = 00C6;
},
{
color = 10;
glyphname = B;
lastChange = "2025-02-17 08:45:43 +0000";
layers = (
{
anchors = (
{
name = bottom;
position = "{280, 0}";
},
{
name = top;
position = "{280, 727}";
}
);
background = {
paths = (
{
closed = 1;
nodes = (
"266 0 LINE SMOOTH",
"409 0 OFFCURVE",
"505 42 OFFCURVE",
"505 189 CURVE SMOOTH",
"505 310 OFFCURVE",
"439 357 OFFCURVE",
"327 382 CURVE",
"419 406 OFFCURVE",
"470 447 OFFCURVE",
"470 546 CURVE SMOOTH",
"470 677 OFFCURVE",
"402 727 OFFCURVE",
"271 727 CURVE SMOOTH",
"75 727 LINE",
"75 0 LINE"
);
},
{
closed = 1;
nodes = (
"151 344 LINE",
"245 344 LINE SMOOTH",
"362 344 OFFCURVE",
"429 301 OFFCURVE",
"429 192 CURVE SMOOTH",
"429 95 OFFCURVE",
"353 70 OFFCURVE",
"265 70 CURVE SMOOTH",
"151 70 LINE"
);
},
{
closed = 1;
nodes = (
"151 656 LINE",
"271 656 LINE SMOOTH",
"345 656 OFFCURVE",
"394 624 OFFCURVE",
"394 545 CURVE SMOOTH",
"394 460 OFFCURVE",
"339 414 OFFCURVE",
"251 414 CURVE SMOOTH",
"151 414 LINE"
);
},
{
closed = 1;
nodes = (
"324 366 LINE",
"340 366 LINE",
"340 397 LINE",
"324 397 LINE"
);
}
);
};
layerId = m01;
paths = (
{
closed = 1;
nodes = (
"266 0 LINE SMOOTH",
"409 0 OFFCURVE",
"505 42 OFFCURVE",
"505 189 CURVE SMOOTH",
"505 307 OFFCURVE",
"455 358 OFFCURVE",
"329 382 CURVE",
"430 405 OFFCURVE",
"470 442 OFFCURVE",
"470 546 CURVE SMOOTH",
"470 677 OFFCURVE",
"402 727 OFFCURVE",
"271 727 CURVE SMOOTH",
"75 727 LINE",
"75 0 LINE"
);
},
{
closed = 1;
nodes = (
"151 344 LINE",
"245 344 LINE SMOOTH",
"362 344 OFFCURVE",
"429 301 OFFCURVE",
"429 192 CURVE SMOOTH",
"429 95 OFFCURVE",
"353 70 OFFCURVE",
"265 70 CURVE SMOOTH",
"151 70 LINE"
);
},
{
closed = 1;
nodes = (
"151 656 LINE",
"271 656 LINE SMOOTH",
"345 656 OFFCURVE",
"394 624 OFFCURVE",
"394 545 CURVE SMOOTH",
"394 460 OFFCURVE",
"349 414 OFFCURVE",
"251 414 CURVE SMOOTH",
"151 414 LINE"
);
}
);
vertWidth = 1200;
width = 565;
}
);
leftMetricsKey = H;
note = B;
rightKerningGroup = O;
rightMetricsKey = O;
unicode = 0042;
},
{
color = 10;
glyphname = C;
lastChange = "2025-02-17 08:45:43 +0000";
layers = (
{
anchors = (
{
name = bottom;
position = "{265, 0}";
},
{
name = top;
position = "{265, 727}";
}
);
layerId = m01;
paths = (
{
closed = 1;
nodes = (
"403 214 LINE SMOOTH",
"403 110 OFFCURVE",
"361 57 OFFCURVE",
"265 57 CURVE SMOOTH",
"167 57 OFFCURVE",
"136 110 OFFCURVE",
"136 214 CURVE SMOOTH",
"136 512 LINE SMOOTH",
"136 615 OFFCURVE",
"168 670 OFFCURVE",
"265 670 CURVE SMOOTH",
"363 670 OFFCURVE",
"401 622 OFFCURVE",
"403 518 CURVE",
"479 518 LINE",
"476 662 OFFCURVE",
"409 737 OFFCURVE",
"265 737 CURVE SMOOTH",
"119 737 OFFCURVE",
"60 657 OFFCURVE",
"60 510 CURVE SMOOTH",
"60 216 LINE SMOOTH",
"60 75 OFFCURVE",
"125 -10 OFFCURVE",
"265 -10 CURVE SMOOTH",
"405 -10 OFFCURVE",
"479 74 OFFCURVE",
"479 216 CURVE SMOOTH",
"479 230 LINE",
"403 230 LINE"
);
},
{
closed = 1;
nodes = (
"479 518 LINE",
"403 518 LINE"
);
}
);
vertWidth = 1200;
width = 524;
}
);
leftKerningGroup = O;
leftMetricsKey = O;
note = C;
rightKerningGroup = O;
rightMetricsKey = E;
unicode = 0043;
},
{
color = 10;
glyphname = D;
lastChange = "2025-02-17 08:45:43 +0000";
layers = (
{
anchors = (
{
name = bottom;
position = "{279, 0}";
},
{
name = center;
position = "{279, 364}";
},
{
name = top;
position = "{269, 727}";
}
);
layerId = m01;
paths = (
{
closed = 1;
nodes = (
"449 0 OFFCURVE",
"499 113 OFFCURVE",
"499 364 CURVE SMOOTH",
"499 619 OFFCURVE",
"455 727 OFFCURVE",
"270 727 CURVE",
"75 727 LINE",
"75 0 LINE",
"270 0 LINE"
);
},
{
closed = 1;
nodes = (
"151 67 LINE",
"151 660 LINE",
"260 660 LINE",
"360 660 OFFCURVE",
"418 601 OFFCURVE",
"418 453 CURVE SMOOTH",
"418 274 LINE SMOOTH",
"418 130 OFFCURVE",
"356 67 OFFCURVE",
"260 67 CURVE"
);
}
);
vertWidth = 1200;
width = 559;
}
);
leftMetricsKey = H;
note = D;
rightKerningGroup = O;
rightMetricsKey = O;
unicode = 0044;
},
{
color = 10;
glyphname = Eth;
lastChange = "2025-02-17 08:47:20 +0000";
layers = (
{
components = (
{
name = D;
}
);
layerId = m01;
paths = (
{
closed = 1;
nodes = (
"13 366 LINE",
"304 366 LINE",
"304 422 LINE",
"13 422 LINE"
);
}
);
width = 559;
}
);
rightKerningGroup = O;
unicode = 00D0;
},
{
color = 10;
glyphname = E;
lastChange = "2025-02-17 08:45:43 +0000";
layers = (
{
anchors = (
{
name = bottom;
position = "{255, 0}";
},
{
name = ogonek;
position = "{435, 0}";
},
{
name = top;
position = "{254, 727}";
},
{
name = topleft;
position = "{18, 727}";
}
);
layerId = m01;
paths = (
{
closed = 1;
nodes = (
"435 0 LINE",
"435 70 LINE",
"151 70 LINE",
"151 336 LINE",
"408 336 LINE",
"408 406 LINE",
"151 406 LINE",
"151 657 LINE",
"432 657 LINE",
"432 727 LINE",
"75 727 LINE",
"75 0 LINE"
);
}
);
vertWidth = 1200;
width = 480;
}
);
leftMetricsKey = H;
note = E;
rightKerningGroup = E;
unicode = 0045;
},
{
color = 10;
glyphname = F;
lastChange = "2025-02-17 08:45:43 +0000";
layers = (
{
anchors = (
{
name = bottom;
position = "{226, 0}";
},
{
name = top;
position = "{226, 727}";
}
);
layerId = m01;
paths = (
{
closed = 1;
nodes = (
"151 0 LINE",
"151 336 LINE",
"399 336 LINE",
"399 406 LINE",
"151 406 LINE",
"151 657 LINE",
"420 657 LINE",
"420 727 LINE",
"75 727 LINE",
"75 0 LINE"
);
}
);
vertWidth = 1200;
width = 465;
}
);
leftMetricsKey = H;
note = F;
rightKerningGroup = F;
rightMetricsKey = E;
unicode = 0046;
},
{
color = 10;
glyphname = G;
lastChange = "2025-02-17 08:45:43 +0000";
layers = (
{
anchors = (
{
name = bottom;
position = "{255, 0}";
},
{
name = top;
position = "{266, 727}";
}
);
background = {
components = (
{
name = _part.bowl;
transform = "{-1, 0, 0, 1, 516, 0}";
}
);
};
layerId = m01;
paths = (
{
closed = 1;
nodes = (
"403 214 LINE SMOOTH",
"403 110 OFFCURVE",
"361 57 OFFCURVE",
"265 57 CURVE SMOOTH",
"167 57 OFFCURVE",
"136 110 OFFCURVE",
"136 214 CURVE SMOOTH",
"136 512 LINE SMOOTH",
"136 615 OFFCURVE",
"168 670 OFFCURVE",
"265 670 CURVE SMOOTH",
"360 670 OFFCURVE",
"399 625 OFFCURVE",
"403 527 CURVE",
"479 527 LINE",
"474 665 OFFCURVE",
"406 737 OFFCURVE",
"265 737 CURVE SMOOTH",
"119 737 OFFCURVE",
"60 657 OFFCURVE",
"60 510 CURVE SMOOTH",
"60 216 LINE SMOOTH",
"60 75 OFFCURVE",
"125 -10 OFFCURVE",
"255 -10 CURVE SMOOTH",
"412 -10 OFFCURVE",
"430 74 OFFCURVE",
"439 216 CURVE SMOOTH",
"429 366 LINE",
"403 366 LINE"
);
},
{
closed = 1;
nodes = (
"479 527 LINE",
"403 527 LINE"
);
},
{
closed = 1;
nodes = (
"267 306 LINE",
"438 306 LINE",
"438 366 LINE",
"267 366 LINE"
);
},
{
closed = 1;
nodes = (
"403 0 LINE",
"479 0 LINE",
"479 366 LINE",
"403 366 LINE"
);
}
);
vertWidth = 1200;
width = 539;
}
);
leftKerningGroup = O;
leftMetricsKey = O;
note = G;
rightMetricsKey = O;
unicode = 0047;
},
{
color = 10;
glyphname = H;
lastChange = "2025-02-17 08:45:43 +0000";
layers = (
{
anchors = (
{
name = bottom;
position = "{277, 0}";
},
{
name = center;
position = "{277, 364}";
},
{
name = top;
position = "{277, 727}";
},
{
name = topleft;
position = "{18, 727}";
}
);
layerId = m01;
paths = (
{
closed = 1;
nodes = (
"151 0 LINE",
"151 336 LINE",
"401 336 LINE",
"401 0 LINE",
"477 0 LINE",
"477 727 LINE",
"401 727 LINE",
"401 406 LINE",
"151 406 LINE",
"151 727 LINE",
"75 727 LINE",
"75 0 LINE"
);
}
);
vertWidth = 1200;
width = 552;
}
);
note = H;
unicode = 0048;
},
{
color = 10;
glyphname = Hbar;
lastChange = "2025-02-17 08:47:20 +0000";
layers = (
{
components = (
{
name = H;
}
);
layerId = m01;
paths = (
{
closed = 1;
nodes = (
"10 546 LINE",
"542 546 LINE",
"542 602 LINE",
"10 602 LINE"
);
}
);
width = 552;
}
);
unicode = 0126;
},
{
color = 10;
glyphname = I;
lastChange = "2025-02-17 08:45:43 +0000";
layers = (
{
anchors = (
{
name = bottom;
position = "{113, 0}";
},
{
name = ogonek;
position = "{151, 0}";
},
{
name = top;
position = "{113, 727}";
},
{
name = topleft;
position = "{14, 727}";
}
);
layerId = m01;
paths = (
{
closed = 1;
nodes = (
"151 0 LINE",
"151 727 LINE",
"75 727 LINE",
"75 0 LINE"
);
}
);
vertWidth = 1200;
width = 226;
}
);
leftMetricsKey = H;
note = I;
rightMetricsKey = H;
unicode = 0049;
},
{
color = 10;
glyphname = J;
lastChange = "2025-02-17 08:45:43 +0000";
layers = (
{
anchors = (
{
name = bottom;
position = "{231, 0}";
},
{
name = top;
position = "{231, 727}";
}
);
layerId = m01;
paths = (
{
closed = 1;
nodes = (
"313 727 LINE",
"313 214 LINE SMOOTH",
"313 110 OFFCURVE",
"301 57 OFFCURVE",
"205 57 CURVE SMOOTH",
"127 57 OFFCURVE",
"110 110 OFFCURVE",
"110 214 CURVE SMOOTH",
"110 223 LINE",
"30 223 LINE",
"30 216 LINE SMOOTH",
"30 75 OFFCURVE",
"65 -10 OFFCURVE",
"205 -10 CURVE SMOOTH",
"345 -10 OFFCURVE",
"389 54 OFFCURVE",
"389 206 CURVE SMOOTH",
"389 727 LINE"
);
}
);
vertWidth = 1200;
width = 464;
}
);
leftKerningGroup = J;
note = J;
rightKerningGroup = J;
rightMetricsKey = H;
unicode = 004A;
},
{
color = 10;
glyphname = K;
lastChange = "2025-02-17 08:45:43 +0000";
layers = (
{
anchors = (
{
name = bottom;
position = "{257, 0}";
},
{
name = top;
position = "{257, 727}";
}
);
layerId = m01;
paths = (
{
closed = 1;
nodes = (
"513 0 LINE",
"253 399 LINE",
"498 727 LINE",
"409 727 LINE",
"160 399 LINE",
"415 0 LINE"
);
},
{
closed = 1;
nodes = (
"151 0 LINE",
"151 727 LINE",
"75 727 LINE",
"75 0 LINE"
);
}
);
vertWidth = 1200;
width = 518;
}
);
leftMetricsKey = H;
note = K;
rightKerningGroup = X;
unicode = 004B;
},
{
color = 10;
glyphname = L;
lastChange = "2025-02-17 08:45:43 +0000";
layers = (
{
anchors = (
{
name = bottom;
position = "{244, 0}";
},
{
name = center;
position = "{221, 364}";
},
{
name = top;
position = "{113, 727}";
},
{
name = topright;
position = "{273, 505}";
}
);
layerId = m01;
paths = (
{
closed = 1;
nodes = (
"413 0 LINE",
"413 70 LINE",
"151 70 LINE",
"151 727 LINE",
"75 727 LINE",
"75 0 LINE"
);
}
);
vertWidth = 1200;
width = 443;
}
);
leftMetricsKey = H;
note = L;
rightKerningGroup = L;
unicode = 004C;
},
{
color = 10;
glyphname = Lslash;
lastChange = "2025-02-17 08:47:34 +0000";
layers = (
{
components = (
{
name = L;
}
);
layerId = m01;
paths = (
{
closed = 1;
nodes = (
"13 266 LINE",
"304 416 LINE",
"304 482 LINE",
"13 332 LINE"
);
}
);
width = 443;
}
);
rightKerningGroup = L;
unicode = 0141;
},
{
color = 10;
glyphname = M;
lastChange = "2025-02-17 08:45:43 +0000";
layers = (
{
anchors = (
{
name = bottom;
position = "{388, 0}";
},
{
name = top;
position = "{388, 727}";
}
);
layerId = m01;
paths = (
{
closed = 1;
nodes = (
"149 0 LINE",
"149 660 LINE",
"344 0 LINE",
"432 0 LINE",
"627 660 LINE",
"627 0 LINE",
"701 0 LINE",
"701 727 LINE",
"566 727 LINE",
"388 127 LINE",
"211 727 LINE",
"75 727 LINE",
"75 0 LINE"
);
}
);
vertWidth = 1200;
width = 776;
}
);
leftMetricsKey = H;
note = M;
rightMetricsKey = H;
unicode = 004D;
},
{
color = 10;
glyphname = N;
lastChange = "2025-02-17 08:45:43 +0000";
layers = (
{
anchors = (
{
name = bottom;
position = "{304, 0}";
},
{
name = top;
position = "{326, 727}";
}
);
layerId = m01;
paths = (
{
closed = 1;
nodes = (
"151 0 LINE",
"151 642 LINE",
"436 0 LINE",
"555 0 LINE",
"555 727 LINE",
"479 727 LINE",
"479 85 LINE",
"194 727 LINE",
"75 727 LINE",
"75 0 LINE"
);
}
);
vertWidth = 1200;
width = 630;
}
);
leftMetricsKey = H;
note = N;
rightMetricsKey = H;
unicode = 004E;
},
{
color = 10;
glyphname = Eng;
lastChange = "2025-02-17 08:47:47 +0000";
layers = (
{
components = (
{
name = N;
}
);
layerId = m01;
paths = (
{
closed = 1;
nodes = (
"445 -190 LINE SMOOTH",
"533 -190 OFFCURVE",
"557 -167 OFFCURVE",
"557 -54 CURVE SMOOTH",
"557 505 LINE",
"481 505 LINE",
"481 -69 LINE SMOOTH",
"481 -124 OFFCURVE",
"474 -126 OFFCURVE",
"418 -126 CURVE",
"418 -190 LINE"
);
}
);
width = 632;
}
);
leftMetricsKey = H;
rightMetricsKey = H;
unicode = 014A;
},
{
color = 10;
glyphname = O;
lastChange = "2025-02-17 08:45:43 +0000";
layers = (
{
anchors = (
{
name = bottom;
position = "{265, 0}";
},
{
name = center;
position = "{270, 364}";
},
{
name = ogonek;
position = "{487, 10}";
},
{
name = top;
position = "{265, 727}";
},
{
name = topleft;
position = "{18, 727}";
},
{
name = topright;
position = "{521, 727}";
}
);
layerId = m01;
paths = (
{
closed = 1;
nodes = (
"405 -10 OFFCURVE",
"479 74 OFFCURVE",
"479 216 CURVE SMOOTH",
"479 510 LINE SMOOTH",
"479 659 OFFCURVE",
"412 737 OFFCURVE",
"265 737 CURVE SMOOTH",
"119 737 OFFCURVE",
"60 657 OFFCURVE",
"60 510 CURVE SMOOTH",
"60 216 LINE SMOOTH",
"60 75 OFFCURVE",
"125 -10 OFFCURVE",
"265 -10 CURVE SMOOTH"
);
},
{
closed = 1;
nodes = (
"167 57 OFFCURVE",
"136 110 OFFCURVE",
"136 214 CURVE SMOOTH",
"136 512 LINE SMOOTH",
"136 615 OFFCURVE",
"168 670 OFFCURVE",
"265 670 CURVE SMOOTH",
"365 670 OFFCURVE",
"403 620 OFFCURVE",
"403 512 CURVE SMOOTH",
"403 214 LINE SMOOTH",
"403 110 OFFCURVE",
"361 57 OFFCURVE",
"265 57 CURVE SMOOTH"
);
}
);
vertWidth = 1200;
width = 539;
}
);
leftKerningGroup = O;
note = O;
rightKerningGroup = O;
unicode = 004F;
},
{
color = 10;
glyphname = Oslash;
lastChange = "2025-02-17 08:47:47 +0000";
layers = (
{
components = (
{
name = O;
}
);
layerId = m01;
paths = (
{
closed = 1;
nodes = (
"104 -50 LINE",
"153 -50 LINE",
"439 777 LINE",
"390 777 LINE"
);
}
);
width = 539;
}
);
leftKerningGroup = O;
leftMetricsKey = O;
rightKerningGroup = O;
rightMetricsKey = O;
unicode = 00D8;
},
{
color = 10;
glyphname = OE;
lastChange = "2025-02-17 08:48:52 +0000";
layers = (
{
background = {
paths = (
{
closed = 1;
nodes = (
"333 -10 OFFCURVE",
"378 16 OFFCURVE",
"403 64 CURVE",
"403 0 LINE",
"763 0 LINE",
"763 70 LINE",
"479 70 LINE",
"479 336 LINE",
"736 336 LINE",
"736 406 LINE",
"479 406 LINE",
"479 657 LINE",
"760 657 LINE",
"760 727 LINE",
"403 727 LINE",
"403 670 LINE",
"379 714 OFFCURVE",
"335 737 OFFCURVE",
"255 737 CURVE SMOOTH",
"119 737 OFFCURVE",
"60 657 OFFCURVE",
"60 510 CURVE SMOOTH",
"60 216 LINE SMOOTH",
"60 75 OFFCURVE",
"125 -10 OFFCURVE",
"255 -10 CURVE SMOOTH"
);
},
{
closed = 1;
nodes = (
"136 512 LINE SMOOTH",
"136 615 OFFCURVE",
"168 670 OFFCURVE",
"265 670 CURVE SMOOTH",
"365 670 OFFCURVE",
"403 620 OFFCURVE",
"403 512 CURVE SMOOTH",
"403 214 LINE SMOOTH",
"403 110 OFFCURVE",
"361 57 OFFCURVE",
"265 57 CURVE SMOOTH",
"167 57 OFFCURVE",
"136 110 OFFCURVE",
"136 214 CURVE SMOOTH"
);
},
{
closed = 1;
nodes = (
"390 667 LINE",
"419 667 LINE",
"419 680 LINE",
"390 680 LINE"
);
},
{
closed = 1;
nodes = (
"390 54 LINE",
"419 54 LINE",
"419 67 LINE",
"390 67 LINE"
);
}
);
};
layerId = m01;
paths = (
{
closed = 1;
nodes = (
"330 -10 OFFCURVE",
"376 12 OFFCURVE",
"403 54 CURVE",
"403 0 LINE",
"763 0 LINE",
"763 70 LINE",
"479 70 LINE",
"479 336 LINE",
"736 336 LINE",
"736 406 LINE",
"479 406 LINE",
"479 657 LINE",
"760 657 LINE",
"760 727 LINE",
"403 727 LINE",
"403 680 LINE",
"377 717 OFFCURVE",
"332 737 OFFCURVE",
"255 737 CURVE SMOOTH",
"119 737 OFFCURVE",
"60 657 OFFCURVE",
"60 510 CURVE SMOOTH",
"60 216 LINE SMOOTH",
"60 75 OFFCURVE",
"125 -10 OFFCURVE",
"255 -10 CURVE SMOOTH"
);
},
{
closed = 1;
nodes = (
"136 512 LINE SMOOTH",
"136 615 OFFCURVE",
"168 670 OFFCURVE",
"265 670 CURVE SMOOTH",
"365 670 OFFCURVE",
"403 620 OFFCURVE",
"403 512 CURVE SMOOTH",
"403 214 LINE SMOOTH",
"403 110 OFFCURVE",
"361 57 OFFCURVE",
"265 57 CURVE SMOOTH",
"167 57 OFFCURVE",
"136 110 OFFCURVE",
"136 214 CURVE SMOOTH"
);
}
);
width = 808;
}
);
leftKerningGroup = O;
leftMetricsKey = O;
rightMetricsKey = E;
unicode = 0152;
},
{
color = 10;
glyphname = P;
lastChange = "2025-02-17 08:45:43 +0000";
layers = (
{
anchors = (
{
name = bottom;
position = "{242, 0}";
},
{
name = top;
position = "{242, 727}";
}
);
layerId = m01;
paths = (
{
closed = 1;
nodes = (
"151 0 LINE",
"151 323 LINE",
"266 323 LINE SMOOTH",
"395 323 OFFCURVE",
"458 389 OFFCURVE",
"458 523 CURVE SMOOTH",
"458 659 OFFCURVE",
"393 727 OFFCURVE",
"267 727 CURVE SMOOTH",
"75 727 LINE",
"75 0 LINE"
);
},
{
closed = 1;
nodes = (
"151 656 LINE",
"244 656 LINE SMOOTH",
"340 656 OFFCURVE",
"382 616 OFFCURVE",
"382 522 CURVE SMOOTH",
"382 430 OFFCURVE",
"341 394 OFFCURVE",
"244 394 CURVE SMOOTH",
"151 394 LINE"
);
}
);
vertWidth = 1200;
width = 488;
}
);
leftMetricsKey = H;
note = P;
rightKerningGroup = P;
rightMetricsKey = L;
unicode = 0050;
},
{
color = 10;
glyphname = Thorn;
lastChange = "2025-02-17 08:47:47 +0000";
layers = (
{
layerId = m01;
paths = (
{
closed = 1;
nodes = (
"151 0 LINE",
"151 163 LINE",
"266 163 LINE SMOOTH",
"395 163 OFFCURVE",
"458 229 OFFCURVE",
"458 363 CURVE SMOOTH",
"458 499 OFFCURVE",
"393 567 OFFCURVE",
"267 567 CURVE SMOOTH",
"75 567 LINE",
"75 0 LINE"
);
},
{
closed = 1;
nodes = (
"151 496 LINE",
"244 496 LINE SMOOTH",
"340 496 OFFCURVE",
"382 456 OFFCURVE",
"382 362 CURVE SMOOTH",
"382 270 OFFCURVE",
"341 234 OFFCURVE",
"244 234 CURVE SMOOTH",
"151 234 LINE"
);
},
{
closed = 1;
nodes = (
"75 452 LINE",
"151 452 LINE",
"151 727 LINE",
"75 727 LINE"
);
}
);
width = 488;
}
);
leftMetricsKey = H;
rightKerningGroup = P;
rightMetricsKey = L;
unicode = 00DE;
},
{
color = 10;
glyphname = Q;
lastChange = "2025-02-17 08:45:43 +0000";
layers = (
{
anchors = (
{
name = bottom;
position = "{271, 0}";
},
{
name = top;
position = "{271, 727}";
}
);
layerId = m01;
paths = (
{
closed = 1;
nodes = (
"385 0 OFFCURVE",
"479 94 OFFCURVE",
"479 236 CURVE SMOOTH",
"479 510 LINE SMOOTH",
"479 659 OFFCURVE",
"412 737 OFFCURVE",
"265 737 CURVE SMOOTH",
"119 737 OFFCURVE",
"60 657 OFFCURVE",
"60 510 CURVE SMOOTH",
"60 226 LINE SMOOTH",
"60 85 OFFCURVE",
"125 0 OFFCURVE",
"265 0 CURVE SMOOTH"
);
},
{
closed = 1;
nodes = (
"167 67 OFFCURVE",
"136 120 OFFCURVE",
"136 224 CURVE SMOOTH",
"136 512 LINE SMOOTH",
"136 615 OFFCURVE",
"168 670 OFFCURVE",
"265 670 CURVE SMOOTH",
"365 670 OFFCURVE",
"403 620 OFFCURVE",
"403 512 CURVE SMOOTH",
"403 224 LINE SMOOTH",
"403 120 OFFCURVE",
"361 67 OFFCURVE",
"265 67 CURVE SMOOTH"
);
},
{
closed = 1;
nodes = (
"300 0 OFFCURVE",
"349 0 OFFCURVE",
"528 0 CURVE",
"528 65 LINE",
"494 65 OFFCURVE",
"442 58 OFFCURVE",
"395 46 CURVE",
"265 0 LINE"
);
}
);
vertWidth = 1200;
width = 558;
}
);
leftKerningGroup = O;
leftMetricsKey = O;
note = Q;
rightMetricsKey = L;
unicode = 0051;
},
{
color = 10;
glyphname = R;
lastChange = "2025-02-17 08:45:43 +0000";
layers = (
{
anchors = (
{
name = bottom;
position = "{273, 0}";
},
{
name = top;
position = "{246, 727}";
}
);
background = {
paths = (
{
closed = 1;
nodes = (
"218 333 LINE",
"302 333 OFFCURVE",
"340 319 OFFCURVE",
"353 281 CURVE SMOOTH",
"360 255 OFFCURVE",
"364 225 OFFCURVE",
"369 149 CURVE SMOOTH",
"374 59 OFFCURVE",
"378 27 OFFCURVE",
"389 0 CURVE",
"476 0 LINE",
"458 42 OFFCURVE",
"452 71 OFFCURVE",
"450 129 CURVE SMOOTH",
"444 324 OFFCURVE",
"430 356 OFFCURVE",
"338 376 CURVE"
);
},
{
closed = 1;
nodes = (
"151 0 LINE",
"151 371 LINE",
"266 371 LINE SMOOTH",
"375 371 OFFCURVE",
"458 389 OFFCURVE",
"458 523 CURVE SMOOTH",
"458 659 OFFCURVE",
"393 727 OFFCURVE",
"267 727 CURVE SMOOTH",
"75 727 LINE",
"75 0 LINE"
);
},
{
closed = 1;
nodes = (
"151 656 LINE",
"244 656 LINE SMOOTH",
"340 656 OFFCURVE",
"382 616 OFFCURVE",
"382 522 CURVE SMOOTH",
"382 430 OFFCURVE",
"341 394 OFFCURVE",
"244 394 CURVE SMOOTH",
"151 394 LINE"
);
},
{
closed = 1;
nodes = (
"144 333 LINE",
"337 333 LINE",
"337 382 LINE",
"144 382 LINE"
);
}
);
};
layerId = m01;
paths = (
{
closed = 1;
nodes = (
"151 0 LINE",
"151 333 LINE",
"218 333 LINE SMOOTH",
"302 333 OFFCURVE",
"340 319 OFFCURVE",
"353 281 CURVE",
"360 255 OFFCURVE",
"364 225 OFFCURVE",
"369 149 CURVE SMOOTH",
"374 59 OFFCURVE",
"378 27 OFFCURVE",
"389 0 CURVE",
"476 0 LINE",
"458 42 OFFCURVE",
"452 71 OFFCURVE",
"450 129 CURVE SMOOTH",
"444 323 OFFCURVE",
"430 356 OFFCURVE",
"340 376 CURVE",
"410 387 OFFCURVE",
"458 422 OFFCURVE",
"458 523 CURVE SMOOTH",
"458 659 OFFCURVE",
"393 727 OFFCURVE",
"267 727 CURVE SMOOTH",
"75 727 LINE",
"75 0 LINE"
);
},
{
closed = 1;
nodes = (
"151 656 LINE",
"244 656 LINE SMOOTH",
"340 656 OFFCURVE",
"382 616 OFFCURVE",
"382 522 CURVE SMOOTH",
"382 430 OFFCURVE",
"341 394 OFFCURVE",
"244 394 CURVE SMOOTH",
"151 394 LINE"
);
}
);
vertWidth = 1200;
width = 536;
}
);
leftMetricsKey = H;
note = R;
rightKerningGroup = R;
rightMetricsKey = O;
unicode = 0052;
},
{
color = 10;
glyphname = S;
lastChange = "2025-02-17 08:45:43 +0000";
layers = (
{
anchors = (
{
name = bottom;
position = "{263, 0}";
},
{
name = top;
position = "{263, 727}";
}
);
layerId = m01;
paths = (
{
closed = 1;
nodes = (
"394 -10 OFFCURVE",
"472 60 OFFCURVE",
"472 186 CURVE SMOOTH",
"472 424 OFFCURVE",
"142 387 OFFCURVE",
"142 559 CURVE SMOOTH",
"142 628 OFFCURVE",
"190 670 OFFCURVE",
"264 670 CURVE SMOOTH",
"346 670 OFFCURVE",
"386 626 OFFCURVE",
"386 539 CURVE SMOOTH",
"386 519 LINE",
"467 519 LINE",
"468 540 LINE SMOOTH",
"474 672 OFFCURVE",
"396 737 OFFCURVE",
"264 737 CURVE SMOOTH",
"141 737 OFFCURVE",
"66 669 OFFCURVE",
"66 551 CURVE SMOOTH",
"66 322 OFFCURVE",
"396 354 OFFCURVE",
"396 179 CURVE SMOOTH",
"396 103 OFFCURVE",
"343 57 OFFCURVE",
"259 57 CURVE SMOOTH",
"166 57 OFFCURVE",
"128 103 OFFCURVE",
"128 209 CURVE SMOOTH",
"128 239 LINE",
"47 239 LINE",
"45 198 LINE",
"46 57 OFFCURVE",
"119 -10 OFFCURVE",
"261 -10 CURVE SMOOTH"
);
}
);
vertWidth = 1200;
width = 517;
}
);
leftKerningGroup = S;
note = S;
rightKerningGroup = S;
unicode = 0053;
},
{
color = 10;
glyphname = T;
lastChange = "2025-02-17 08:45:43 +0000";
layers = (
{
anchors = (
{
name = bottom;
position = "{257, 0}";
},
{
name = center;
position = "{252, 364}";
},
{
name = top;
position = "{257, 727}";
}
);
hints = (
{
horizontal = 1;
place = "{0, 21}";
target = up;
type = BottomGhost;
}
);
layerId = m01;
paths = (
{
closed = 1;
nodes = (
"295 0 LINE",
"295 657 LINE",
"484 657 LINE",
"484 727 LINE",
"30 727 LINE",
"30 657 LINE",
"219 657 LINE",
"219 0 LINE"
);
}
);
vertWidth = 1200;
width = 514;
}
);
leftKerningGroup = T;
leftMetricsKey = J;
note = T;
rightKerningGroup = T;
rightMetricsKey = L;
unicode = 0054;
},
{
color = 10;
glyphname = Tbar;
lastChange = "2025-02-17 08:47:47 +0000";
layers = (
{
components = (
{
name = T;
}
);
layerId = m01;
paths = (
{
closed = 1;
nodes = (
"120 366 LINE",
"411 366 LINE",
"411 422 LINE",
"120 422 LINE"
);
}
);
width = 514;
}
);
leftKerningGroup = T;
leftMetricsKey = T;
rightKerningGroup = T;
rightMetricsKey = T;
unicode = 0166;
},
{
color = 10;
glyphname = U;
lastChange = "2025-02-17 08:45:43 +0000";
layers = (
{
anchors = (
{
name = bottom;
position = "{265, 0}";
},
{
name = ogonek;
position = "{341, 0}";
},
{
name = top;
position = "{265, 727}";
},
{
name = topright;
position = "{519, 727}";
}
);
layerId = m01;
paths = (
{
closed = 1;
nodes = (
"403 214 LINE SMOOTH",
"403 110 OFFCURVE",
"361 57 OFFCURVE",
"265 57 CURVE SMOOTH",
"167 57 OFFCURVE",
"136 110 OFFCURVE",
"136 214 CURVE SMOOTH",
"136 727 LINE",
"60 727 LINE",
"60 216 LINE SMOOTH",
"60 75 OFFCURVE",
"125 -10 OFFCURVE",
"265 -10 CURVE SMOOTH",
"405 -10 OFFCURVE",
"479 74 OFFCURVE",
"479 216 CURVE SMOOTH",
"479 727 LINE",
"403 727 LINE"
);
}
);
vertWidth = 1200;
width = 539;
}
);
leftKerningGroup = U;
leftMetricsKey = O;
note = U;
rightKerningGroup = J;
rightMetricsKey = O;
unicode = 0055;
},
{
color = 10;
glyphname = V;
lastChange = "2025-02-17 08:45:43 +0000";
layers = (
{
anchors = (
{
name = bottom;
position = "{269, 0}";
},
{
name = top;
position = "{269, 727}";
}
);
layerId = m01;
paths = (
{
closed = 1;
nodes = (
"212 0 LINE",
"291 0 LINE",
"110 727 LINE",
"30 727 LINE"
);
},
{
closed = 1;
nodes = (
"429 727 LINE",
"248 0 LINE",
"327 0 LINE",
"509 727 LINE"
);
}
);
vertWidth = 1200;
width = 539;
}
);
leftKerningGroup = V;
note = V;
rightKerningGroup = V;
unicode = 0056;
},
{
color = 10;
glyphname = W;
lastChange = "2025-02-17 08:45:43 +0000";
layers = (
{
anchors = (
{
name = bottom;
position = "{425, 0}";
},
{
name = top;
position = "{425, 727}";
}
);
layerId = m01;
paths = (
{
closed = 1;
nodes = (
"180 0 LINE",
"257 0 LINE",
"110 727 LINE",
"30 727 LINE"
);
},
{
closed = 1;
nodes = (
"739 727 LINE",
"592 0 LINE",
"669 0 LINE",
"819 727 LINE"
);
},
{
closed = 1;
nodes = (
"379 727 LINE",
"216 0 LINE",
"283 0 LINE",
"445 727 LINE"
);
},
{
closed = 1;
nodes = (
"566 0 LINE",
"633 0 LINE",
"470 727 LINE",
"404 727 LINE"
);
}
);
vertWidth = 1200;
width = 849;
}
);
leftKerningGroup = V;
leftMetricsKey = V;
note = W;
rightKerningGroup = V;
rightMetricsKey = V;
unicode = 0057;
},
{
color = 10;
glyphname = X;
lastChange = "2025-02-17 08:45:43 +0000";
layers = (
{
anchors = (
{
name = bottom;
position = "{259, 0}";
},
{
name = top;
position = "{259, 727}";
}
);
layerId = m01;
paths = (
{
closed = 1;
nodes = (
"405 0 LINE",
"488 0 LINE",
"113 727 LINE",
"30 727 LINE"
);
},
{
closed = 1;
nodes = (
"405 727 LINE",
"30 0 LINE",
"113 0 LINE",
"488 727 LINE"
);
}
);
vertWidth = 1200;
width = 518;
}
);
leftKerningGroup = X;
leftMetricsKey = V;
note = X;
rightKerningGroup = X;
rightMetricsKey = V;
unicode = 0058;
},
{
color = 10;
glyphname = Y;
lastChange = "2025-02-17 08:45:43 +0000";
layers = (
{
anchors = (
{
name = bottom;
position = "{229, 0}";
},
{
name = top;
position = "{229, 727}";
},
{
name = topleft;
position = "{20, 727}";
}
);
background = {
paths = (
{
closed = 1;
nodes = (
"267 0 LINE",
"267 301 LINE",
"443 727 LINE",
"361 727 LINE",
"232 393 LINE",
"226 393 LINE",
"96 727 LINE",
"15 727 LINE",
"191 301 LINE",
"191 0 LINE"
);
}
);
};
layerId = m01;
paths = (
{
closed = 1;
nodes = (
"267 0 LINE",
"267 301 LINE",
"443 727 LINE",
"361 727 LINE",
"229 385 LINE",
"96 727 LINE",
"15 727 LINE",
"191 301 LINE",
"191 0 LINE"
);
}
);
vertWidth = 1200;
width = 458;
}
);
leftKerningGroup = V;
leftMetricsKey = "=V/2";
note = Y;
rightKerningGroup = V;
rightMetricsKey = "=V/2";
unicode = 0059;
},
{
color = 10;
glyphname = Z;
lastChange = "2025-02-17 08:45:43 +0000";
layers = (
{
anchors = (
{
name = bottom;
position = "{258, 0}";
},
{
name = center;
position = "{256, 363.5}";
},
{
name = top;
position = "{263, 727}";
}
);
background = {
paths = (
{
closed = 1;
nodes = (
"470 0 LINE",
"470 70 LINE",
"138 70 LINE",
"138 77 LINE",
"470 655 LINE",
"470 727 LINE",
"56 727 LINE",
"56 657 LINE",
"377 657 LINE",
"377 650 LINE",
"45 79 LINE",
"45 0 LINE"
);
}
);
};
layerId = m01;
paths = (
{
closed = 1;
nodes = (
"470 0 LINE",
"470 70 LINE",
"134 70 LINE",
"470 655 LINE",
"470 727 LINE",
"56 727 LINE",
"56 657 LINE",
"381 657 LINE",
"45 79 LINE",
"45 0 LINE"
);
}
);
vertWidth = 1200;
width = 515;
}
);
leftKerningGroup = Z;
leftMetricsKey = S;
note = Z;
rightKerningGroup = Z;
rightMetricsKey = S;
unicode = 005A;
},
{
color = 10;
glyphname = a;
lastChange = "2025-02-17 08:45:43 +0000";
layers = (
{
anchors = (
{
name = bottom;
position = "{232, 0}";
},
{
name = ogonek;
position = "{401, 0}";
},
{
name = top;
position = "{235, 505}";
}
);
layerId = m01;
paths = (
{
closed = 1;
nodes = (
"267 -10 OFFCURVE",
"296 26 OFFCURVE",
"325 61 CURVE",
"325 0 LINE",
"401 0 LINE",
"401 325 LINE SMOOTH",
"401 460 OFFCURVE",
"369 515 OFFCURVE",
"235 515 CURVE SMOOTH",
"131 515 OFFCURVE",
"68 464 OFFCURVE",
"66 361 CURVE",
"142 361 LINE",
"144 436 OFFCURVE",
"176 460 OFFCURVE",
"233 460 CURVE SMOOTH",
"292 460 OFFCURVE",
"325 433 OFFCURVE",
"325 361 CURVE SMOOTH",
"325 313 LINE",
"253 313 LINE SMOOTH",
"126 313 OFFCURVE",
"55 241 OFFCURVE",
"55 141 CURVE SMOOTH",
"55 50 OFFCURVE",
"100 -10 OFFCURVE",
"181 -10 CURVE SMOOTH"
);
},
{
closed = 1;
nodes = (
"164 52 OFFCURVE",
"131 84 OFFCURVE",
"131 142 CURVE SMOOTH",
"131 212 OFFCURVE",
"176 258 OFFCURVE",
"257 258 CURVE SMOOTH",
"325 258 LINE",
"325 121 OFFCURVE",
"296 52 OFFCURVE",
"208 52 CURVE SMOOTH"
);
}
);
vertWidth = 1200;
width = 461;
}
);
leftKerningGroup = o;
note = a;
rightKerningGroup = n;
rightMetricsKey = n;
unicode = 0061;
},
{
color = 10;
glyphname = ae;
lastChange = "2025-02-17 08:45:56 +0000";
layers = (
{
background = {
paths = (
{
closed = 1;
nodes = (
"271 -10 OFFCURVE",
"326 21 OFFCURVE",
"357 77 CURVE",
"377 67 LINE",
"401 80 LINE",
"401 325 LINE",
"401 430 OFFCURVE",
"369 515 OFFCURVE",
"235 515 CURVE SMOOTH",
"131 515 OFFCURVE",
"68 464 OFFCURVE",
"66 361 CURVE",
"142 361 LINE",
"144 436 OFFCURVE",
"176 460 OFFCURVE",
"233 460 CURVE SMOOTH",
"292 460 OFFCURVE",
"325 433 OFFCURVE",
"325 361 CURVE SMOOTH",
"325 294 LINE",
"253 294 LINE",
"126 294 OFFCURVE",
"55 241 OFFCURVE",
"55 141 CURVE SMOOTH",
"55 50 OFFCURVE",
"110 -10 OFFCURVE",
"191 -10 CURVE SMOOTH"
);
},
{
closed = 1;
nodes = (
"164 52 OFFCURVE",
"131 84 OFFCURVE",
"131 142 CURVE SMOOTH",
"131 212 OFFCURVE",
"176 239 OFFCURVE",
"257 239 CURVE",
"325 239 LINE",
"325 102 OFFCURVE",
"296 52 OFFCURVE",
"208 52 CURVE SMOOTH"
);
},
{
closed = 1;
nodes = (
"686 310 LINE SMOOTH",
"686 440 OFFCURVE",
"623 515 OFFCURVE",
"503 515 CURVE SMOOTH",
"383 515 OFFCURVE",
"325 410 OFFCURVE",
"325 310 CURVE SMOOTH",
"325 192 LINE SMOOTH",
"325 62 OFFCURVE",
"383 -10 OFFCURVE",
"503 -10 CURVE SMOOTH",
"611 -10 OFFCURVE",
"673 49 OFFCURVE",
"684 155 CURVE",
"608 155 LINE",
"599 86 OFFCURVE",
"563 45 OFFCURVE",
"503 45 CURVE SMOOTH",
"433 45 OFFCURVE",
"401 101 OFFCURVE",
"401 191 CURVE SMOOTH",
"401 310 LINE SMOOTH",
"401 400 OFFCURVE",
"433 460 OFFCURVE",
"503 460 CURVE SMOOTH",
"573 460 OFFCURVE",
"610 400 OFFCURVE",
"610 310 CURVE SMOOTH",
"610 239 LINE",
"686 239 LINE"
);
},
{
closed = 1;
nodes = (
"380 239 LINE",
"686 239 LINE",
"686 294 LINE",
"380 294 LINE"
);
}
);
};
layerId = m01;
paths = (
{
closed = 1;
nodes = (
"266 -10 OFFCURVE",
"320 18 OFFCURVE",
"351 68 CURVE",
"379 17 OFFCURVE",
"430 -10 OFFCURVE",
"503 -10 CURVE SMOOTH",
"611 -10 OFFCURVE",
"673 49 OFFCURVE",
"684 155 CURVE",
"608 155 LINE",
"599 86 OFFCURVE",
"563 45 OFFCURVE",
"503 45 CURVE SMOOTH",
"433 45 OFFCURVE",
"401 101 OFFCURVE",
"401 191 CURVE SMOOTH",
"401 239 LINE",
"686 239 LINE",
"686 310 LINE SMOOTH",
"686 440 OFFCURVE",
"623 515 OFFCURVE",
"503 515 CURVE SMOOTH",
"445 515 OFFCURVE",
"401 490 OFFCURVE",
"372 454 CURVE",
"348 491 OFFCURVE",
"306 515 OFFCURVE",
"235 515 CURVE SMOOTH",
"131 515 OFFCURVE",
"68 464 OFFCURVE",
"66 361 CURVE",
"142 361 LINE",
"144 436 OFFCURVE",
"176 460 OFFCURVE",
"233 460 CURVE SMOOTH",
"292 460 OFFCURVE",
"325 433 OFFCURVE",
"325 361 CURVE SMOOTH",
"325 294 LINE",
"253 294 LINE SMOOTH",
"126 294 OFFCURVE",
"55 241 OFFCURVE",
"55 141 CURVE SMOOTH",
"55 50 OFFCURVE",
"110 -10 OFFCURVE",
"191 -10 CURVE SMOOTH"
);
},
{
closed = 1;
nodes = (
"131 212 OFFCURVE",
"176 239 OFFCURVE",
"257 239 CURVE SMOOTH",
"325 239 LINE",
"325 102 OFFCURVE",
"296 52 OFFCURVE",
"208 52 CURVE SMOOTH",
"164 52 OFFCURVE",
"131 84 OFFCURVE",
"131 142 CURVE SMOOTH"
);
},
{
closed = 1;
nodes = (
"401 310 LINE SMOOTH",
"401 400 OFFCURVE",
"433 460 OFFCURVE",
"503 460 CURVE SMOOTH",
"573 460 OFFCURVE",
"610 400 OFFCURVE",
"610 310 CURVE SMOOTH",
"610 294 LINE",
"401 294 LINE"
);
}
);
width = 731;
}
);
leftKerningGroup = o;
leftMetricsKey = a;
rightKerningGroup = o;
rightMetricsKey = e;
unicode = 00E6;
},
{
color = 10;
glyphname = b;
lastChange = "2025-02-17 08:45:43 +0000";
layers = (
{
anchors = (
{
name = bottom;
position = "{232, 0}";
},
{
name = top;
position = "{232, 505}";
}
);
components = (
{
name = _part.bowl;
transform = "{1, 0, 0, 1, 30, 0}";
}
);
hints = (
{
horizontal = 1;
place = "{727, -20}";
target = down;
type = TopGhost;
}
);
layerId = m01;
paths = (
{
closed = 1;
nodes = (
"65 0 LINE",
"141 0 LINE",
"141 727 LINE",
"65 727 LINE"
);
}
);
vertWidth = 1200;
width = 463;
}
);
leftMetricsKey = n;
note = b;
rightKerningGroup = o;
rightMetricsKey = o;
unicode = 0062;
},
{
color = 10;
glyphname = c;
lastChange = "2025-02-17 08:45:43 +0000";
layers = (
{
anchors = (
{
name = bottom;
position = "{223, 0}";
},
{
name = top;
position = "{223, 505}";
}
);
layerId = m01;
paths = (
{
closed = 1;
nodes = (
"311 86 OFFCURVE",
"280 45 OFFCURVE",
"220 45 CURVE SMOOTH",
"150 45 OFFCURVE",
"121 101 OFFCURVE",
"121 191 CURVE SMOOTH",
"121 310 LINE SMOOTH",
"121 400 OFFCURVE",
"153 460 OFFCURVE",
"223 460 CURVE SMOOTH",
"282 460 OFFCURVE",
"300 418 OFFCURVE",
"308 350 CURVE",
"384 350 LINE",
"374 455 OFFCURVE",
"330 515 OFFCURVE",
"223 515 CURVE SMOOTH",
"103 515 OFFCURVE",
"45 440 OFFCURVE",
"45 310 CURVE SMOOTH",
"45 192 LINE SMOOTH",
"45 62 OFFCURVE",
"100 -10 OFFCURVE",
"220 -10 CURVE SMOOTH",
"328 -10 OFFCURVE",
"384 48 OFFCURVE",
"394 154 CURVE",
"318 154 LINE"
);
}
);
vertWidth = 1200;
width = 439;
}
);
leftKerningGroup = o;
leftMetricsKey = o;
note = c;
rightKerningGroup = o;
rightMetricsKey = o;
unicode = 0063;
},
{
color = 10;
glyphname = d;
lastChange = "2025-02-17 08:45:43 +0000";
layers = (
{
anchors = (
{
name = bottom;
position = "{232, 0}";
},
{
name = center;
position = "{232, 253}";
},
{
name = top;
position = "{232, 505}";
},
{
name = topright;
position = "{444, 505}";
}
);
components = (
{
name = _part.bowl;
transform = "{-1, 0, 0, 1, 433, 0}";
}
);
layerId = m01;
paths = (
{
closed = 1;
nodes = (
"320 0 LINE",
"396 0 LINE",
"396 727 LINE",
"320 727 LINE"
);
}
);
vertWidth = 1200;
width = 461;
}
);
leftKerningGroup = o;
leftMetricsKey = o;
note = d;
unicode = 0064;
},
{
color = 10;
glyphname = eth;
lastChange = "2025-02-17 08:49:19 +0000";
layers = (
{
background = {
paths = (
{
closed = 1;
nodes = (
"335 298 LINE",
"396 309 LINE",
"396 590 OFFCURVE",
"358 732 OFFCURVE",
"122 767 CURVE",
"97 727 LINE",
"226 713 OFFCURVE",
"318 626 OFFCURVE",
"320 446 CURVE"
);
},
{
closed = 1;
nodes = (
"121 576 LINE",
"412 726 LINE",
"412 792 LINE",
"121 642 LINE"
);
},
{
closed = 1;
nodes = (
"304 455 LINE",
"304 410 LINE",
"343 410 LINE",
"343 455 LINE"
);
},
{
closed = 1;
nodes = (
"341 310 LINE SMOOTH",
"341 450 OFFCURVE",
"283 515 OFFCURVE",
"193 515 CURVE SMOOTH",
"103 515 OFFCURVE",
"45 440 OFFCURVE",
"45 310 CURVE SMOOTH",
"45 215 LINE",
"121 215 LINE",
"121 300 LINE SMOOTH",
"121 390 OFFCURVE",
"153 460 OFFCURVE",
"223 460 CURVE SMOOTH",
"293 460 OFFCURVE",
"320 390 OFFCURVE",
"320 300 CURVE SMOOTH",
"320 258 LINE",
"341 258 LINE"
);
},
{
closed = 1;
nodes = (
"320 191 LINE SMOOTH",
"320 101 OFFCURVE",
"288 45 OFFCURVE",
"218 45 CURVE SMOOTH",
"148 45 OFFCURVE",
"121 101 OFFCURVE",
"121 191 CURVE SMOOTH",
"121 233 LINE",
"45 235 LINE",
"45 192 LINE SMOOTH",
"45 62 OFFCURVE",
"98 -10 OFFCURVE",
"218 -10 CURVE SMOOTH",
"338 -10 OFFCURVE",
"396 62 OFFCURVE",
"396 192 CURVE SMOOTH",
"396 309 LINE",
"320 309 LINE"
);
}
);
};
layerId = m01;
paths = (
{
closed = 1;
nodes = (
"121 576 LINE",
"258 647 LINE",
"295 602 OFFCURVE",
"317 539 OFFCURVE",
"320 455 CURVE",
"291 496 OFFCURVE",
"247 515 OFFCURVE",
"193 515 CURVE SMOOTH",
"103 515 OFFCURVE",
"45 440 OFFCURVE",
"45 310 CURVE SMOOTH",
"45 192 LINE SMOOTH",
"45 62 OFFCURVE",
"98 -10 OFFCURVE",
"218 -10 CURVE SMOOTH",
"338 -10 OFFCURVE",
"396 62 OFFCURVE",
"396 192 CURVE SMOOTH",
"396 309 LINE SMOOTH",
"396 481 OFFCURVE",
"382 601 OFFCURVE",
"316 677 CURVE",
"412 726 LINE",
"412 792 LINE",
"268 718 LINE",
"231 742 OFFCURVE",
"183 758 OFFCURVE",
"122 767 CURVE",
"97 727 LINE",
"140 722 OFFCURVE",
"178 710 OFFCURVE",
"211 688 CURVE",
"121 642 LINE"
);
},
{
closed = 1;
nodes = (
"121 300 LINE SMOOTH",
"121 390 OFFCURVE",
"153 460 OFFCURVE",
"223 460 CURVE SMOOTH",
"293 460 OFFCURVE",
"320 390 OFFCURVE",
"320 300 CURVE SMOOTH",
"320 191 LINE SMOOTH",
"320 101 OFFCURVE",
"288 45 OFFCURVE",
"218 45 CURVE SMOOTH",
"148 45 OFFCURVE",
"121 101 OFFCURVE",
"121 191 CURVE SMOOTH"
);
}
);
width = 457;
}
);
leftKerningGroup = o;
leftMetricsKey = o;
rightMetricsKey = o;
unicode = 00F0;
},
{
color = 10;
glyphname = dcroat;
lastChange = "2025-02-17 08:46:05 +0000";
layers = (
{
components = (
{
name = d;
}
);
layerId = m01;
paths = (
{
closed = 1;
nodes = (
"171 586 LINE",
"461 586 LINE",
"461 642 LINE",
"171 642 LINE"
);
}
);
width = 461;
}
);
leftKerningGroup = o;
leftMetricsKey = d;
unicode = 0111;
},
{
color = 10;
glyphname = e;
lastChange = "2025-02-17 08:45:43 +0000";
layers = (
{
anchors = (
{
name = bottom;
position = "{223, 0}";
},
{
name = ogonek;
position = "{292, 0}";
},
{
name = top;
position = "{223, 505}";
}
);
layerId = m01;
paths = (
{
closed = 1;
nodes = (
"406 310 LINE SMOOTH",
"406 440 OFFCURVE",
"343 515 OFFCURVE",
"223 515 CURVE SMOOTH",
"103 515 OFFCURVE",
"45 440 OFFCURVE",
"45 310 CURVE SMOOTH",
"45 192 LINE SMOOTH",
"45 62 OFFCURVE",
"103 -10 OFFCURVE",
"223 -10 CURVE SMOOTH",
"331 -10 OFFCURVE",
"393 49 OFFCURVE",
"404 155 CURVE",
"328 155 LINE",
"319 86 OFFCURVE",
"283 45 OFFCURVE",
"223 45 CURVE SMOOTH",
"153 45 OFFCURVE",
"121 101 OFFCURVE",
"121 191 CURVE SMOOTH",
"121 310 LINE SMOOTH",
"121 400 OFFCURVE",
"153 460 OFFCURVE",
"223 460 CURVE SMOOTH",
"293 460 OFFCURVE",
"330 400 OFFCURVE",
"330 310 CURVE SMOOTH",
"330 229 LINE",
"406 229 LINE"
);
},
{
closed = 1;
nodes = (
"100 229 LINE",
"406 229 LINE",
"406 284 LINE",
"100 284 LINE"
);
}
);
vertWidth = 1200;
width = 451;
}
);
leftKerningGroup = o;
leftMetricsKey = o;
note = e;
rightKerningGroup = o;
rightMetricsKey = o;
unicode = 0065;
},
{
color = 10;
glyphname = f;
lastChange = "2025-02-17 08:45:43 +0000";
layers = (
{
anchors = (
{
name = bottom;
position = "{159, 0}";
},
{
name = top;
position = "{159, 505}";
}
);
layerId = m01;
paths = (
{
closed = 1;
nodes = (
"187 0 LINE",
"187 450 LINE",
"283 450 LINE",
"283 505 LINE",
"187 505 LINE",
"187 594 LINE SMOOTH",
"187 661 OFFCURVE",
"233 668 OFFCURVE",
"289 668 CURVE",
"289 727 LINE",
"252 727 LINE SMOOTH",
"164 727 OFFCURVE",
"111 705 OFFCURVE",
"111 594 CURVE SMOOTH",
"111 505 LINE",
"30 505 LINE",
"30 450 LINE",
"111 450 LINE",
"111 0 LINE"
);
}
);
vertWidth = 1200;
width = 319;
}
);
note = f;
rightKerningGroup = f;
unicode = 0066;
},
{
color = 10;
glyphname = g;
lastChange = "2025-02-17 08:45:43 +0000";
layers = (
{
anchors = (
{
name = bottom;
position = "{229, 0}";
},
{
name = top;
position = "{229, 505}";
}
);
components = (
{
name = _part.bowl;
transform = "{-1, 0, 0, 1, 433, 0}";
}
);
layerId = m01;
paths = (
{
closed = 1;
nodes = (
"63 -157 OFFCURVE",
"114 -200 OFFCURVE",
"230 -200 CURVE SMOOTH",
"364 -200 OFFCURVE",
"396 -145 OFFCURVE",
"396 -10 CURVE",
"320 3 LINE",
"320 -46 LINE SMOOTH",
"320 -118 OFFCURVE",
"287 -145 OFFCURVE",
"228 -145 CURVE SMOOTH",
"177 -145 OFFCURVE",
"147 -126 OFFCURVE",
"139 -70 CURVE",
"63 -70 LINE"
);
},
{
closed = 1;
nodes = (
"320 -10 LINE",
"396 -10 LINE",
"396 505 LINE",
"320 505 LINE"
);
}
);
vertWidth = 1200;
width = 461;
}
);
leftKerningGroup = o;
leftMetricsKey = o;
note = g;
rightMetricsKey = d;
unicode = 0067;
},
{
color = 10;
glyphname = h;
lastChange = "2025-02-17 08:45:43 +0000";
layers = (
{
anchors = (
{
name = bottom;
position = "{237, 0}";
},
{
name = center;
position = "{237, 252.5}";
},
{
name = top;
position = "{237, 505}";
}
);
background = {
paths = (
{
closed = 1;
nodes = (
"141 0 LINE",
"141 312 LINE SMOOTH",
"141 419 OFFCURVE",
"165 456 OFFCURVE",
"234 456 CURVE SMOOTH",
"294 456 OFFCURVE",
"310 426 OFFCURVE",
"310 312 CURVE SMOOTH",
"310 0 LINE",
"386 0 LINE",
"386 310 LINE SMOOTH",
"386 460 OFFCURVE",
"354 511 OFFCURVE",
"258 511 CURVE SMOOTH",
"210 511 OFFCURVE",
"173 497 OFFCURVE",
"141 468 CURVE",
"141 727 LINE",
"65 727 LINE",
"65 0 LINE"
);
}
);
};
components = (
{
name = _part.shoulder;
transform = "{1, 0, 0, 1, 28, 0}";
}
);
layerId = m01;
paths = (
{
closed = 1;
nodes = (
"65 0 LINE",
"141 0 LINE",
"141 727 LINE",
"65 727 LINE"
);
}
);
vertWidth = 1200;
width = 471;
}
);
leftMetricsKey = n;
note = h;
rightKerningGroup = n;
rightMetricsKey = n;
unicode = 0068;
},
{
color = 10;
glyphname = hbar;
lastChange = "2025-02-17 08:46:12 +0000";
layers = (
{
components = (
{
name = h;
}
);
layerId = m01;
paths = (
{
closed = 1;
nodes = (
"0 586 LINE",
"292 586 LINE",
"292 642 LINE",
"0 642 LINE"
);
}
);
width = 471;
}
);
rightKerningGroup = n;
unicode = 0127;
},
{
color = 10;
glyphname = i;
lastChange = "2025-02-17 08:45:43 +0000";
layers = (
{
anchors = (
{
name = bottom;
position = "{108, 0}";
}
);
layerId = m01;
paths = (
{
closed = 1;
nodes = (
"146 0 LINE",
"146 505 LINE",
"70 505 LINE",
"70 0 LINE"
);
},
{
closed = 1;
nodes = (
"151 645 LINE",
"151 727 LINE",
"65 727 LINE",
"65 645 LINE"
);
}
);
vertWidth = 1200;
width = 216;
}
);
leftMetricsKey = n;
note = i;
rightMetricsKey = d;
unicode = 0069;
},
{
glyphname = idotless;
lastChange = "2025-02-15 08:54:04 +0000";
layers = (
{
anchors = (
{
name = bottom;
position = "{108, 0}";
},
{
name = ogonek;
position = "{146, 0}";
},
{
name = top;
position = "{108, 505}";
}
);
layerId = m01;
paths = (
{
closed = 1;
nodes = (
"146 0 LINE",
"146 505 LINE",
"70 505 LINE",
"70 0 LINE"
);
}
);
width = 216;
}
);
leftMetricsKey = "=i+5";
rightMetricsKey = "=i+5";
unicode = 0131;
},
{
color = 10;
glyphname = j;
lastChange = "2025-02-17 08:45:43 +0000";
layers = (
{
layerId = m01;
paths = (
{
closed = 1;
nodes = (
"29 -190 LINE SMOOTH",
"117 -190 OFFCURVE",
"141 -167 OFFCURVE",
"141 -54 CURVE SMOOTH",
"141 505 LINE",
"65 505 LINE",
"65 -69 LINE SMOOTH",
"65 -124 OFFCURVE",
"56 -126 OFFCURVE",
"0 -126 CURVE",
"0 -190 LINE"
);
},
{
closed = 1;
nodes = (
"146 645 LINE",
"146 727 LINE",
"60 727 LINE",
"60 645 LINE"
);
}
);
vertWidth = 1200;
width = 211;
}
);
note = j;
rightMetricsKey = d;
unicode = 006A;
},
{
color = 10;
glyphname = k;
lastChange = "2025-02-17 08:45:43 +0000";
layers = (
{
anchors = (
{
name = bottom;
position = "{239, 0}";
},
{
name = top;
position = "{216, 505}";
}
);
layerId = m01;
paths = (
{
closed = 1;
nodes = (
"141 0 LINE",
"141 284 LINE",
"327 0 LINE",
"422 0 LINE",
"231 285 LINE",
"393 505 LINE",
"301 505 LINE",
"141 298 LINE",
"141 727 LINE",
"65 727 LINE",
"65 0 LINE"
);
}
);
vertWidth = 1200;
width = 432;
}
);
leftMetricsKey = n;
note = k;
rightKerningGroup = x;
unicode = 006B;
},
{
color = 10;
glyphname = l;
lastChange = "2025-02-17 08:45:43 +0000";
layers = (
{
anchors = (
{
name = bottom;
position = "{103, 0}";
},
{
name = center;
position = "{103, 253}";
},
{
name = top;
position = "{103, 727}";
},
{
name = topright;
position = "{192, 505}";
}
);
layerId = m01;
paths = (
{
closed = 1;
nodes = (
"141 0 LINE",
"141 727 LINE",
"65 727 LINE",
"65 0 LINE"
);
}
);
vertWidth = 1200;
width = 206;
}
);
leftMetricsKey = n;
note = l;
rightMetricsKey = d;
unicode = 006C;
},
{
color = 10;
glyphname = lslash;
lastChange = "2025-02-17 08:46:28 +0000";
layers = (
{
components = (
{
name = l;
}
);
layerId = m01;
paths = (
{
closed = 1;
nodes = (
"0 317 LINE",
"0 251 LINE",
"206 380 LINE",
"206 446 LINE"
);
}
);
width = 206;
}
);
unicode = 0142;
},
{
color = 10;
glyphname = m;
lastChange = "2025-02-17 08:45:43 +0000";
layers = (
{
background = {
components = (
{
name = _part.shoulder;
transform = "{1, 0, 0, 1, 28, 0}";
}
);
paths = (
{
closed = 1;
nodes = (
"388 262 LINE",
"411 262 LINE",
"411 300 LINE SMOOTH",
"411 390 OFFCURVE",
"438 460 OFFCURVE",
"508 460 CURVE SMOOTH",
"598 460 OFFCURVE",
"605 390 OFFCURVE",
"605 300 CURVE SMOOTH",
"605 0 LINE",
"681 0 LINE",
"681 310 LINE SMOOTH",
"681 460 OFFCURVE",
"638 515 OFFCURVE",
"543 515 CURVE SMOOTH",
"483 515 OFFCURVE",
"423 495 OFFCURVE",
"388 419 CURVE",
"368 402 LINE"
);
}
);
};
components = (
{
name = _part.shoulder;
transform = "{1, 0, 0, 1, 28, 0}";
}
);
layerId = m01;
paths = (
{
closed = 1;
nodes = (
"65 0 LINE",
"141 0 LINE",
"141 505 LINE",
"65 505 LINE"
);
},
{
closed = 1;
nodes = (
"388 262 LINE",
"411 262 LINE",
"411 300 LINE SMOOTH",
"411 390 OFFCURVE",
"438 460 OFFCURVE",
"508 460 CURVE SMOOTH",
"598 460 OFFCURVE",
"605 390 OFFCURVE",
"605 300 CURVE SMOOTH",
"605 0 LINE",
"681 0 LINE",
"681 310 LINE SMOOTH",
"681 460 OFFCURVE",
"638 515 OFFCURVE",
"543 515 CURVE SMOOTH",
"483 515 OFFCURVE",
"423 495 OFFCURVE",
"388 419 CURVE",
"368 402 LINE"
);
}
);
vertWidth = 1200;
width = 741;
}
);
leftKerningGroup = r;
leftMetricsKey = n;
note = m;
rightKerningGroup = n;
rightMetricsKey = n;
unicode = 006D;
},
{
color = 10;
glyphname = n;
lastChange = "2025-02-17 08:45:43 +0000";
layers = (
{
anchors = (
{
name = bottom;
position = "{241, 0}";
},
{
name = top;
position = "{241, 505}";
}
);
components = (
{
name = _part.shoulder;
transform = "{1, 0, 0, 1, 28, 0}";
}
);
layerId = m01;
paths = (
{
closed = 1;
nodes = (
"65 0 LINE",
"141 0 LINE",
"141 505 LINE",
"65 505 LINE"
);
}
);
vertWidth = 1200;
width = 471;
}
);
leftKerningGroup = r;
note = n;
rightKerningGroup = n;
unicode = 006E;
},
{
color = 10;
glyphname = eng;
lastChange = "2025-02-17 08:46:37 +0000";
layers = (
{
components = (
{
name = n;
}
);
layerId = m01;
paths = (
{
closed = 1;
nodes = (
"299 -190 LINE SMOOTH",
"387 -190 OFFCURVE",
"411 -167 OFFCURVE",
"411 -54 CURVE SMOOTH",
"411 105 LINE",
"335 105 LINE",
"335 -69 LINE SMOOTH",
"335 -124 OFFCURVE",
"328 -126 OFFCURVE",
"272 -126 CURVE",
"272 -190 LINE"
);
}
);
width = 481;
}
);
leftKerningGroup = r;
rightKerningGroup = n;
unicode = 014B;
},
{
color = 10;
glyphname = o;
lastChange = "2025-02-17 08:45:43 +0000";
layers = (
{
anchors = (
{
name = bottom;
position = "{223, 0}";
},
{
name = center;
position = "{225, 253}";
},
{
name = ogonek;
position = "{406, 10}";
},
{
name = top;
position = "{223, 505}";
},
{
name = topright;
position = "{431, 505}";
}
);
layerId = m01;
paths = (
{
closed = 1;
nodes = (
"343 -10 OFFCURVE",
"406 62 OFFCURVE",
"406 192 CURVE SMOOTH",
"406 310 LINE SMOOTH",
"406 440 OFFCURVE",
"343 515 OFFCURVE",
"223 515 CURVE SMOOTH",
"103 515 OFFCURVE",
"45 440 OFFCURVE",
"45 310 CURVE SMOOTH",
"45 192 LINE SMOOTH",
"45 62 OFFCURVE",
"103 -10 OFFCURVE",
"223 -10 CURVE SMOOTH"
);
},
{
closed = 1;
nodes = (
"153 45 OFFCURVE",
"121 101 OFFCURVE",
"121 191 CURVE SMOOTH",
"121 310 LINE SMOOTH",
"121 400 OFFCURVE",
"153 460 OFFCURVE",
"223 460 CURVE SMOOTH",
"293 460 OFFCURVE",
"330 400 OFFCURVE",
"330 310 CURVE SMOOTH",
"330 191 LINE SMOOTH",
"330 101 OFFCURVE",
"293 45 OFFCURVE",
"223 45 CURVE SMOOTH"
);
}
);
vertWidth = 1200;
width = 451;
}
);
leftKerningGroup = o;
note = o;
rightKerningGroup = o;
unicode = 006F;
},
{
color = 10;
glyphname = oslash;
lastChange = "2025-02-17 08:46:37 +0000";
layers = (
{
components = (
{
name = o;
}
);
layerId = m01;
paths = (
{
closed = 1;
nodes = (
"104 -50 LINE",
"153 -50 LINE",
"352 555 LINE",
"303 555 LINE"
);
}
);
width = 451;
}
);
leftKerningGroup = o;
leftMetricsKey = o;
rightKerningGroup = o;
rightMetricsKey = o;
unicode = 00F8;
},
{
color = 10;
glyphname = oe;
lastChange = "2025-02-17 08:46:37 +0000";
layers = (
{
background = {
paths = (
{
closed = 1;
nodes = (
"343 -10 OFFCURVE",
"406 92 OFFCURVE",
"406 192 CURVE SMOOTH",
"406 310 LINE SMOOTH",
"406 410 OFFCURVE",
"343 515 OFFCURVE",
"223 515 CURVE SMOOTH",
"103 515 OFFCURVE",
"45 440 OFFCURVE",
"45 310 CURVE SMOOTH",
"45 192 LINE SMOOTH",
"45 62 OFFCURVE",
"103 -10 OFFCURVE",
"223 -10 CURVE SMOOTH"
);
},
{
closed = 1;
nodes = (
"153 45 OFFCURVE",
"121 101 OFFCURVE",
"121 191 CURVE SMOOTH",
"121 310 LINE SMOOTH",
"121 400 OFFCURVE",
"153 460 OFFCURVE",
"223 460 CURVE SMOOTH",
"293 460 OFFCURVE",
"330 400 OFFCURVE",
"330 310 CURVE SMOOTH",
"330 191 LINE SMOOTH",
"330 101 OFFCURVE",
"293 45 OFFCURVE",
"223 45 CURVE SMOOTH"
);
},
{
closed = 1;
nodes = (
"691 310 LINE SMOOTH",
"691 440 OFFCURVE",
"628 515 OFFCURVE",
"508 515 CURVE SMOOTH",
"388 515 OFFCURVE",
"330 410 OFFCURVE",
"330 310 CURVE SMOOTH",
"330 192 LINE SMOOTH",
"330 92 OFFCURVE",
"388 -10 OFFCURVE",
"508 -10 CURVE SMOOTH",
"616 -10 OFFCURVE",
"678 49 OFFCURVE",
"689 155 CURVE",
"613 155 LINE",
"604 86 OFFCURVE",
"568 45 OFFCURVE",
"508 45 CURVE SMOOTH",
"438 45 OFFCURVE",
"406 101 OFFCURVE",
"406 191 CURVE SMOOTH",
"406 310 LINE SMOOTH",
"406 400 OFFCURVE",
"438 460 OFFCURVE",
"508 460 CURVE SMOOTH",
"578 460 OFFCURVE",
"615 400 OFFCURVE",
"615 310 CURVE SMOOTH",
"615 229 LINE",
"691 229 LINE"
);
},
{
closed = 1;
nodes = (
"385 229 LINE",
"691 229 LINE",
"691 284 LINE",
"385 284 LINE"
);
}
);
};
layerId = m01;
paths = (
{
closed = 1;
nodes = (
"288 -10 OFFCURVE",
"336 20 OFFCURVE",
"367 63 CURVE",
"396 20 OFFCURVE",
"443 -10 OFFCURVE",
"508 -10 CURVE SMOOTH",
"616 -10 OFFCURVE",
"678 49 OFFCURVE",
"689 155 CURVE",
"613 155 LINE",
"604 86 OFFCURVE",
"568 45 OFFCURVE",
"508 45 CURVE SMOOTH",
"438 45 OFFCURVE",
"406 101 OFFCURVE",
"406 191 CURVE SMOOTH",
"406 229 LINE",
"691 229 LINE",
"691 310 LINE SMOOTH",
"691 440 OFFCURVE",
"628 515 OFFCURVE",
"508 515 CURVE SMOOTH",
"443 515 OFFCURVE",
"396 484 OFFCURVE",
"367 440 CURVE",
"336 484 OFFCURVE",
"288 515 OFFCURVE",
"223 515 CURVE SMOOTH",
"103 515 OFFCURVE",
"45 440 OFFCURVE",
"45 310 CURVE SMOOTH",
"45 192 LINE SMOOTH",
"45 62 OFFCURVE",
"103 -10 OFFCURVE",
"223 -10 CURVE SMOOTH"
);
},
{
closed = 1;
nodes = (
"121 310 LINE SMOOTH",
"121 400 OFFCURVE",
"153 460 OFFCURVE",
"223 460 CURVE SMOOTH",
"293 460 OFFCURVE",
"330 400 OFFCURVE",
"330 310 CURVE SMOOTH",
"330 191 LINE SMOOTH",
"330 101 OFFCURVE",
"293 45 OFFCURVE",
"223 45 CURVE SMOOTH",
"153 45 OFFCURVE",
"121 101 OFFCURVE",
"121 191 CURVE SMOOTH"
);
},
{
closed = 1;
nodes = (
"406 310 LINE SMOOTH",
"406 400 OFFCURVE",
"438 460 OFFCURVE",
"508 460 CURVE SMOOTH",
"578 460 OFFCURVE",
"615 400 OFFCURVE",
"615 310 CURVE SMOOTH",
"615 284 LINE",
"406 284 LINE"
);
}
);
width = 736;
}
);
leftKerningGroup = o;
leftMetricsKey = o;
rightKerningGroup = o;
rightMetricsKey = e;
unicode = 0153;
},
{
color = 10;
glyphname = p;
lastChange = "2025-02-17 08:45:43 +0000";
layers = (
{
anchors = (
{
name = bottom;
position = "{231, 0}";
},
{
name = top;
position = "{231, 505}";
}
);
components = (
{
name = _part.bowl;
transform = "{1, 0, 0, 1, 28, 0}";
}
);
layerId = m01;
paths = (
{
closed = 1;
nodes = (
"65 -190 LINE",
"141 -190 LINE",
"141 505 LINE",
"65 505 LINE"
);
}
);
vertWidth = 1200;
width = 461;
}
);
leftKerningGroup = r;
leftMetricsKey = n;
note = p;
rightKerningGroup = o;
rightMetricsKey = o;
unicode = 0070;
},
{
color = 10;
glyphname = thorn;
lastChange = "2025-02-17 08:46:39 +0000";
layers = (
{
components = (
{
name = p;
}
);
layerId = m01;
paths = (
{
closed = 1;
nodes = (
"65 497 LINE",
"141 497 LINE",
"141 727 LINE",
"65 727 LINE"
);
}
);
width = 461;
}
);
leftMetricsKey = p;
rightKerningGroup = o;
rightMetricsKey = p;
unicode = 00FE;
},
{
color = 10;
glyphname = q;
lastChange = "2025-02-17 08:45:43 +0000";
layers = (
{
anchors = (
{
name = bottom;
position = "{234, 0}";
},
{
name = top;
position = "{234, 505}";
}
);
components = (
{
name = _part.bowl;
transform = "{-1, 0, 0, 1, 433, 0}";
}
);
layerId = m01;
paths = (
{
closed = 1;
nodes = (
"320 -190 LINE",
"396 -190 LINE",
"396 505 LINE",
"320 505 LINE"
);
}
);
vertWidth = 1200;
width = 461;
}
);
leftKerningGroup = o;
leftMetricsKey = o;
note = q;
rightMetricsKey = d;
unicode = 0071;
},
{
color = 10;
glyphname = r;
lastChange = "2025-02-17 08:45:43 +0000";
layers = (
{
anchors = (
{
name = bottom;
position = "{103, 0}";
},
{
name = top;
position = "{181, 505}";
}
);
layerId = m01;
paths = (
{
closed = 1;
nodes = (
"141 0 LINE",
"141 309 LINE SMOOTH",
"141 407 OFFCURVE",
"201 448 OFFCURVE",
"296 434 CURVE",
"296 512 LINE",
"271 512 LINE SMOOTH",
"199 512 OFFCURVE",
"163 488 OFFCURVE",
"141 429 CURVE",
"141 505 LINE",
"65 505 LINE",
"65 0 LINE"
);
}
);
vertWidth = 1200;
width = 316;
}
);
leftKerningGroup = r;
leftMetricsKey = n;
note = r;
rightKerningGroup = r;
unicode = 0072;
},
{
color = 10;
glyphname = s;
lastChange = "2025-02-17 08:45:43 +0000";
layers = (
{
anchors = (
{
name = bottom;
position = "{216, 0}";
},
{
name = top;
position = "{216, 505}";
}
);
layerId = m01;
paths = (
{
closed = 1;
nodes = (
"309 -10 OFFCURVE",
"381 42 OFFCURVE",
"381 126 CURVE SMOOTH",
"381 314 OFFCURVE",
"133 274 OFFCURVE",
"133 397 CURVE SMOOTH",
"133 436 OFFCURVE",
"177 460 OFFCURVE",
"216 460 CURVE SMOOTH",
"276 460 OFFCURVE",
"308 430 OFFCURVE",
"305 356 CURVE",
"378 356 LINE",
"379 368 OFFCURVE",
"380 378 OFFCURVE",
"380 387 CURVE SMOOTH",
"380 469 OFFCURVE",
"315 515 OFFCURVE",
"216 515 CURVE SMOOTH",
"125 515 OFFCURVE",
"57 465 OFFCURVE",
"57 384 CURVE SMOOTH",
"57 218 OFFCURVE",
"305 254 OFFCURVE",
"305 113 CURVE SMOOTH",
"305 68 OFFCURVE",
"261 45 OFFCURVE",
"217 45 CURVE SMOOTH",
"155 45 OFFCURVE",
"122 76 OFFCURVE",
"124 156 CURVE",
"45 156 LINE",
"45 135 LINE SMOOTH",
"45 40 OFFCURVE",
"112 -10 OFFCURVE",
"216 -10 CURVE SMOOTH"
);
}
);
vertWidth = 1200;
width = 426;
}
);
leftKerningGroup = s;
leftMetricsKey = o;
note = s;
rightKerningGroup = s;
rightMetricsKey = o;
unicode = 0073;
},
{
color = 10;
glyphname = germandbls;
lastChange = "2025-02-17 08:46:46 +0000";
layers = (
{
background = {
paths = (
{
closed = 1;
nodes = (
"423 -10 OFFCURVE",
"495 42 OFFCURVE",
"495 126 CURVE SMOOTH",
"495 314 OFFCURVE",
"247 274 OFFCURVE",
"247 397 CURVE SMOOTH",
"247 436 OFFCURVE",
"291 460 OFFCURVE",
"330 460 CURVE SMOOTH",
"390 460 OFFCURVE",
"422 430 OFFCURVE",
"419 356 CURVE",
"492 356 LINE",
"493 368 OFFCURVE",
"494 378 OFFCURVE",
"494 387 CURVE SMOOTH",
"494 469 OFFCURVE",
"429 515 OFFCURVE",
"330 515 CURVE SMOOTH",
"239 515 OFFCURVE",
"171 465 OFFCURVE",
"171 384 CURVE SMOOTH",
"171 218 OFFCURVE",
"419 254 OFFCURVE",
"419 113 CURVE SMOOTH",
"419 68 OFFCURVE",
"375 45 OFFCURVE",
"331 45 CURVE SMOOTH",
"269 45 OFFCURVE",
"236 76 OFFCURVE",
"238 156 CURVE",
"159 156 LINE",
"159 135 LINE SMOOTH",
"159 40 OFFCURVE",
"226 -10 OFFCURVE",
"330 -10 CURVE SMOOTH"
);
}
);
};
layerId = m01;
paths = (
{
closed = 1;
nodes = (
"410 -10 OFFCURVE",
"480 47 OFFCURVE",
"480 139 CURVE SMOOTH",
"480 303 OFFCURVE",
"281 298 OFFCURVE",
"281 402 CURVE SMOOTH",
"281 468 OFFCURVE",
"409 474 OFFCURVE",
"409 598 CURVE SMOOTH",
"409 688 OFFCURVE",
"336 734 OFFCURVE",
"234 734 CURVE SMOOTH",
"123 734 OFFCURVE",
"65 686 OFFCURVE",
"65 543 CURVE SMOOTH",
"65 0 LINE",
"141 0 LINE",
"141 546 LINE SMOOTH",
"141 647 OFFCURVE",
"180 681 OFFCURVE",
"237 681 CURVE SMOOTH",
"284 681 OFFCURVE",
"333 649 OFFCURVE",
"333 597 CURVE SMOOTH",
"333 518 OFFCURVE",
"205 488 OFFCURVE",
"205 400 CURVE SMOOTH",
"205 252 OFFCURVE",
"404 251 OFFCURVE",
"404 127 CURVE SMOOTH",
"404 77 OFFCURVE",
"371 45 OFFCURVE",
"328 45 CURVE SMOOTH",
"288 45 OFFCURVE",
"242 66 OFFCURVE",
"240 127 CURVE",
"174 127 LINE",
"173 122 OFFCURVE",
"173 116 OFFCURVE",
"173 112 CURVE SMOOTH",
"173 27 OFFCURVE",
"241 -10 OFFCURVE",
"326 -10 CURVE SMOOTH"
);
}
);
width = 525;
}
);
leftMetricsKey = n;
rightKerningGroup = s;
rightMetricsKey = s;
unicode = 00DF;
},
{
color = 10;
glyphname = t;
lastChange = "2025-02-17 08:45:43 +0000";
layers = (
{
anchors = (
{
name = bottom;
position = "{193, 0}";
},
{
name = center;
position = "{173, 253}";
},
{
name = top;
position = "{173, 505}";
},
{
name = topright;
position = "{226, 505}";
}
);
layerId = m01;
paths = (
{
closed = 1;
nodes = (
"111 505 LINE",
"30 505 LINE",
"30 450 LINE",
"111 450 LINE",
"111 133 LINE SMOOTH",
"111 22 OFFCURVE",
"164 0 OFFCURVE",
"252 0 CURVE SMOOTH",
"289 0 LINE",
"289 59 LINE",
"233 59 OFFCURVE",
"187 66 OFFCURVE",
"187 133 CURVE SMOOTH",
"187 450 LINE",
"283 450 LINE",
"283 505 LINE",
"187 505 LINE",
"187 638 LINE",
"111 601 LINE"
);
},
{
closed = 1;
nodes = (
"111 601 LINE",
"187 638 LINE"
);
}
);
vertWidth = 1200;
width = 319;
}
);
leftMetricsKey = f;
note = t;
rightKerningGroup = t;
rightMetricsKey = f;
unicode = 0074;
},
{
color = 10;
glyphname = tbar;
lastChange = "2025-02-17 08:46:46 +0000";
layers = (
{
components = (
{
name = t;
}
);
layerId = m01;
paths = (
{
closed = 1;
nodes = (
"35 266 LINE",
"288 266 LINE",
"288 322 LINE",
"35 322 LINE"
);
}
);
width = 329;
}
);
rightKerningGroup = t;
unicode = 0167;
},
{
color = 10;
glyphname = v;
lastChange = "2025-02-17 08:45:43 +0000";
layers = (
{
anchors = (
{
name = bottom;
position = "{223, 0}";
},
{
name = top;
position = "{223, 505}";
}
);
background = {
paths = (
{
closed = 1;
nodes = (
"272 0 LINE",
"367 439 LINE",
"451 0 LINE",
"560 0 LINE",
"676 505 LINE",
"606 505 LINE",
"502 63 LINE",
"419 505 LINE",
"317 505 LINE",
"224 63 LINE",
"120 505 LINE",
"45 505 LINE",
"160 0 LINE"
);
}
);
};
layerId = m01;
paths = (
{
closed = 1;
nodes = (
"275 0 LINE",
"418 505 LINE",
"346 505 LINE",
"224 62 LINE",
"101 505 LINE",
"25 505 LINE",
"167 0 LINE"
);
}
);
vertWidth = 1200;
width = 443;
}
);
leftKerningGroup = v;
note = v;
rightKerningGroup = v;
unicode = 0076;
},
{
color = 10;
glyphname = w;
lastChange = "2025-02-17 08:45:43 +0000";
layers = (
{
anchors = (
{
name = bottom;
position = "{341, 0}";
},
{
name = top;
position = "{348, 505}";
}
);
layerId = m01;
paths = (
{
closed = 1;
nodes = (
"252 0 LINE",
"347 439 LINE",
"431 0 LINE",
"540 0 LINE",
"656 505 LINE",
"586 505 LINE",
"482 63 LINE",
"399 505 LINE",
"297 505 LINE",
"204 63 LINE",
"100 505 LINE",
"25 505 LINE",
"140 0 LINE"
);
}
);
vertWidth = 1200;
width = 681;
}
);
leftKerningGroup = v;
leftMetricsKey = v;
note = w;
rightKerningGroup = v;
rightMetricsKey = v;
unicode = 0077;
},
{
color = 10;
glyphname = x;
lastChange = "2025-02-17 08:45:43 +0000";
layers = (
{
anchors = (
{
name = bottom;
position = "{234, 0}";
},
{
name = top;
position = "{234, 505}";
}
);
layerId = m01;
paths = (
{
closed = 1;
nodes = (
"128 0 LINE",
"226 192 LINE",
"348 0 LINE",
"442 0 LINE",
"271 264 LINE",
"406 505 LINE",
"323 505 LINE",
"234 332 LINE",
"121 505 LINE",
"25 505 LINE",
"189 261 LINE",
"42 0 LINE"
);
}
);
vertWidth = 1200;
width = 467;
}
);
leftKerningGroup = x;
leftMetricsKey = v;
note = x;
rightKerningGroup = x;
rightMetricsKey = v;
unicode = 0078;
},
{
color = 10;
glyphname = y;
lastChange = "2025-02-17 08:45:43 +0000";
layers = (
{
anchors = (
{
name = bottom;
position = "{229, 0}";
},
{
name = top;
position = "{228, 505}";
}
);
layerId = m01;
paths = (
{
closed = 1;
nodes = (
"204 -190 LINE",
"430 505 LINE",
"354 505 LINE",
"229 99 LINE",
"101 505 LINE",
"25 505 LINE",
"190 0 LINE",
"126 -190 LINE"
);
}
);
vertWidth = 1200;
width = 455;
}
);
leftKerningGroup = v;
leftMetricsKey = v;
note = y;
rightKerningGroup = v;
rightMetricsKey = v;
unicode = 0079;
},
{
color = 10;
glyphname = z;
lastChange = "2025-02-17 08:45:43 +0000";
layers = (
{
anchors = (
{
name = bottom;
position = "{200, 0}";
},
{
name = center;
position = "{200, 253}";
},
{
name = top;
position = "{208, 505}";
}
);
layerId = m01;
paths = (
{
closed = 1;
nodes = (
"361 0 LINE",
"361 55 LINE",
"129 55 LINE",
"359 448 LINE",
"359 505 LINE",
"56 505 LINE",
"56 450 LINE",
"277 450 LINE",
"45 57 LINE",
"45 0 LINE"
);
}
);
vertWidth = 1200;
width = 406;
}
);
leftKerningGroup = z;
leftMetricsKey = o;
note = z;
rightKerningGroup = z;
rightMetricsKey = o;
unicode = 007A;
},
{
glyphname = ordfeminine;
lastChange = "2025-02-15 08:54:04 +0000";
layers = (
{
layerId = m01;
paths = (
{
closed = 1;
nodes = (
"191 382 OFFCURVE",
"211 407 OFFCURVE",
"228 429 CURVE",
"229 429 OFFCURVE",
"230 429 OFFCURVE",
"230 429 CURVE",
"223 433 LINE",
"223 389 LINE",
"287 389 LINE",
"287 608 LINE SMOOTH",
"287 705 OFFCURVE",
"259 737 OFFCURVE",
"171 737 CURVE SMOOTH",
"95 737 OFFCURVE",
"52 698 OFFCURVE",
"52 627 CURVE",
"116 627 LINE",
"117 675 OFFCURVE",
"132 693 OFFCURVE",
"169 693 CURVE SMOOTH",
"206 693 OFFCURVE",
"223 674 OFFCURVE",
"223 631 CURVE SMOOTH",
"223 604 LINE",
"183 604 LINE SMOOTH",
"99 604 OFFCURVE",
"45 558 OFFCURVE",
"45 486 CURVE SMOOTH",
"45 422 OFFCURVE",
"79 382 OFFCURVE",
"135 382 CURVE SMOOTH"
);
},
{
closed = 1;
nodes = (
"126 431 OFFCURVE",
"109 453 OFFCURVE",
"109 487 CURVE SMOOTH",
"109 532 OFFCURVE",
"137 559 OFFCURVE",
"185 559 CURVE SMOOTH",
"223 559 LINE",
"222 468 OFFCURVE",
"202 431 OFFCURVE",
"153 431 CURVE SMOOTH"
);
},
{
closed = 1;
nodes = (
"45 262 LINE",
"287 262 LINE",
"287 317 LINE",
"45 317 LINE"
);
}
);
width = 332;
}
);
note = a;
unicode = 00AA;
},
{
glyphname = ordmasculine;
lastChange = "2025-02-15 08:54:04 +0000";
layers = (
{
layerId = m01;
paths = (
{
closed = 1;
nodes = (
"252 382 OFFCURVE",
"297 431 OFFCURVE",
"297 520 CURVE SMOOTH",
"297 598 LINE SMOOTH",
"297 687 OFFCURVE",
"251 737 OFFCURVE",
"170 737 CURVE SMOOTH",
"89 737 OFFCURVE",
"45 688 OFFCURVE",
"45 598 CURVE SMOOTH",
"45 520 LINE SMOOTH",
"45 430 OFFCURVE",
"88 382 OFFCURVE",
"170 382 CURVE SMOOTH"
);
},
{
closed = 1;
nodes = (
"130 427 OFFCURVE",
"109 459 OFFCURVE",
"109 519 CURVE SMOOTH",
"109 598 LINE SMOOTH",
"109 659 OFFCURVE",
"131 693 OFFCURVE",
"170 693 CURVE SMOOTH",
"209 693 OFFCURVE",
"233 658 OFFCURVE",
"233 598 CURVE SMOOTH",
"233 519 LINE SMOOTH",
"233 460 OFFCURVE",
"210 427 OFFCURVE",
"170 427 CURVE SMOOTH"
);
},
{
closed = 1;
nodes = (
"45 262 LINE",
"297 262 LINE",
"297 317 LINE",
"45 317 LINE"
);
}
);
width = 342;
}
);
note = o;
unicode = 00BA;
},
{
glyphname = zero;
lastChange = "2025-02-15 08:54:04 +0000";
layers = (
{
layerId = m01;
paths = (
{
closed = 1;
nodes = (
"383 -10 OFFCURVE",
"428 114 OFFCURVE",
"428 256 CURVE SMOOTH",
"428 470 LINE SMOOTH",
"428 619 OFFCURVE",
"383 737 OFFCURVE",
"237 737 CURVE SMOOTH",
"91 737 OFFCURVE",
"54 617 OFFCURVE",
"54 470 CURVE SMOOTH",
"54 256 LINE SMOOTH",
"54 115 OFFCURVE",
"91 -10 OFFCURVE",
"237 -10 CURVE SMOOTH"
);
},
{
closed = 1;
nodes = (
"147 57 OFFCURVE",
"130 150 OFFCURVE",
"130 254 CURVE SMOOTH",
"130 472 LINE SMOOTH",
"130 575 OFFCURVE",
"147 670 OFFCURVE",
"237 670 CURVE SMOOTH",
"327 670 OFFCURVE",
"352 580 OFFCURVE",
"352 472 CURVE SMOOTH",
"352 254 LINE SMOOTH",
"352 150 OFFCURVE",
"326 57 OFFCURVE",
"237 57 CURVE SMOOTH"
);
}
);
vertWidth = 1200;
width = 483;
}
);
note = zero;
unicode = 0030;
},
{
glyphname = one;
lastChange = "2025-02-15 08:54:04 +0000";
layers = (
{
layerId = m01;
paths = (
{
closed = 1;
nodes = (
"314 0 LINE",
"314 727 LINE",
"233 727 LINE",
"79 645 LINE",
"79 559 LINE",
"238 641 LINE",
"238 0 LINE"
);
}
);
vertWidth = 1200;
width = 483;
}
);
note = one;
unicode = 0031;
},
{
glyphname = two;
lastChange = "2025-02-15 08:54:04 +0000";
layers = (
{
layerId = m01;
paths = (
{
closed = 1;
nodes = (
"435 0 LINE",
"435 70 LINE",
"145 70 LINE",
"405 388 OFFCURVE",
"421 454 OFFCURVE",
"421 556 CURVE SMOOTH",
"421 679 OFFCURVE",
"353 737 OFFCURVE",
"247 737 CURVE SMOOTH",
"126 737 OFFCURVE",
"61 679 OFFCURVE",
"66 540 CURVE",
"144 540 LINE",
"144 632 OFFCURVE",
"170 670 OFFCURVE",
"240 670 CURVE SMOOTH",
"311 670 OFFCURVE",
"345 637 OFFCURVE",
"345 570 CURVE SMOOTH",
"345 456 OFFCURVE",
"332 428 OFFCURVE",
"61 75 CURVE",
"61 0 LINE"
);
}
);
vertWidth = 1200;
width = 483;
}
);
note = two;
unicode = 0032;
},
{
glyphname = three;
lastChange = "2025-02-15 08:54:04 +0000";
layers = (
{
background = {
paths = (
{
closed = 1;
nodes = (
"363 -10 OFFCURVE",
"431 66 OFFCURVE",
"431 202 CURVE SMOOTH",
"431 312 OFFCURVE",
"385 367 OFFCURVE",
"281 386 CURVE",
"373 404 OFFCURVE",
"416 456 OFFCURVE",
"416 552 CURVE SMOOTH",
"416 669 OFFCURVE",
"353 737 OFFCURVE",
"233 737 CURVE SMOOTH",
"124 737 OFFCURVE",
"55 678 OFFCURVE",
"55 529 CURVE",
"131 529 LINE",
"135 632 OFFCURVE",
"162 670 OFFCURVE",
"233 670 CURVE SMOOTH",
"307 670 OFFCURVE",
"340 624 OFFCURVE",
"340 563 CURVE SMOOTH",
"340 462 OFFCURVE",
"295 417 OFFCURVE",
"191 416 CURVE",
"191 346 LINE",
"314 346 OFFCURVE",
"355 311 OFFCURVE",
"355 205 CURVE SMOOTH",
"355 105 OFFCURVE",
"315 57 OFFCURVE",
"237 57 CURVE SMOOTH",
"160 57 OFFCURVE",
"131 89 OFFCURVE",
"124 199 CURVE",
"48 199 LINE",
"50 53 OFFCURVE",
"107 -10 OFFCURVE",
"234 -10 CURVE SMOOTH"
);
},
{
closed = 1;
nodes = (
"274 370 LINE",
"297 370 LINE",
"297 398 LINE",
"274 398 LINE"
);
}
);
};
layerId = m01;
paths = (
{
closed = 1;
nodes = (
"357 -10 OFFCURVE",
"425 66 OFFCURVE",
"425 202 CURVE SMOOTH",
"425 306 OFFCURVE",
"384 361 OFFCURVE",
"291 383 CURVE",
"291 390 LINE",
"372 410 OFFCURVE",
"410 462 OFFCURVE",
"410 552 CURVE SMOOTH",
"410 669 OFFCURVE",
"347 737 OFFCURVE",
"227 737 CURVE SMOOTH",
"118 737 OFFCURVE",
"49 678 OFFCURVE",
"49 529 CURVE",
"125 529 LINE",
"129 632 OFFCURVE",
"156 670 OFFCURVE",
"227 670 CURVE SMOOTH",
"301 670 OFFCURVE",
"334 624 OFFCURVE",
"334 563 CURVE SMOOTH",
"334 462 OFFCURVE",
"289 417 OFFCURVE",
"185 416 CURVE",
"185 346 LINE",
"308 346 OFFCURVE",
"349 311 OFFCURVE",
"349 205 CURVE SMOOTH",
"349 105 OFFCURVE",
"309 57 OFFCURVE",
"231 57 CURVE SMOOTH",
"154 57 OFFCURVE",
"125 89 OFFCURVE",
"118 199 CURVE",
"42 199 LINE",
"44 53 OFFCURVE",
"101 -10 OFFCURVE",
"228 -10 CURVE SMOOTH"
);
}
);
vertWidth = 1200;
width = 483;
}
);
note = three;
unicode = 0033;
},
{
glyphname = four;
lastChange = "2025-02-15 08:54:04 +0000";
layers = (
{
background = {
paths = (
{
closed = 1;
nodes = (
"380 0 LINE",
"380 177 LINE",
"449 177 LINE",
"449 245 LINE",
"380 245 LINE",
"380 727 LINE",
"258 727 LINE",
"29 252 LINE",
"29 177 LINE",
"304 177 LINE",
"304 0 LINE"
);
},
{
closed = 1;
nodes = (
"304 670 LINE",
"304 245 LINE",
"100 245 LINE"
);
},
{
closed = 1;
nodes = (
"284 659 LINE",
"315 659 LINE",
"315 685 LINE",
"284 685 LINE"
);
},
{
closed = 1;
nodes = (
"84 230 LINE",
"104 230 LINE",
"104 267 LINE",
"84 267 LINE"
);
}
);
};
layerId = m01;
paths = (
{
closed = 1;
nodes = (
"380 0 LINE",
"380 177 LINE",
"449 177 LINE",
"449 245 LINE",
"380 245 LINE",
"380 727 LINE",
"258 727 LINE",
"29 252 LINE",
"29 177 LINE",
"304 177 LINE",
"304 0 LINE"
);
},
{
closed = 1;
nodes = (
"104 253 LINE",
"299 659 LINE",
"304 659 LINE",
"304 245 LINE",
"104 245 LINE"
);
}
);
vertWidth = 1200;
width = 483;
}
);
note = four;
unicode = 0034;
},
{
glyphname = five;
lastChange = "2025-02-15 08:54:04 +0000";
layers = (
{
background = {
paths = (
{
closed = 1;
nodes = (
"77 44 OFFCURVE",
"128 -10 OFFCURVE",
"251 -10 CURVE SMOOTH",
"371 -10 OFFCURVE",
"429 66 OFFCURVE",
"429 243 CURVE SMOOTH",
"429 404 OFFCURVE",
"384 472 OFFCURVE",
"287 472 CURVE SMOOTH",
"256 472 OFFCURVE",
"201 466 OFFCURVE",
"154 413 CURVE",
"160 657 LINE",
"402 657 LINE",
"402 727 LINE",
"86 727 LINE",
"74 305 LINE",
"150 305 LINE",
"162 374 OFFCURVE",
"198 409 OFFCURVE",
"255 409 CURVE SMOOTH",
"325 409 OFFCURVE",
"353 363 OFFCURVE",
"353 232 CURVE SMOOTH",
"353 101 OFFCURVE",
"320 57 OFFCURVE",
"249 57 CURVE SMOOTH",
"180 57 OFFCURVE",
"152 88 OFFCURVE",
"148 163 CURVE",
"71 163 LINE"
);
},
{
closed = 1;
nodes = (
"146 406 LINE",
"176 406 LINE",
"176 420 LINE",
"146 420 LINE"
);
}
);
};
layerId = m01;
paths = (
{
closed = 1;
nodes = (
"77 44 OFFCURVE",
"128 -10 OFFCURVE",
"251 -10 CURVE SMOOTH",
"371 -10 OFFCURVE",
"439 66 OFFCURVE",
"439 243 CURVE SMOOTH",
"439 404 OFFCURVE",
"374 472 OFFCURVE",
"287 472 CURVE SMOOTH",
"257 472 OFFCURVE",
"206 467 OFFCURVE",
"161 420 CURVE",
"154 420 LINE",
"160 657 LINE",
"412 657 LINE",
"412 727 LINE",
"86 727 LINE",
"74 305 LINE",
"150 305 LINE",
"162 374 OFFCURVE",
"198 409 OFFCURVE",
"255 409 CURVE SMOOTH",
"315 409 OFFCURVE",
"363 363 OFFCURVE",
"363 232 CURVE SMOOTH",
"363 101 OFFCURVE",
"320 57 OFFCURVE",
"249 57 CURVE SMOOTH",
"180 57 OFFCURVE",
"152 88 OFFCURVE",
"148 163 CURVE",
"71 163 LINE"
);
}
);
vertWidth = 1200;
width = 483;
}
);
note = five;
unicode = 0035;
},
{
glyphname = six;
lastChange = "2025-02-15 08:54:04 +0000";
layers = (
{
background = {
paths = (
{
closed = 1;
nodes = (
"178 57 OFFCURVE",
"141 119 OFFCURVE",
"141 232 CURVE SMOOTH",
"141 342 OFFCURVE",
"177 393 OFFCURVE",
"251 393 CURVE SMOOTH",
"326 393 OFFCURVE",
"364 342 OFFCURVE",
"364 232 CURVE SMOOTH",
"364 119 OFFCURVE",
"322 57 OFFCURVE",
"248 57 CURVE SMOOTH"
);
},
{
closed = 1;
nodes = (
"419 681 OFFCURVE",
"369 737 OFFCURVE",
"258 737 CURVE SMOOTH",
"83 737 OFFCURVE",
"64 588 OFFCURVE",
"64 353 CURVE SMOOTH",
"64 131 OFFCURVE",
"70 -10 OFFCURVE",
"248 -10 CURVE SMOOTH",
"373 -10 OFFCURVE",
"440 75 OFFCURVE",
"440 232 CURVE SMOOTH",
"440 377 OFFCURVE",
"377 460 OFFCURVE",
"267 460 CURVE SMOOTH",
"226 460 OFFCURVE",
"179 445 OFFCURVE",
"141 386 CURVE",
"141 451 LINE SMOOTH",
"141 610 OFFCURVE",
"171 670 OFFCURVE",
"253 670 CURVE SMOOTH",
"315 670 OFFCURVE",
"344 635 OFFCURVE",
"346 557 CURVE",
"426 557 LINE"
);
},
{
closed = 1;
nodes = (
"123 374 LINE",
"171 374 LINE",
"171 394 LINE",
"123 394 LINE"
);
}
);
};
layerId = m01;
paths = (
{
closed = 1;
nodes = (
"176 57 OFFCURVE",
"139 119 OFFCURVE",
"139 232 CURVE SMOOTH",
"139 342 OFFCURVE",
"175 393 OFFCURVE",
"249 393 CURVE SMOOTH",
"324 393 OFFCURVE",
"362 342 OFFCURVE",
"362 232 CURVE SMOOTH",
"362 119 OFFCURVE",
"320 57 OFFCURVE",
"246 57 CURVE SMOOTH"
);
},
{
closed = 1;
nodes = (
"62 131 OFFCURVE",
"68 -10 OFFCURVE",
"246 -10 CURVE SMOOTH",
"371 -10 OFFCURVE",
"438 75 OFFCURVE",
"438 232 CURVE SMOOTH",
"438 377 OFFCURVE",
"375 460 OFFCURVE",
"265 460 CURVE SMOOTH",
"226 460 OFFCURVE",
"181 446 OFFCURVE",
"144 394 CURVE",
"139 394 LINE",
"139 451 LINE SMOOTH",
"139 610 OFFCURVE",
"169 670 OFFCURVE",
"251 670 CURVE SMOOTH",
"313 670 OFFCURVE",
"342 635 OFFCURVE",
"344 557 CURVE",
"424 557 LINE",
"417 681 OFFCURVE",
"367 737 OFFCURVE",
"256 737 CURVE SMOOTH",
"81 737 OFFCURVE",
"62 588 OFFCURVE",
"62 353 CURVE SMOOTH"
);
}
);
vertWidth = 1200;
width = 483;
}
);
note = six;
unicode = 0036;
},
{
glyphname = seven;
lastChange = "2025-02-15 08:54:04 +0000";
layers = (
{
layerId = m01;
paths = (
{
closed = 1;
nodes = (
"204 0 LINE",
"440 658 LINE",
"440 727 LINE",
"42 727 LINE",
"42 653 LINE",
"364 653 LINE",
"119 0 LINE"
);
}
);
vertWidth = 1200;
width = 483;
}
);
note = seven;
unicode = 0037;
},
{
glyphname = eight;
lastChange = "2025-02-15 08:54:04 +0000";
layers = (
{
background = {
paths = (
{
closed = 1;
nodes = (
"362 -10 OFFCURVE",
"430 66 OFFCURVE",
"430 202 CURVE SMOOTH",
"430 306 OFFCURVE",
"389 361 OFFCURVE",
"296 383 CURVE",
"296 390 LINE",
"377 410 OFFCURVE",
"415 462 OFFCURVE",
"415 552 CURVE SMOOTH",
"415 669 OFFCURVE",
"352 737 OFFCURVE",
"232 737 CURVE SMOOTH",
"123 737 OFFCURVE",
"54 678 OFFCURVE",
"54 529 CURVE",
"130 529 LINE",
"134 632 OFFCURVE",
"161 670 OFFCURVE",
"232 670 CURVE SMOOTH",
"306 670 OFFCURVE",
"339 624 OFFCURVE",
"339 563 CURVE SMOOTH",
"339 462 OFFCURVE",
"294 417 OFFCURVE",
"190 416 CURVE",
"190 346 LINE",
"313 346 OFFCURVE",
"354 311 OFFCURVE",
"354 205 CURVE SMOOTH",
"354 105 OFFCURVE",
"314 57 OFFCURVE",
"236 57 CURVE SMOOTH",
"159 57 OFFCURVE",
"130 89 OFFCURVE",
"123 199 CURVE",
"47 199 LINE",
"49 53 OFFCURVE",
"106 -10 OFFCURVE",
"233 -10 CURVE SMOOTH"
);
}
);
};
layerId = m01;
paths = (
{
closed = 1;
nodes = (
"382 -10 OFFCURVE",
"426 74 OFFCURVE",
"426 196 CURVE SMOOTH",
"426 295 OFFCURVE",
"379 384 OFFCURVE",
"242 384 CURVE SMOOTH",
"106 384 OFFCURVE",
"57 293 OFFCURVE",
"57 196 CURVE SMOOTH",
"57 75 OFFCURVE",
"102 -10 OFFCURVE",
"242 -10 CURVE SMOOTH"
);
},
{
closed = 1;
nodes = (
"158 57 OFFCURVE",
"133 108 OFFCURVE",
"133 198 CURVE SMOOTH",
"133 261 OFFCURVE",
"152 342 OFFCURVE",
"242 342 CURVE SMOOTH",
"332 342 OFFCURVE",
"350 266 OFFCURVE",
"350 198 CURVE SMOOTH",
"350 108 OFFCURVE",
"326 57 OFFCURVE",
"242 57 CURVE SMOOTH"
);
},
{
closed = 1;
nodes = (
"112 737 OFFCURVE",
"63 652 OFFCURVE",
"63 551 CURVE SMOOTH",
"63 442 OFFCURVE",
"126 364 OFFCURVE",
"242 364 CURVE SMOOTH",
"359 364 OFFCURVE",
"420 442 OFFCURVE",
"420 551 CURVE SMOOTH",
"420 653 OFFCURVE",
"372 737 OFFCURVE",
"242 737 CURVE SMOOTH"
);
},
{
closed = 1;
nodes = (
"311 670 OFFCURVE",
"344 629 OFFCURVE",
"344 539 CURVE SMOOTH",
"344 481 OFFCURVE",
"312 406 OFFCURVE",
"242 406 CURVE SMOOTH",
"162 406 OFFCURVE",
"139 486 OFFCURVE",
"139 539 CURVE SMOOTH",
"139 629 OFFCURVE",
"175 670 OFFCURVE",
"242 670 CURVE SMOOTH"
);
},
{
closed = 1;
nodes = (
"166 371 LINE",
"185 371 LINE",
"185 381 LINE",
"166 381 LINE"
);
},
{
closed = 1;
nodes = (
"302 371 LINE",
"319 371 LINE",
"319 380 LINE",
"302 380 LINE"
);
}
);
vertWidth = 1200;
width = 483;
}
);
note = eight;
unicode = 0038;
},
{
glyphname = zero.dnom;
lastChange = "2025-02-15 08:54:04 +0000";
layers = (
{
layerId = m01;
paths = (
{
closed = 1;
nodes = (
"243 -7 OFFCURVE",
"289 55 OFFCURVE",
"289 173 CURVE SMOOTH",
"289 314 LINE SMOOTH",
"289 434 OFFCURVE",
"245 494 OFFCURVE",
"156 494 CURVE SMOOTH",
"69 494 OFFCURVE",
"29 436 OFFCURVE",
"29 314 CURVE SMOOTH",
"29 173 LINE SMOOTH",
"29 53 OFFCURVE",
"71 -7 OFFCURVE",
"156 -7 CURVE SMOOTH"
);
},
{
closed = 1;
nodes = (
"103 46 OFFCURVE",
"93 103 OFFCURVE",
"93 172 CURVE SMOOTH",
"93 316 LINE SMOOTH",
"93 384 OFFCURVE",
"103 442 OFFCURVE",
"156 442 CURVE SMOOTH",
"202 442 OFFCURVE",
"225 400 OFFCURVE",
"225 316 CURVE SMOOTH",
"225 172 LINE SMOOTH",
"225 90 OFFCURVE",
"201 46 OFFCURVE",
"156 46 CURVE SMOOTH"
);
}
);
width = 319;
}
);
note = zero;
},
{
glyphname = one.dnom;
lastChange = "2025-02-15 08:54:04 +0000";
layers = (
{
layerId = m01;
paths = (
{
closed = 1;
nodes = (
"214 0 LINE",
"214 488 LINE",
"152 488 LINE",
"45 432 LINE",
"45 364 LINE",
"150 418 LINE",
"150 0 LINE"
);
}
);
width = 319;
}
);
note = one;
},
{
glyphname = two.dnom;
lastChange = "2025-02-15 08:54:04 +0000";
layers = (
{
layerId = m01;
paths = (
{
closed = 1;
nodes = (
"294 0 LINE",
"294 54 LINE",
"107 54 LINE",
"274 260 OFFCURVE",
"285 305 OFFCURVE",
"285 371 CURVE SMOOTH",
"285 450 OFFCURVE",
"241 494 OFFCURVE",
"163 494 CURVE SMOOTH",
"73 494 OFFCURVE",
"32 449 OFFCURVE",
"37 356 CURVE",
"102 356 LINE",
"101 419 OFFCURVE",
"117 442 OFFCURVE",
"158 442 CURVE SMOOTH",
"201 442 OFFCURVE",
"221 422 OFFCURVE",
"221 380 CURVE SMOOTH",
"221 305 OFFCURVE",
"212 287 OFFCURVE",
"33 55 CURVE",
"33 0 LINE"
);
}
);
width = 319;
}
);
note = two;
},
{
glyphname = three.dnom;
lastChange = "2025-02-15 08:54:04 +0000";
layers = (
{
background = {
paths = (
{
closed = 1;
nodes = (
"363 -10 OFFCURVE",
"431 66 OFFCURVE",
"431 202 CURVE SMOOTH",
"431 312 OFFCURVE",
"385 367 OFFCURVE",
"281 386 CURVE",
"373 404 OFFCURVE",
"416 456 OFFCURVE",
"416 552 CURVE SMOOTH",
"416 669 OFFCURVE",
"353 737 OFFCURVE",
"233 737 CURVE SMOOTH",
"124 737 OFFCURVE",
"55 678 OFFCURVE",
"55 529 CURVE",
"131 529 LINE",
"135 632 OFFCURVE",
"162 670 OFFCURVE",
"233 670 CURVE SMOOTH",
"307 670 OFFCURVE",
"340 624 OFFCURVE",
"340 563 CURVE SMOOTH",
"340 462 OFFCURVE",
"295 417 OFFCURVE",
"191 416 CURVE",
"191 346 LINE",
"314 346 OFFCURVE",
"355 311 OFFCURVE",
"355 205 CURVE SMOOTH",
"355 105 OFFCURVE",
"315 57 OFFCURVE",
"237 57 CURVE SMOOTH",
"160 57 OFFCURVE",
"131 89 OFFCURVE",
"124 199 CURVE",
"48 199 LINE",
"50 53 OFFCURVE",
"107 -10 OFFCURVE",
"234 -10 CURVE SMOOTH"
);
},
{
closed = 1;
nodes = (
"274 370 LINE",
"297 370 LINE",
"297 398 LINE",
"274 398 LINE"
);
}
);
};
layerId = m01;
paths = (
{
closed = 1;
nodes = (
"239 -7 OFFCURVE",
"288 45 OFFCURVE",
"288 137 CURVE SMOOTH",
"288 205 OFFCURVE",
"261 243 OFFCURVE",
"199 260 CURVE",
"199 259 LINE",
"253 274 OFFCURVE",
"278 309 OFFCURVE",
"278 368 CURVE SMOOTH",
"278 449 OFFCURVE",
"232 494 OFFCURVE",
"150 494 CURVE SMOOTH",
"66 494 OFFCURVE",
"24 445 OFFCURVE",
"25 349 CURVE",
"90 349 LINE",
"91 418 OFFCURVE",
"107 442 OFFCURVE",
"150 442 CURVE SMOOTH",
"190 442 OFFCURVE",
"213 418 OFFCURVE",
"213 376 CURVE SMOOTH",
"213 308 OFFCURVE",
"184 281 OFFCURVE",
"115 283 CURVE",
"115 228 LINE",
"198 229 OFFCURVE",
"223 209 OFFCURVE",
"223 139 CURVE SMOOTH",
"223 75 OFFCURVE",
"200 46 OFFCURVE",
"152 46 CURVE SMOOTH",
"105 46 OFFCURVE",
"89 67 OFFCURVE",
"85 139 CURVE",
"21 139 LINE",
"21 39 OFFCURVE",
"61 -7 OFFCURVE",
"150 -7 CURVE SMOOTH"
);
}
);
width = 319;
}
);
note = three;
},
{
glyphname = four.dnom;
lastChange = "2025-02-15 12:02:08 +0000";
layers = (
{
background = {
paths = (
{
closed = 1;
nodes = (
"380 0 LINE",
"380 177 LINE",
"449 177 LINE",
"449 245 LINE",
"380 245 LINE",
"380 727 LINE",
"258 727 LINE",
"29 252 LINE",
"29 177 LINE",
"304 177 LINE",
"304 0 LINE"
);
},
{
closed = 1;
nodes = (
"304 670 LINE",
"304 245 LINE",
"100 245 LINE"
);
},
{
closed = 1;
nodes = (
"284 659 LINE",
"315 659 LINE",
"315 685 LINE",
"284 685 LINE"
);
},
{
closed = 1;
nodes = (
"84 230 LINE",
"104 230 LINE",
"104 267 LINE",
"84 267 LINE"
);
}
);
};
layerId = m01;
paths = (
{
closed = 1;
nodes = (
"258 0 LINE",
"258 117 LINE",
"303 117 LINE",
"303 170 LINE",
"258 170 LINE",
"258 488 LINE",
"165 488 LINE",
"12 170 LINE",
"12 117 LINE",
"194 117 LINE",
"194 0 LINE"
);
},
{
closed = 1;
nodes = (
"76 171 LINE",
"202 435 LINE",
"194 435 LINE",
"194 170 LINE",
"76 170 LINE"
);
}
);
width = 319;
}
);
note = four;
},
{
glyphname = five.dnom;
lastChange = "2025-02-15 08:54:04 +0000";
layers = (
{
background = {
paths = (
{
closed = 1;
nodes = (
"77 44 OFFCURVE",
"128 -10 OFFCURVE",
"251 -10 CURVE SMOOTH",
"371 -10 OFFCURVE",
"429 66 OFFCURVE",
"429 243 CURVE SMOOTH",
"429 404 OFFCURVE",
"384 472 OFFCURVE",
"287 472 CURVE SMOOTH",
"256 472 OFFCURVE",
"201 466 OFFCURVE",
"154 413 CURVE",
"160 657 LINE",
"402 657 LINE",
"402 727 LINE",
"86 727 LINE",
"74 305 LINE",
"150 305 LINE",
"162 374 OFFCURVE",
"198 409 OFFCURVE",
"255 409 CURVE SMOOTH",
"325 409 OFFCURVE",
"353 363 OFFCURVE",
"353 232 CURVE SMOOTH",
"353 101 OFFCURVE",
"320 57 OFFCURVE",
"249 57 CURVE SMOOTH",
"180 57 OFFCURVE",
"152 88 OFFCURVE",
"148 163 CURVE",
"71 163 LINE"
);
},
{
closed = 1;
nodes = (
"146 406 LINE",
"176 406 LINE",
"176 420 LINE",
"146 420 LINE"
);
}
);
};
layerId = m01;
paths = (
{
closed = 1;
nodes = (
"43 30 OFFCURVE",
"81 -7 OFFCURVE",
"166 -7 CURVE SMOOTH",
"253 -7 OFFCURVE",
"297 50 OFFCURVE",
"297 164 CURVE SMOOTH",
"297 264 OFFCURVE",
"259 320 OFFCURVE",
"189 320 CURVE SMOOTH",
"170 320 OFFCURVE",
"133 316 OFFCURVE",
"102 285 CURVE",
"109 285 LINE",
"113 434 LINE",
"279 434 LINE",
"279 488 LINE",
"50 488 LINE",
"42 201 LINE",
"105 201 LINE",
"112 247 OFFCURVE",
"134 270 OFFCURVE",
"168 270 CURVE SMOOTH",
"210 270 OFFCURVE",
"233 231 OFFCURVE",
"233 157 CURVE SMOOTH",
"233 81 OFFCURVE",
"211 46 OFFCURVE",
"164 46 CURVE SMOOTH",
"122 46 OFFCURVE",
"106 65 OFFCURVE",
"105 116 CURVE",
"40 116 LINE"
);
}
);
width = 319;
}
);
note = five;
},
{
glyphname = six.dnom;
lastChange = "2025-02-15 08:54:04 +0000";
layers = (
{
background = {
paths = (
{
closed = 1;
nodes = (
"178 57 OFFCURVE",
"141 119 OFFCURVE",
"141 232 CURVE SMOOTH",
"141 342 OFFCURVE",
"177 393 OFFCURVE",
"251 393 CURVE SMOOTH",
"326 393 OFFCURVE",
"364 342 OFFCURVE",
"364 232 CURVE SMOOTH",
"364 119 OFFCURVE",
"322 57 OFFCURVE",
"248 57 CURVE SMOOTH"
);
},
{
closed = 1;
nodes = (
"419 681 OFFCURVE",
"369 737 OFFCURVE",
"258 737 CURVE SMOOTH",
"83 737 OFFCURVE",
"64 588 OFFCURVE",
"64 353 CURVE SMOOTH",
"64 131 OFFCURVE",
"70 -10 OFFCURVE",
"248 -10 CURVE SMOOTH",
"373 -10 OFFCURVE",
"440 75 OFFCURVE",
"440 232 CURVE SMOOTH",
"440 377 OFFCURVE",
"377 460 OFFCURVE",
"267 460 CURVE SMOOTH",
"226 460 OFFCURVE",
"179 445 OFFCURVE",
"141 386 CURVE",
"141 451 LINE SMOOTH",
"141 610 OFFCURVE",
"171 670 OFFCURVE",
"253 670 CURVE SMOOTH",
"315 670 OFFCURVE",
"344 635 OFFCURVE",
"346 557 CURVE",
"426 557 LINE"
);
},
{
closed = 1;
nodes = (
"123 374 LINE",
"171 374 LINE",
"171 394 LINE",
"123 394 LINE"
);
}
);
};
layerId = m01;
paths = (
{
closed = 1;
nodes = (
"122 46 OFFCURVE",
"99 85 OFFCURVE",
"99 157 CURVE SMOOTH",
"99 226 OFFCURVE",
"120 259 OFFCURVE",
"164 259 CURVE SMOOTH",
"210 259 OFFCURVE",
"232 226 OFFCURVE",
"232 157 CURVE SMOOTH",
"232 86 OFFCURVE",
"206 46 OFFCURVE",
"162 46 CURVE SMOOTH"
);
},
{
closed = 1;
nodes = (
"34 90 OFFCURVE",
"38 -7 OFFCURVE",
"162 -7 CURVE SMOOTH",
"249 -7 OFFCURVE",
"296 51 OFFCURVE",
"296 157 CURVE SMOOTH",
"296 256 OFFCURVE",
"252 312 OFFCURVE",
"175 312 CURVE SMOOTH",
"141 312 OFFCURVE",
"111 296 OFFCURVE",
"90 268 CURVE",
"99 268 LINE",
"99 302 LINE SMOOTH",
"99 404 OFFCURVE",
"118 442 OFFCURVE",
"166 442 CURVE SMOOTH",
"203 442 OFFCURVE",
"220 420 OFFCURVE",
"220 368 CURVE",
"287 368 LINE",
"283 455 OFFCURVE",
"246 494 OFFCURVE",
"169 494 CURVE SMOOTH",
"46 494 OFFCURVE",
"34 392 OFFCURVE",
"34 237 CURVE SMOOTH"
);
}
);
width = 319;
}
);
note = six;
},
{
glyphname = seven.dnom;
lastChange = "2025-02-15 08:54:04 +0000";
layers = (
{
layerId = m01;
paths = (
{
closed = 1;
nodes = (
"141 0 LINE",
"297 438 LINE",
"297 488 LINE",
"21 488 LINE",
"21 431 LINE",
"231 431 LINE",
"70 0 LINE"
);
}
);
width = 319;
}
);
note = seven;
},
{
glyphname = eight.dnom;
lastChange = "2025-02-15 08:54:04 +0000";
layers = (
{
background = {
paths = (
{
closed = 1;
nodes = (
"382 -10 OFFCURVE",
"426 74 OFFCURVE",
"426 196 CURVE SMOOTH",
"426 295 OFFCURVE",
"379 384 OFFCURVE",
"242 384 CURVE SMOOTH",
"106 384 OFFCURVE",
"57 293 OFFCURVE",
"57 196 CURVE SMOOTH",
"57 75 OFFCURVE",
"102 -10 OFFCURVE",
"242 -10 CURVE SMOOTH"
);
},
{
closed = 1;
nodes = (
"158 57 OFFCURVE",
"133 108 OFFCURVE",
"133 198 CURVE SMOOTH",
"133 261 OFFCURVE",
"152 342 OFFCURVE",
"242 342 CURVE SMOOTH",
"332 342 OFFCURVE",
"350 266 OFFCURVE",
"350 198 CURVE SMOOTH",
"350 108 OFFCURVE",
"326 57 OFFCURVE",
"242 57 CURVE SMOOTH"
);
},
{
closed = 1;
nodes = (
"112 737 OFFCURVE",
"63 652 OFFCURVE",
"63 551 CURVE SMOOTH",
"63 442 OFFCURVE",
"126 364 OFFCURVE",
"242 364 CURVE SMOOTH",
"359 364 OFFCURVE",
"420 442 OFFCURVE",
"420 551 CURVE SMOOTH",
"420 653 OFFCURVE",
"372 737 OFFCURVE",
"242 737 CURVE SMOOTH"
);
},
{
closed = 1;
nodes = (
"311 670 OFFCURVE",
"344 629 OFFCURVE",
"344 539 CURVE SMOOTH",
"344 481 OFFCURVE",
"312 406 OFFCURVE",
"242 406 CURVE SMOOTH",
"162 406 OFFCURVE",
"139 486 OFFCURVE",
"139 539 CURVE SMOOTH",
"139 629 OFFCURVE",
"175 670 OFFCURVE",
"242 670 CURVE SMOOTH"
);
},
{
closed = 1;
nodes = (
"166 371 LINE",
"185 371 LINE",
"185 381 LINE",
"166 381 LINE"
);
},
{
closed = 1;
nodes = (
"302 371 LINE",
"319 371 LINE",
"319 380 LINE",
"302 380 LINE"
);
}
);
};
layerId = m01;
paths = (
{
closed = 1;
nodes = (
"246 -7 OFFCURVE",
"288 39 OFFCURVE",
"288 133 CURVE SMOOTH",
"288 192 OFFCURVE",
"264 234 OFFCURVE",
"218 252 CURVE",
"218 251 LINE",
"261 271 OFFCURVE",
"284 312 OFFCURVE",
"284 368 CURVE SMOOTH",
"284 449 OFFCURVE",
"240 494 OFFCURVE",
"160 494 CURVE SMOOTH",
"81 494 OFFCURVE",
"35 448 OFFCURVE",
"35 368 CURVE SMOOTH",
"35 312 OFFCURVE",
"59 271 OFFCURVE",
"103 251 CURVE",
"103 252 LINE",
"56 234 OFFCURVE",
"31 193 OFFCURVE",
"31 133 CURVE SMOOTH",
"31 39 OFFCURVE",
"73 -7 OFFCURVE",
"160 -7 CURVE SMOOTH"
);
},
{
closed = 1;
nodes = (
"95 194 OFFCURVE",
"118 226 OFFCURVE",
"160 226 CURVE SMOOTH",
"203 226 OFFCURVE",
"224 195 OFFCURVE",
"224 135 CURVE SMOOTH",
"224 71 OFFCURVE",
"206 46 OFFCURVE",
"160 46 CURVE SMOOTH",
"113 46 OFFCURVE",
"95 70 OFFCURVE",
"95 135 CURVE SMOOTH"
);
},
{
closed = 1;
nodes = (
"99 415 OFFCURVE",
"119 442 OFFCURVE",
"160 442 CURVE SMOOTH",
"201 442 OFFCURVE",
"220 416 OFFCURVE",
"220 360 CURVE SMOOTH",
"220 313 OFFCURVE",
"194 276 OFFCURVE",
"160 276 CURVE SMOOTH",
"113 276 OFFCURVE",
"99 325 OFFCURVE",
"99 360 CURVE SMOOTH"
);
}
);
width = 319;
}
);
note = eight;
},
{
glyphname = nine.dnom;
lastChange = "2025-02-15 08:54:04 +0000";
layers = (
{
layerId = m01;
paths = (
{
closed = 1;
nodes = (
"197 441 OFFCURVE",
"220 402 OFFCURVE",
"220 330 CURVE SMOOTH",
"220 261 OFFCURVE",
"199 228 OFFCURVE",
"155 228 CURVE SMOOTH",
"109 228 OFFCURVE",
"87 261 OFFCURVE",
"87 330 CURVE SMOOTH",
"87 401 OFFCURVE",
"113 441 OFFCURVE",
"157 441 CURVE SMOOTH"
);
},
{
closed = 1;
nodes = (
"285 397 OFFCURVE",
"281 494 OFFCURVE",
"157 494 CURVE SMOOTH",
"70 494 OFFCURVE",
"23 436 OFFCURVE",
"23 330 CURVE SMOOTH",
"23 231 OFFCURVE",
"67 175 OFFCURVE",
"144 175 CURVE SMOOTH",
"178 175 OFFCURVE",
"208 191 OFFCURVE",
"229 219 CURVE",
"220 219 LINE",
"220 185 LINE SMOOTH",
"220 83 OFFCURVE",
"201 45 OFFCURVE",
"153 45 CURVE SMOOTH",
"116 45 OFFCURVE",
"99 67 OFFCURVE",
"99 119 CURVE",
"32 119 LINE",
"36 32 OFFCURVE",
"73 -7 OFFCURVE",
"150 -7 CURVE SMOOTH",
"273 -7 OFFCURVE",
"285 95 OFFCURVE",
"285 250 CURVE SMOOTH"
);
}
);
width = 319;
}
);
note = nine;
},
{
glyphname = zero.numr;
lastChange = "2025-02-15 08:54:04 +0000";
layers = (
{
layerId = m01;
paths = (
{
closed = 1;
nodes = (
"243 232 OFFCURVE",
"289 294 OFFCURVE",
"289 412 CURVE SMOOTH",
"289 553 LINE SMOOTH",
"289 673 OFFCURVE",
"245 733 OFFCURVE",
"156 733 CURVE SMOOTH",
"69 733 OFFCURVE",
"29 675 OFFCURVE",
"29 553 CURVE SMOOTH",
"29 412 LINE SMOOTH",
"29 292 OFFCURVE",
"71 232 OFFCURVE",
"156 232 CURVE SMOOTH"
);
},
{
closed = 1;
nodes = (
"103 285 OFFCURVE",
"93 342 OFFCURVE",
"93 411 CURVE SMOOTH",
"93 555 LINE SMOOTH",
"93 623 OFFCURVE",
"103 681 OFFCURVE",
"156 681 CURVE SMOOTH",
"202 681 OFFCURVE",
"225 639 OFFCURVE",
"225 555 CURVE SMOOTH",
"225 411 LINE SMOOTH",
"225 329 OFFCURVE",
"201 285 OFFCURVE",
"156 285 CURVE SMOOTH"
);
}
);
width = 319;
}
);
note = zero;
},
{
glyphname = one.numr;
lastChange = "2025-02-15 08:54:04 +0000";
layers = (
{
layerId = m01;
paths = (
{
closed = 1;
nodes = (
"214 239 LINE",
"214 727 LINE",
"152 727 LINE",
"45 671 LINE",
"45 603 LINE",
"150 657 LINE",
"150 239 LINE"
);
}
);
width = 319;
}
);
note = one;
},
{
glyphname = two.numr;
lastChange = "2025-02-15 08:54:04 +0000";
layers = (
{
layerId = m01;
paths = (
{
closed = 1;
nodes = (
"294 239 LINE",
"294 293 LINE",
"107 293 LINE",
"274 499 OFFCURVE",
"285 544 OFFCURVE",
"285 610 CURVE SMOOTH",
"285 689 OFFCURVE",
"241 733 OFFCURVE",
"163 733 CURVE SMOOTH",
"73 733 OFFCURVE",
"32 688 OFFCURVE",
"37 595 CURVE",
"102 595 LINE",
"101 658 OFFCURVE",
"117 681 OFFCURVE",
"158 681 CURVE SMOOTH",
"201 681 OFFCURVE",
"221 661 OFFCURVE",
"221 619 CURVE SMOOTH",
"221 544 OFFCURVE",
"212 526 OFFCURVE",
"33 294 CURVE",
"33 239 LINE"
);
}
);
width = 319;
}
);
note = two;
},
{
glyphname = three.numr;
lastChange = "2025-02-15 08:54:04 +0000";
layers = (
{
background = {
paths = (
{
closed = 1;
nodes = (
"363 -10 OFFCURVE",
"431 66 OFFCURVE",
"431 202 CURVE SMOOTH",
"431 312 OFFCURVE",
"385 367 OFFCURVE",
"281 386 CURVE",
"373 404 OFFCURVE",
"416 456 OFFCURVE",
"416 552 CURVE SMOOTH",
"416 669 OFFCURVE",
"353 737 OFFCURVE",
"233 737 CURVE SMOOTH",
"124 737 OFFCURVE",
"55 678 OFFCURVE",
"55 529 CURVE",
"131 529 LINE",
"135 632 OFFCURVE",
"162 670 OFFCURVE",
"233 670 CURVE SMOOTH",
"307 670 OFFCURVE",
"340 624 OFFCURVE",
"340 563 CURVE SMOOTH",
"340 462 OFFCURVE",
"295 417 OFFCURVE",
"191 416 CURVE",
"191 346 LINE",
"314 346 OFFCURVE",
"355 311 OFFCURVE",
"355 205 CURVE SMOOTH",
"355 105 OFFCURVE",
"315 57 OFFCURVE",
"237 57 CURVE SMOOTH",
"160 57 OFFCURVE",
"131 89 OFFCURVE",
"124 199 CURVE",
"48 199 LINE",
"50 53 OFFCURVE",
"107 -10 OFFCURVE",
"234 -10 CURVE SMOOTH"
);
},
{
closed = 1;
nodes = (
"274 370 LINE",
"297 370 LINE",
"297 398 LINE",
"274 398 LINE"
);
}
);
};
layerId = m01;
paths = (
{
closed = 1;
nodes = (
"239 232 OFFCURVE",
"288 284 OFFCURVE",
"288 376 CURVE SMOOTH",
"288 444 OFFCURVE",
"261 482 OFFCURVE",
"199 499 CURVE",
"199 498 LINE",
"253 513 OFFCURVE",
"278 548 OFFCURVE",
"278 607 CURVE SMOOTH",
"278 688 OFFCURVE",
"232 733 OFFCURVE",
"150 733 CURVE SMOOTH",
"66 733 OFFCURVE",
"24 684 OFFCURVE",
"25 588 CURVE",
"90 588 LINE",
"91 657 OFFCURVE",
"107 681 OFFCURVE",
"150 681 CURVE SMOOTH",
"190 681 OFFCURVE",
"213 657 OFFCURVE",
"213 615 CURVE SMOOTH",
"213 547 OFFCURVE",
"184 520 OFFCURVE",
"115 522 CURVE",
"115 467 LINE",
"198 468 OFFCURVE",
"223 448 OFFCURVE",
"223 378 CURVE SMOOTH",
"223 314 OFFCURVE",
"200 285 OFFCURVE",
"152 285 CURVE SMOOTH",
"105 285 OFFCURVE",
"89 306 OFFCURVE",
"85 378 CURVE",
"21 378 LINE",
"21 278 OFFCURVE",
"61 232 OFFCURVE",
"150 232 CURVE SMOOTH"
);
}
);
width = 319;
}
);
note = three;
},
{
glyphname = four.numr;
lastChange = "2025-02-15 08:54:04 +0000";
layers = (
{
background = {
paths = (
{
closed = 1;
nodes = (
"380 0 LINE",
"380 177 LINE",
"449 177 LINE",
"449 245 LINE",
"380 245 LINE",
"380 727 LINE",
"258 727 LINE",
"29 252 LINE",
"29 177 LINE",
"304 177 LINE",
"304 0 LINE"
);
},
{
closed = 1;
nodes = (
"304 670 LINE",
"304 245 LINE",
"100 245 LINE"
);
},
{
closed = 1;
nodes = (
"284 659 LINE",
"315 659 LINE",
"315 685 LINE",
"284 685 LINE"
);
},
{
closed = 1;
nodes = (
"84 230 LINE",
"104 230 LINE",
"104 267 LINE",
"84 267 LINE"
);
}
);
};
layerId = m01;
paths = (
{
closed = 1;
nodes = (
"258 239 LINE",
"258 356 LINE",
"303 356 LINE",
"303 409 LINE",
"258 409 LINE",
"258 727 LINE",
"165 727 LINE",
"12 409 LINE",
"12 356 LINE",
"194 356 LINE",
"194 239 LINE"
);
},
{
closed = 1;
nodes = (
"76 410 LINE",
"202 674 LINE",
"194 674 LINE",
"194 409 LINE",
"76 409 LINE"
);
}
);
width = 319;
}
);
note = four;
},
{
glyphname = five.numr;
lastChange = "2025-02-15 08:54:04 +0000";
layers = (
{
background = {
paths = (
{
closed = 1;
nodes = (
"77 44 OFFCURVE",
"128 -10 OFFCURVE",
"251 -10 CURVE SMOOTH",
"371 -10 OFFCURVE",
"429 66 OFFCURVE",
"429 243 CURVE SMOOTH",
"429 404 OFFCURVE",
"384 472 OFFCURVE",
"287 472 CURVE SMOOTH",
"256 472 OFFCURVE",
"201 466 OFFCURVE",
"154 413 CURVE",
"160 657 LINE",
"402 657 LINE",
"402 727 LINE",
"86 727 LINE",
"74 305 LINE",
"150 305 LINE",
"162 374 OFFCURVE",
"198 409 OFFCURVE",
"255 409 CURVE SMOOTH",
"325 409 OFFCURVE",
"353 363 OFFCURVE",
"353 232 CURVE SMOOTH",
"353 101 OFFCURVE",
"320 57 OFFCURVE",
"249 57 CURVE SMOOTH",
"180 57 OFFCURVE",
"152 88 OFFCURVE",
"148 163 CURVE",
"71 163 LINE"
);
},
{
closed = 1;
nodes = (
"146 406 LINE",
"176 406 LINE",
"176 420 LINE",
"146 420 LINE"
);
}
);
};
layerId = m01;
paths = (
{
closed = 1;
nodes = (
"43 269 OFFCURVE",
"81 232 OFFCURVE",
"166 232 CURVE SMOOTH",
"253 232 OFFCURVE",
"297 289 OFFCURVE",
"297 403 CURVE SMOOTH",
"297 503 OFFCURVE",
"259 559 OFFCURVE",
"189 559 CURVE SMOOTH",
"170 559 OFFCURVE",
"133 555 OFFCURVE",
"102 524 CURVE",
"109 524 LINE",
"113 673 LINE",
"279 673 LINE",
"279 727 LINE",
"50 727 LINE",
"42 440 LINE",
"105 440 LINE",
"112 486 OFFCURVE",
"134 509 OFFCURVE",
"168 509 CURVE SMOOTH",
"210 509 OFFCURVE",
"233 470 OFFCURVE",
"233 396 CURVE SMOOTH",
"233 320 OFFCURVE",
"211 285 OFFCURVE",
"164 285 CURVE SMOOTH",
"122 285 OFFCURVE",
"106 304 OFFCURVE",
"105 355 CURVE",
"40 355 LINE"
);
}
);
width = 319;
}
);
note = five;
},
{
glyphname = six.numr;
lastChange = "2025-02-15 08:54:04 +0000";
layers = (
{
background = {
paths = (
{
closed = 1;
nodes = (
"178 57 OFFCURVE",
"141 119 OFFCURVE",
"141 232 CURVE SMOOTH",
"141 342 OFFCURVE",
"177 393 OFFCURVE",
"251 393 CURVE SMOOTH",
"326 393 OFFCURVE",
"364 342 OFFCURVE",
"364 232 CURVE SMOOTH",
"364 119 OFFCURVE",
"322 57 OFFCURVE",
"248 57 CURVE SMOOTH"
);
},
{
closed = 1;
nodes = (
"419 681 OFFCURVE",
"369 737 OFFCURVE",
"258 737 CURVE SMOOTH",
"83 737 OFFCURVE",
"64 588 OFFCURVE",
"64 353 CURVE SMOOTH",
"64 131 OFFCURVE",
"70 -10 OFFCURVE",
"248 -10 CURVE SMOOTH",
"373 -10 OFFCURVE",
"440 75 OFFCURVE",
"440 232 CURVE SMOOTH",
"440 377 OFFCURVE",
"377 460 OFFCURVE",
"267 460 CURVE SMOOTH",
"226 460 OFFCURVE",
"179 445 OFFCURVE",
"141 386 CURVE",
"141 451 LINE SMOOTH",
"141 610 OFFCURVE",
"171 670 OFFCURVE",
"253 670 CURVE SMOOTH",
"315 670 OFFCURVE",
"344 635 OFFCURVE",
"346 557 CURVE",
"426 557 LINE"
);
},
{
closed = 1;
nodes = (
"123 374 LINE",
"171 374 LINE",
"171 394 LINE",
"123 394 LINE"
);
}
);
};
layerId = m01;
paths = (
{
closed = 1;
nodes = (
"122 285 OFFCURVE",
"99 324 OFFCURVE",
"99 396 CURVE SMOOTH",
"99 465 OFFCURVE",
"120 498 OFFCURVE",
"164 498 CURVE SMOOTH",
"210 498 OFFCURVE",
"232 465 OFFCURVE",
"232 396 CURVE SMOOTH",
"232 325 OFFCURVE",
"206 285 OFFCURVE",
"162 285 CURVE SMOOTH"
);
},
{
closed = 1;
nodes = (
"34 329 OFFCURVE",
"38 232 OFFCURVE",
"162 232 CURVE SMOOTH",
"249 232 OFFCURVE",
"296 290 OFFCURVE",
"296 396 CURVE SMOOTH",
"296 495 OFFCURVE",
"252 551 OFFCURVE",
"175 551 CURVE SMOOTH",
"141 551 OFFCURVE",
"111 535 OFFCURVE",
"90 507 CURVE",
"99 507 LINE",
"99 541 LINE SMOOTH",
"99 643 OFFCURVE",
"118 681 OFFCURVE",
"166 681 CURVE SMOOTH",
"203 681 OFFCURVE",
"220 659 OFFCURVE",
"220 607 CURVE",
"287 607 LINE",
"283 694 OFFCURVE",
"246 733 OFFCURVE",
"169 733 CURVE SMOOTH",
"46 733 OFFCURVE",
"34 631 OFFCURVE",
"34 476 CURVE SMOOTH"
);
}
);
width = 319;
}
);
note = six;
},
{
glyphname = seven.numr;
lastChange = "2025-02-15 12:01:53 +0000";
layers = (
{
layerId = m01;
paths = (
{
closed = 1;
nodes = (
"141 239 LINE",
"297 677 LINE",
"297 727 LINE",
"21 727 LINE",
"21 670 LINE",
"231 670 LINE",
"70 239 LINE"
);
}
);
width = 319;
}
);
note = seven;
},
{
glyphname = eight.numr;
lastChange = "2025-02-15 08:54:04 +0000";
layers = (
{
background = {
paths = (
{
closed = 1;
nodes = (
"382 -10 OFFCURVE",
"426 74 OFFCURVE",
"426 196 CURVE SMOOTH",
"426 295 OFFCURVE",
"379 384 OFFCURVE",
"242 384 CURVE SMOOTH",
"106 384 OFFCURVE",
"57 293 OFFCURVE",
"57 196 CURVE SMOOTH",
"57 75 OFFCURVE",
"102 -10 OFFCURVE",
"242 -10 CURVE SMOOTH"
);
},
{
closed = 1;
nodes = (
"158 57 OFFCURVE",
"133 108 OFFCURVE",
"133 198 CURVE SMOOTH",
"133 261 OFFCURVE",
"152 342 OFFCURVE",
"242 342 CURVE SMOOTH",
"332 342 OFFCURVE",
"350 266 OFFCURVE",
"350 198 CURVE SMOOTH",
"350 108 OFFCURVE",
"326 57 OFFCURVE",
"242 57 CURVE SMOOTH"
);
},
{
closed = 1;
nodes = (
"112 737 OFFCURVE",
"63 652 OFFCURVE",
"63 551 CURVE SMOOTH",
"63 442 OFFCURVE",
"126 364 OFFCURVE",
"242 364 CURVE SMOOTH",
"359 364 OFFCURVE",
"420 442 OFFCURVE",
"420 551 CURVE SMOOTH",
"420 653 OFFCURVE",
"372 737 OFFCURVE",
"242 737 CURVE SMOOTH"
);
},
{
closed = 1;
nodes = (
"311 670 OFFCURVE",
"344 629 OFFCURVE",
"344 539 CURVE SMOOTH",
"344 481 OFFCURVE",
"312 406 OFFCURVE",
"242 406 CURVE SMOOTH",
"162 406 OFFCURVE",
"139 486 OFFCURVE",
"139 539 CURVE SMOOTH",
"139 629 OFFCURVE",
"175 670 OFFCURVE",
"242 670 CURVE SMOOTH"
);
},
{
closed = 1;
nodes = (
"166 371 LINE",
"185 371 LINE",
"185 381 LINE",
"166 381 LINE"
);
},
{
closed = 1;
nodes = (
"302 371 LINE",
"319 371 LINE",
"319 380 LINE",
"302 380 LINE"
);
}
);
};
layerId = m01;
paths = (
{
closed = 1;
nodes = (
"246 232 OFFCURVE",
"288 278 OFFCURVE",
"288 372 CURVE SMOOTH",
"288 431 OFFCURVE",
"264 473 OFFCURVE",
"218 491 CURVE",
"218 490 LINE",
"261 510 OFFCURVE",
"284 551 OFFCURVE",
"284 607 CURVE SMOOTH",
"284 688 OFFCURVE",
"240 733 OFFCURVE",
"160 733 CURVE SMOOTH",
"81 733 OFFCURVE",
"35 687 OFFCURVE",
"35 607 CURVE SMOOTH",
"35 551 OFFCURVE",
"59 510 OFFCURVE",
"103 490 CURVE",
"103 491 LINE",
"56 473 OFFCURVE",
"31 432 OFFCURVE",
"31 372 CURVE SMOOTH",
"31 278 OFFCURVE",
"73 232 OFFCURVE",
"160 232 CURVE SMOOTH"
);
},
{
closed = 1;
nodes = (
"95 433 OFFCURVE",
"118 465 OFFCURVE",
"160 465 CURVE SMOOTH",
"203 465 OFFCURVE",
"224 434 OFFCURVE",
"224 374 CURVE SMOOTH",
"224 310 OFFCURVE",
"206 285 OFFCURVE",
"160 285 CURVE SMOOTH",
"113 285 OFFCURVE",
"95 309 OFFCURVE",
"95 374 CURVE SMOOTH"
);
},
{
closed = 1;
nodes = (
"99 654 OFFCURVE",
"119 681 OFFCURVE",
"160 681 CURVE SMOOTH",
"201 681 OFFCURVE",
"220 655 OFFCURVE",
"220 599 CURVE SMOOTH",
"220 552 OFFCURVE",
"194 515 OFFCURVE",
"160 515 CURVE SMOOTH",
"113 515 OFFCURVE",
"99 564 OFFCURVE",
"99 599 CURVE SMOOTH"
);
}
);
width = 319;
}
);
note = eight;
},
{
glyphname = nine.numr;
lastChange = "2025-02-15 08:54:04 +0000";
layers = (
{
layerId = m01;
paths = (
{
closed = 1;
nodes = (
"197 680 OFFCURVE",
"220 641 OFFCURVE",
"220 569 CURVE SMOOTH",
"220 500 OFFCURVE",
"199 467 OFFCURVE",
"155 467 CURVE SMOOTH",
"109 467 OFFCURVE",
"87 500 OFFCURVE",
"87 569 CURVE SMOOTH",
"87 640 OFFCURVE",
"113 680 OFFCURVE",
"157 680 CURVE SMOOTH"
);
},
{
closed = 1;
nodes = (
"285 636 OFFCURVE",
"281 733 OFFCURVE",
"157 733 CURVE SMOOTH",
"70 733 OFFCURVE",
"23 675 OFFCURVE",
"23 569 CURVE SMOOTH",
"23 470 OFFCURVE",
"67 414 OFFCURVE",
"144 414 CURVE SMOOTH",
"178 414 OFFCURVE",
"208 430 OFFCURVE",
"229 458 CURVE",
"220 458 LINE",
"220 424 LINE SMOOTH",
"220 322 OFFCURVE",
"201 284 OFFCURVE",
"153 284 CURVE SMOOTH",
"116 284 OFFCURVE",
"99 306 OFFCURVE",
"99 358 CURVE",
"32 358 LINE",
"36 271 OFFCURVE",
"73 232 OFFCURVE",
"150 232 CURVE SMOOTH",
"273 232 OFFCURVE",
"285 334 OFFCURVE",
"285 489 CURVE SMOOTH"
);
}
);
width = 319;
}
);
note = nine;
},
{
glyphname = fraction;
lastChange = "2025-02-15 08:54:04 +0000";
layers = (
{
layerId = m01;
paths = (
{
closed = 1;
nodes = (
"-14 0 LINE",
"356 727 LINE",
"291 727 LINE",
"-80 0 LINE"
);
}
);
vertWidth = 1200;
width = 276;
}
);
note = uni2215;
unicode = 2044;
},
{
glyphname = "One-roman";
lastChange = "2025-02-15 08:54:04 +0000";
layers = (
{
layerId = m01;
paths = (
{
closed = 1;
nodes = (
"105 0 LINE",
"181 0 LINE",
"181 727 LINE",
"105 727 LINE"
);
},
{
closed = 1;
nodes = (
"45 667 LINE",
"241 667 LINE",
"241 727 LINE",
"45 727 LINE"
);
},
{
closed = 1;
nodes = (
"45 0 LINE",
"241 0 LINE",
"241 60 LINE",
"45 60 LINE"
);
}
);
width = 286;
}
);
unicode = 2160;
},
{
glyphname = "Five-roman";
lastChange = "2025-02-15 11:59:54 +0000";
layers = (
{
layerId = m01;
paths = (
{
closed = 1;
nodes = (
"45 667 LINE",
"252 667 LINE",
"252 727 LINE",
"45 727 LINE"
);
},
{
closed = 1;
nodes = (
"408 667 LINE",
"615 667 LINE",
"615 727 LINE",
"408 727 LINE"
);
},
{
closed = 1;
nodes = (
"388 0 LINE",
"570 727 LINE",
"490 727 LINE",
"334 88 LINE",
"330 88 LINE",
"171 727 LINE",
"91 727 LINE",
"273 0 LINE"
);
}
);
width = 660;
}
);
leftMetricsKey = "One-roman";
rightKerningGroup = V;
rightMetricsKey = "One-roman";
unicode = 2164;
},
{
glyphname = "Ten-roman";
lastChange = "2025-02-15 11:58:11 +0000";
layers = (
{
layerId = m01;
paths = (
{
closed = 1;
nodes = (
"45 667 LINE",
"252 667 LINE",
"252 727 LINE",
"45 727 LINE"
);
},
{
closed = 1;
nodes = (
"364 667 LINE",
"571 667 LINE",
"571 727 LINE",
"364 727 LINE"
);
},
{
closed = 1;
nodes = (
"45 0 LINE",
"252 0 LINE",
"252 60 LINE",
"45 60 LINE"
);
},
{
closed = 1;
nodes = (
"364 0 LINE",
"571 0 LINE",
"571 60 LINE",
"364 60 LINE"
);
},
{
closed = 1;
nodes = (
"162 0 LINE",
"305 277 LINE",
"311 277 LINE",
"453 0 LINE",
"537 0 LINE",
"350 364 LINE",
"537 727 LINE",
"453 727 LINE",
"311 450 LINE",
"305 450 LINE",
"162 727 LINE",
"79 727 LINE",
"266 364 LINE",
"79 0 LINE"
);
}
);
width = 616;
}
);
leftMetricsKey = "One-roman";
rightMetricsKey = "One-roman";
unicode = 2169;
},
{
glyphname = period;
lastChange = "2025-02-15 08:54:04 +0000";
layers = (
{
layerId = m01;
paths = (
{
closed = 1;
nodes = (
"157 0 LINE",
"157 92 LINE",
"65 92 LINE",
"65 0 LINE"
);
}
);
vertWidth = 1200;
width = 222;
}
);
leftKerningGroup = comma;
note = period;
rightKerningGroup = comma;
unicode = 002E;
},
{
glyphname = comma;
lastChange = "2025-02-15 08:54:04 +0000";
layers = (
{
anchors = (
{
name = _vicentino;
position = "{94, 163}";
}
);
layerId = m01;
paths = (
{
closed = 1;
nodes = (
"79 -77 LINE",
"166 105 LINE",
"69 105 LINE",
"22 -77 LINE"
);
}
);
vertWidth = 1200;
width = 231;
}
);
leftKerningGroup = comma;
leftMetricsKey = "=period/3";
note = comma;
rightKerningGroup = comma;
rightMetricsKey = period;
unicode = 002C;
},
{
glyphname = colon;
lastChange = "2025-02-15 08:54:04 +0000";
layers = (
{
background = {
paths = (
{
closed = 1;
nodes = (
"152 413 LINE",
"152 505 LINE",
"60 505 LINE",
"60 413 LINE"
);
},
{
closed = 1;
nodes = (
"152 0 LINE",
"152 92 LINE",
"60 92 LINE",
"60 0 LINE"
);
}
);
};
components = (
{
name = period;
},
{
name = period;
transform = "{1, 0, 0, 1, 0, 413}";
}
);
layerId = m01;
vertWidth = 1200;
width = 222;
}
);
leftMetricsKey = period;
note = colon;
rightMetricsKey = period;
unicode = 003A;
},
{
glyphname = semicolon;
lastChange = "2025-02-15 08:54:04 +0000";
layers = (
{
background = {
paths = (
{
closed = 1;
nodes = (
"71 -76 LINE",
"154 116 LINE",
"61 116 LINE",
"16 -76 LINE"
);
},
{
closed = 1;
nodes = (
"132 413 LINE",
"132 505 LINE",
"40 505 LINE",
"40 413 LINE"
);
}
);
};
components = (
{
name = period;
transform = "{1, 0, 0, 1, -20, 413}";
},
{
name = comma;
}
);
layerId = m01;
vertWidth = 1200;
width = 231;
}
);
leftMetricsKey = comma;
note = semicolon;
rightMetricsKey = comma;
unicode = 003B;
},
{
glyphname = ellipsis;
lastChange = "2025-02-15 08:54:04 +0000";
layers = (
{
background = {
paths = (
{
closed = 1;
nodes = (
"592 0 LINE",
"592 92 LINE",
"500 92 LINE",
"500 0 LINE"
);
},
{
closed = 1;
nodes = (
"152 0 LINE",
"152 92 LINE",
"60 92 LINE",
"60 0 LINE"
);
},
{
closed = 1;
nodes = (
"372 0 LINE",
"372 92 LINE",
"280 92 LINE",
"280 0 LINE"
);
}
);
};
components = (
{
name = period;
},
{
name = period;
transform = "{1, 0, 0, 1, 220, 0}";
},
{
name = period;
transform = "{1, 0, 0, 1, 440, 0}";
}
);
layerId = m01;
vertWidth = 1200;
width = 662;
}
);
leftKerningGroup = comma;
leftMetricsKey = period;
note = ellipsis;
rightKerningGroup = comma;
rightMetricsKey = period;
unicode = 2026;
},
{
glyphname = exclam;
lastChange = "2025-02-15 08:54:04 +0000";
layers = (
{
background = {
paths = (
{
closed = 1;
nodes = (
"163 0 LINE",
"163 93 LINE",
"75 93 LINE",
"75 0 LINE"
);
}
);
};
components = (
{
name = period;
transform = "{1, 0, 0, 1, 13, 0}";
}
);
layerId = m01;
paths = (
{
closed = 1;
nodes = (
"146 165 LINE",
"158 727 LINE",
"75 727 LINE",
"91 165 LINE"
);
}
);
vertWidth = 1200;
width = 245;
}
);
leftMetricsKey = "=period+10";
note = exclam;
rightMetricsKey = "=period+10";
unicode = 0021;
},
{
glyphname = question;
lastChange = "2025-02-15 08:54:04 +0000";
layers = (
{
background = {
paths = (
{
closed = 1;
nodes = (
"236 183 LINE",
"236 276 LINE SMOOTH",
"236 352 OFFCURVE",
"369 404 OFFCURVE",
"369 570 CURVE SMOOTH",
"369 671 OFFCURVE",
"309 737 OFFCURVE",
"206 737 CURVE SMOOTH",
"73 737 OFFCURVE",
"27 654 OFFCURVE",
"32 531 CURVE",
"126 531 LINE",
"125 583 OFFCURVE",
"128 670 OFFCURVE",
"200 670 CURVE SMOOTH",
"253 670 OFFCURVE",
"275 616 OFFCURVE",
"275 572 CURVE SMOOTH",
"275 442 OFFCURVE",
"154 384 OFFCURVE",
"154 297 CURVE SMOOTH",
"154 183 LINE"
);
},
{
closed = 1;
nodes = (
"242 104 LINE",
"148 104 LINE",
"148 0 LINE",
"242 0 LINE"
);
}
);
};
components = (
{
name = period;
transform = "{1, 0, 0, 1, 86, 0}";
}
);
layerId = m01;
paths = (
{
closed = 1;
nodes = (
"227 180 LINE",
"227 226 LINE SMOOTH",
"227 290 OFFCURVE",
"240 326 OFFCURVE",
"289 383 CURVE SMOOTH",
"344 447 OFFCURVE",
"360 486 OFFCURVE",
"360 561 CURVE SMOOTH",
"360 679 OFFCURVE",
"307 738 OFFCURVE",
"202 738 CURVE SMOOTH",
"55 738 OFFCURVE",
"45 628 OFFCURVE",
"45 535 CURVE",
"121 535 LINE",
"121 649 OFFCURVE",
"146 675 OFFCURVE",
"198 675 CURVE SMOOTH",
"257 675 OFFCURVE",
"284 641 OFFCURVE",
"284 567 CURVE SMOOTH",
"284 503 OFFCURVE",
"270 469 OFFCURVE",
"218 411 CURVE SMOOTH",
"166 353 OFFCURVE",
"151 317 OFFCURVE",
"151 249 CURVE SMOOTH",
"151 180 LINE"
);
}
);
vertWidth = 1200;
width = 405;
}
);
note = question;
unicode = 003F;
},
{
glyphname = periodcentered;
lastChange = "2025-02-15 08:54:04 +0000";
layers = (
{
background = {
paths = (
{
closed = 1;
nodes = (
"162 235 LINE",
"162 327 LINE",
"70 327 LINE",
"70 235 LINE"
);
}
);
};
components = (
{
name = period;
transform = "{1, 0, 0, 1, 10, 235}";
}
);
layerId = m01;
vertWidth = 1200;
width = 242;
}
);
leftMetricsKey = exclam;
note = periodcentered;
rightMetricsKey = exclam;
unicode = 00B7;
},
{
glyphname = bullet;
lastChange = "2025-02-15 08:54:04 +0000";
layers = (
{
layerId = m01;
paths = (
{
closed = 1;
nodes = (
"223 325 OFFCURVE",
"265 367 OFFCURVE",
"265 420 CURVE SMOOTH",
"265 473 OFFCURVE",
"223 515 OFFCURVE",
"170 515 CURVE SMOOTH",
"117 515 OFFCURVE",
"75 473 OFFCURVE",
"75 420 CURVE SMOOTH",
"75 367 OFFCURVE",
"117 325 OFFCURVE",
"170 325 CURVE SMOOTH"
);
}
);
vertWidth = 1200;
width = 340;
}
);
leftMetricsKey = exclam;
note = bullet;
rightMetricsKey = exclam;
unicode = 2022;
},
{
glyphname = asterisk;
lastChange = "2025-02-15 08:54:04 +0000";
layers = (
{
layerId = m01;
paths = (
{
closed = 1;
nodes = (
"144 573 LINE",
"134 419 LINE",
"192 419 LINE",
"182 573 LINE",
"192 727 LINE",
"134 727 LINE"
);
},
{
closed = 1;
nodes = (
"153 557 LINE",
"282 471 LINE",
"311 521 LINE",
"172 589 LINE",
"44 675 LINE",
"15 625 LINE"
);
},
{
closed = 1;
nodes = (
"172 556 LINE",
"311 625 LINE",
"282 675 LINE",
"154 589 LINE",
"15 521 LINE",
"44 471 LINE"
);
}
);
vertWidth = 1200;
width = 326;
}
);
note = asterisk;
unicode = 002A;
},
{
glyphname = numbersign;
lastChange = "2025-02-15 08:54:04 +0000";
layers = (
{
background = {
paths = (
{
closed = 1;
nodes = (
"-4 0 LINE",
"58 0 LINE",
"229 727 LINE",
"167 727 LINE"
);
},
{
closed = 1;
nodes = (
"165 0 LINE",
"227 0 LINE",
"398 727 LINE",
"336 727 LINE"
);
},
{
closed = 1;
nodes = (
"31 460 LINE",
"425 460 LINE",
"425 515 LINE",
"31 515 LINE"
);
},
{
closed = 1;
nodes = (
"-32 212 LINE",
"362 212 LINE",
"362 267 LINE",
"-32 267 LINE"
);
}
);
};
layerId = m01;
paths = (
{
closed = 1;
nodes = (
"68 0 LINE",
"130 0 LINE",
"301 727 LINE",
"239 727 LINE"
);
},
{
closed = 1;
nodes = (
"247 0 LINE",
"309 0 LINE",
"480 727 LINE",
"418 727 LINE"
);
},
{
closed = 1;
nodes = (
"103 460 LINE",
"507 460 LINE",
"521 515 LINE",
"117 515 LINE"
);
},
{
closed = 1;
nodes = (
"40 212 LINE",
"444 212 LINE",
"458 267 LINE",
"54 267 LINE"
);
}
);
vertWidth = 1200;
width = 561;
}
);
note = numbersign;
unicode = 0023;
},
{
glyphname = slash;
lastChange = "2025-02-15 08:54:04 +0000";
layers = (
{
layerId = m01;
paths = (
{
closed = 1;
nodes = (
"110 -40 LINE",
"315 767 LINE",
"251 767 LINE",
"45 -40 LINE"
);
}
);
vertWidth = 1200;
width = 360;
}
);
note = slash;
unicode = 002F;
},
{
glyphname = parenleft;
lastChange = "2025-02-15 08:54:04 +0000";
layers = (
{
layerId = m01;
paths = (
{
closed = 1;
nodes = (
"205 -132 LINE",
"163 54 OFFCURVE",
"143 189 OFFCURVE",
"143 312 CURVE SMOOTH",
"143 447 OFFCURVE",
"159 568 OFFCURVE",
"205 757 CURVE",
"148 757 LINE",
"93 561 OFFCURVE",
"67 415 OFFCURVE",
"67 312 CURVE SMOOTH",
"67 201 OFFCURVE",
"95 52 OFFCURVE",
"148 -132 CURVE"
);
}
);
vertWidth = 1200;
width = 255;
}
);
note = parenleft;
unicode = 0028;
},
{
glyphname = braceleft;
lastChange = "2025-02-15 08:54:04 +0000";
layers = (
{
layerId = m01;
paths = (
{
closed = 1;
nodes = (
"298 -84 LINE",
"192 -80 OFFCURVE",
"178 -57 OFFCURVE",
"178 47 CURVE SMOOTH",
"178 97 LINE SMOOTH",
"178 222 OFFCURVE",
"154 279 OFFCURVE",
"82 333 CURVE",
"151 385 OFFCURVE",
"178 446 OFFCURVE",
"178 559 CURVE SMOOTH",
"178 612 LINE SMOOTH",
"178 715 OFFCURVE",
"201 750 OFFCURVE",
"298 750 CURVE",
"298 807 LINE",
"143 807 OFFCURVE",
"107 739 OFFCURVE",
"107 606 CURVE SMOOTH",
"107 558 LINE SMOOTH",
"107 431 OFFCURVE",
"88 393 OFFCURVE",
"10 367 CURVE",
"10 299 LINE",
"89 269 OFFCURVE",
"107 233 OFFCURVE",
"107 99 CURVE SMOOTH",
"107 52 LINE SMOOTH",
"107 -77 OFFCURVE",
"141 -141 OFFCURVE",
"298 -141 CURVE"
);
}
);
vertWidth = 1200;
width = 308;
}
);
note = braceleft;
unicode = 007B;
},
{
glyphname = bracketleft;
lastChange = "2025-02-15 08:54:04 +0000";
layers = (
{
layerId = m01;
paths = (
{
closed = 1;
nodes = (
"217 -142 LINE",
"217 -73 LINE",
"146 -73 LINE",
"146 750 LINE",
"217 750 LINE",
"217 818 LINE",
"70 818 LINE",
"70 -142 LINE"
);
}
);
vertWidth = 1200;
width = 256;
}
);
note = bracketleft;
unicode = 005B;
},
{
glyphname = hyphen;
lastChange = "2025-02-15 08:54:04 +0000";
layers = (
{
layerId = m01;
paths = (
{
closed = 1;
nodes = (
"298 250 LINE",
"298 327 LINE",
"75 327 LINE",
"75 250 LINE"
);
}
);
vertWidth = 1200;
width = 373;
}
);
note = hyphen;
unicode = 002D;
},
{
glyphname = endash;
lastChange = "2025-02-15 08:54:04 +0000";
layers = (
{
layerId = m01;
paths = (
{
closed = 1;
nodes = (
"510 250 LINE",
"510 327 LINE",
"75 327 LINE",
"75 250 LINE"
);
}
);
vertWidth = 1200;
width = 585;
}
);
leftMetricsKey = hyphen;
note = endash;
rightMetricsKey = hyphen;
unicode = 2013;
},
{
glyphname = emdash;
lastChange = "2025-02-15 08:54:04 +0000";
layers = (
{
layerId = m01;
paths = (
{
closed = 1;
nodes = (
"682 250 LINE",
"682 327 LINE",
"75 327 LINE",
"75 250 LINE"
);
}
);
vertWidth = 1200;
width = 757;
}
);
leftMetricsKey = hyphen;
note = emdash;
rightMetricsKey = hyphen;
unicode = 2014;
},
{
glyphname = underscore;
lastChange = "2025-02-15 08:54:04 +0000";
layers = (
{
layerId = m01;
paths = (
{
closed = 1;
nodes = (
"544 -77 LINE",
"544 0 LINE",
"15 0 LINE",
"15 -77 LINE"
);
}
);
vertWidth = 1200;
width = 559;
}
);
note = underscore;
unicode = 005F;
},
{
glyphname = quotesinglbase;
lastChange = "2025-02-15 08:54:04 +0000";
layers = (
{
layerId = m01;
paths = (
{
closed = 1;
nodes = (
"90 -77 LINE",
"185 105 LINE",
"87 105 LINE",
"30 -77 LINE"
);
}
);
vertWidth = 1200;
width = 225;
}
);
leftMetricsKey = quoteright;
note = quotesinglbase;
rightKerningGroup = comma;
rightMetricsKey = quoteright;
unicode = 201A;
},
{
glyphname = quotedblbase;
lastChange = "2025-02-15 08:54:04 +0000";
layers = (
{
background = {
paths = (
{
closed = 1;
nodes = (
"241 -77 LINE",
"335 105 LINE",
"236 105 LINE",
"179 -77 LINE"
);
},
{
closed = 1;
nodes = (
"89 -77 LINE",
"184 105 LINE",
"86 105 LINE",
"29 -77 LINE"
);
}
);
};
layerId = m01;
paths = (
{
closed = 1;
nodes = (
"90 -77 LINE",
"185 105 LINE",
"87 105 LINE",
"30 -77 LINE"
);
},
{
closed = 1;
nodes = (
"240 -77 LINE",
"335 105 LINE",
"237 105 LINE",
"180 -77 LINE"
);
}
);
vertWidth = 1200;
width = 375;
}
);
leftMetricsKey = quoteright;
note = quotedblbase;
rightKerningGroup = comma;
rightMetricsKey = quoteright;
unicode = 201E;
},
{
glyphname = quotedblleft;
lastChange = "2025-02-15 08:54:04 +0000";
layers = (
{
layerId = m01;
paths = (
{
closed = 1;
nodes = (
"139 545 LINE",
"196 727 LINE",
"136 727 LINE",
"40 545 LINE"
);
},
{
closed = 1;
nodes = (
"289 545 LINE",
"346 727 LINE",
"286 727 LINE",
"191 545 LINE"
);
}
);
vertWidth = 1200;
width = 376;
}
);
leftKerningGroup = quote;
leftMetricsKey = "=quoteright|";
note = quotedblleft;
rightKerningGroup = quote;
rightMetricsKey = "=|quoteright";
unicode = 201C;
},
{
glyphname = quotedblright;
lastChange = "2025-02-15 08:54:04 +0000";
layers = (
{
layerId = m01;
paths = (
{
closed = 1;
nodes = (
"241 545 LINE",
"336 727 LINE",
"237 727 LINE",
"180 545 LINE"
);
},
{
closed = 1;
nodes = (
"90 545 LINE",
"185 727 LINE",
"87 727 LINE",
"30 545 LINE"
);
}
);
vertWidth = 1200;
width = 376;
}
);
leftKerningGroup = quote;
leftMetricsKey = quoteright;
note = quotedblright;
rightKerningGroup = quote;
rightMetricsKey = quoteright;
unicode = 201D;
},
{
glyphname = quoteleft;
lastChange = "2025-02-15 08:54:04 +0000";
layers = (
{
hints = (
{
place = "{42, 156}";
type = Stem;
}
);
layerId = m01;
paths = (
{
closed = 1;
nodes = (
"138 545 LINE",
"196 727 LINE",
"135 727 LINE",
"40 545 LINE"
);
}
);
vertWidth = 1200;
width = 226;
}
);
leftKerningGroup = quote;
leftMetricsKey = "=quoteright|";
note = quoteleft;
rightKerningGroup = quote;
rightMetricsKey = "=|quoteright";
unicode = 2018;
},
{
glyphname = quoteright;
lastChange = "2025-02-15 08:54:04 +0000";
layers = (
{
layerId = m01;
paths = (
{
closed = 1;
nodes = (
"90 545 LINE",
"186 727 LINE",
"87 727 LINE",
"30 545 LINE"
);
}
);
vertWidth = 1200;
width = 226;
}
);
leftKerningGroup = quote;
note = quoteright;
rightKerningGroup = quote;
unicode = 2019;
},
{
glyphname = guillemetleft;
lastChange = "2025-02-15 08:54:04 +0000";
layers = (
{
background = {
paths = (
{
closed = 1;
nodes = (
"121 77 LINE",
"199 77 LINE",
"121 270 LINE",
"200 466 LINE",
"124 466 LINE",
"31 270 LINE"
);
},
{
closed = 1;
nodes = (
"293 77 LINE",
"371 77 LINE",
"293 270 LINE",
"372 466 LINE",
"296 466 LINE",
"203 270 LINE"
);
}
);
};
layerId = m01;
paths = (
{
closed = 1;
nodes = (
"123 266 LINE",
"201 430 LINE",
"140 430 LINE",
"45 266 LINE"
);
},
{
closed = 1;
nodes = (
"140 102 LINE",
"201 102 LINE",
"123 266 LINE",
"45 266 LINE"
);
},
{
closed = 1;
nodes = (
"302 266 LINE",
"380 430 LINE",
"319 430 LINE",
"224 266 LINE"
);
},
{
closed = 1;
nodes = (
"319 102 LINE",
"380 102 LINE",
"302 266 LINE",
"224 266 LINE"
);
}
);
vertWidth = 1200;
width = 425;
}
);
leftMetricsKey = o;
note = guillemotleft;
rightMetricsKey = o;
unicode = 00AB;
},
{
glyphname = guilsinglleft;
lastChange = "2025-02-15 08:54:04 +0000";
layers = (
{
layerId = m01;
paths = (
{
closed = 1;
nodes = (
"123 266 LINE",
"201 430 LINE",
"140 430 LINE",
"45 266 LINE"
);
},
{
closed = 1;
nodes = (
"140 102 LINE",
"201 102 LINE",
"123 266 LINE",
"45 266 LINE"
);
}
);
width = 246;
}
);
leftMetricsKey = o;
rightMetricsKey = o;
unicode = 2039;
},
{
glyphname = quotesingle;
lastChange = "2025-02-15 08:54:04 +0000";
layers = (
{
background = {
paths = (
{
closed = 1;
nodes = (
"110 451 LINE",
"127 727 LINE",
"41 727 LINE",
"58 451 LINE"
);
}
);
};
layerId = m01;
paths = (
{
closed = 1;
nodes = (
"98 545 LINE",
"134 727 LINE",
"45 727 LINE",
"45 545 LINE"
);
}
);
vertWidth = 1200;
width = 179;
}
);
leftKerningGroup = quote;
leftMetricsKey = o;
note = quotesingle;
rightKerningGroup = quote;
rightMetricsKey = o;
unicode = 0027;
},
{
glyphname = asterisk_S.liga;
lastChange = "2025-02-15 08:54:04 +0000";
layers = (
{
anchors = (
{
name = arrowDown;
position = "{222, 371}";
},
{
name = arrowUp;
position = "{222, 371}";
}
);
layerId = m01;
paths = (
{
closed = 1;
nodes = (
"384 518 LINE",
"280 518 LINE",
"280 513 LINE SMOOTH",
"280 470 OFFCURVE",
"260 428 OFFCURVE",
"222 390 CURVE",
"184 428 OFFCURVE",
"164 470 OFFCURVE",
"164 513 CURVE SMOOTH",
"164 518 LINE",
"60 518 LINE",
"60 413 LINE",
"66 413 LINE SMOOTH",
"105 413 OFFCURVE",
"156 395 OFFCURVE",
"193 371 CURVE",
"151 341 OFFCURVE",
"109 327 OFFCURVE",
"66 327 CURVE SMOOTH",
"60 327 LINE",
"60 222 LINE",
"164 222 LINE",
"164 227 LINE SMOOTH",
"164 270 OFFCURVE",
"184 312 OFFCURVE",
"222 350 CURVE",
"260 312 OFFCURVE",
"280 270 OFFCURVE",
"280 227 CURVE SMOOTH",
"280 222 LINE",
"384 222 LINE",
"384 327 LINE",
"378 327 LINE SMOOTH",
"330 327 OFFCURVE",
"288 344 OFFCURVE",
"251 371 CURVE",
"292 399 OFFCURVE",
"331 413 OFFCURVE",
"368 413 CURVE SMOOTH",
"384 413 LINE"
);
}
);
width = 444;
}
);
unicode = E263;
},
{
glyphname = asterisk_f.liga;
lastChange = "2025-02-15 08:54:04 +0000";
layers = (
{
anchors = (
{
name = arrowDown;
position = "{71, 371}";
},
{
name = arrowUp;
position = "{71, 371}";
}
);
layerId = m01;
paths = (
{
closed = 1;
nodes = (
"92 329 LINE SMOOTH",
"92 393 OFFCURVE",
"143 432 OFFCURVE",
"187 432 CURVE SMOOTH",
"224 432 OFFCURVE",
"246 407 OFFCURVE",
"246 370 CURVE SMOOTH",
"246 317 OFFCURVE",
"202 242 OFFCURVE",
"92 174 CURVE"
);
},
{
closed = 1;
nodes = (
"50 107 LINE",
"61 107 LINE",
"279 242 OFFCURVE",
"342 276 OFFCURVE",
"342 376 CURVE SMOOTH",
"342 447 OFFCURVE",
"285 487 OFFCURVE",
"220 487 CURVE SMOOTH",
"176 487 OFFCURVE",
"128 468 OFFCURVE",
"92 428 CURVE",
"92 742 LINE",
"50 742 LINE"
);
}
);
width = 392;
}
);
unicode = E260;
},
{
glyphname = asterisk_n.liga;
lastChange = "2025-02-15 08:54:04 +0000";
layers = (
{
anchors = (
{
name = arrowDown;
position = "{257, 371}";
},
{
name = arrowUp;
position = "{71, 371}";
}
);
layerId = m01;
paths = (
{
closed = 1;
nodes = (
"92 430 LINE",
"236 477 LINE",
"236 312 LINE",
"92 265 LINE"
);
},
{
closed = 1;
nodes = (
"278 585 LINE",
"92 529 LINE",
"92 742 LINE",
"50 742 LINE",
"50 157 LINE",
"236 213 LINE",
"236 0 LINE",
"278 0 LINE"
);
}
);
width = 328;
}
);
unicode = E261;
},
{
glyphname = asterisk_o_one_one.liga;
lastChange = "2025-02-15 08:54:04 +0000";
layers = (
{
anchors = (
{
name = arrowUp;
position = "{185, 371}";
}
);
layerId = m01;
paths = (
{
closed = 1;
nodes = (
"322 387 LINE",
"322 496 LINE",
"50 355 LINE",
"50 246 LINE"
);
},
{
closed = 1;
nodes = (
"206 15 LINE",
"206 727 LINE",
"164 727 LINE",
"164 15 LINE"
);
}
);
width = 372;
}
);
unicode = E2E3;
},
{
glyphname = asterisk_o_one_three.liga;
lastChange = "2025-02-15 08:54:04 +0000";
layers = (
{
layerId = m01;
paths = (
{
closed = 1;
nodes = (
"365 107 LINE",
"365 697 LINE",
"323 697 LINE",
"323 428 LINE",
"285 478 OFFCURVE",
"231 487 OFFCURVE",
"187 487 CURVE SMOOTH",
"122 487 OFFCURVE",
"50 447 OFFCURVE",
"50 376 CURVE SMOOTH",
"50 276 OFFCURVE",
"136 242 OFFCURVE",
"354 107 CURVE"
);
},
{
closed = 1;
nodes = (
"213 242 OFFCURVE",
"141 317 OFFCURVE",
"141 370 CURVE SMOOTH",
"141 412 OFFCURVE",
"183 433 OFFCURVE",
"219 433 CURVE SMOOTH",
"271 433 OFFCURVE",
"323 403 OFFCURVE",
"323 329 CURVE SMOOTH",
"323 174 LINE"
);
},
{
closed = 1;
nodes = (
"221 207 LINE",
"263 207 LINE",
"263 742 LINE",
"221 742 LINE"
);
}
);
width = 415;
}
);
unicode = E2E4;
},
{
glyphname = asterisk_o_two_three.liga;
lastChange = "2025-02-15 08:54:04 +0000";
layers = (
{
components = (
{
name = _part.arrowUpOne;
transform = "{1, 0, 0, 1, 0, -92}";
}
);
layerId = m01;
paths = (
{
closed = 1;
nodes = (
"129 265 LINE",
"171 265 LINE",
"171 530 LINE",
"129 530 LINE"
);
}
);
width = 300;
}
);
unicode = E2EA;
},
{
glyphname = asterisk_o_two_nine.liga;
lastChange = "2025-02-15 08:54:04 +0000";
layers = (
{
layerId = m01;
paths = (
{
closed = 1;
nodes = (
"410 509 LINE",
"230 742 LINE",
"50 509 LINE"
);
},
{
closed = 1;
nodes = (
"189 229 LINE",
"189 581 LINE",
"147 581 LINE",
"147 229 LINE"
);
},
{
closed = 1;
nodes = (
"310 229 LINE",
"310 581 LINE",
"268 581 LINE",
"268 229 LINE"
);
}
);
width = 460;
}
);
unicode = EE51;
},
{
glyphname = asterisk_o_three_one.liga;
lastChange = "2025-02-15 08:54:04 +0000";
layers = (
{
background = {
paths = (
{
closed = 1;
nodes = (
"332 350 LINE SMOOTH",
"332 286 OFFCURVE",
"281 247 OFFCURVE",
"237 247 CURVE SMOOTH",
"200 247 OFFCURVE",
"178 272 OFFCURVE",
"178 309 CURVE SMOOTH",
"178 362 OFFCURVE",
"222 437 OFFCURVE",
"332 505 CURVE"
);
},
{
closed = 1;
nodes = (
"374 572 LINE",
"363 572 LINE",
"145 437 OFFCURVE",
"82 403 OFFCURVE",
"82 303 CURVE SMOOTH",
"82 232 OFFCURVE",
"139 192 OFFCURVE",
"204 192 CURVE SMOOTH",
"248 192 OFFCURVE",
"296 211 OFFCURVE",
"332 251 CURVE",
"332 -63 LINE",
"374 -63 LINE"
);
}
);
};
components = (
{
name = _part.thirtyOne;
transform = "{-1, 0, 0, 1, 424, 0}";
}
);
layerId = m01;
paths = (
{
closed = 1;
nodes = (
"332 -131 LINE",
"374 -131 LINE",
"374 529 LINE",
"332 529 LINE"
);
}
);
width = 424;
}
);
unicode = E2EC;
},
{
glyphname = asterisk_o_four_one.liga;
lastChange = "2025-02-15 08:54:04 +0000";
layers = (
{
layerId = m01;
paths = (
{
closed = 1;
nodes = (
"207 466 LINE",
"207 572 LINE",
"157 572 LINE",
"157 466 LINE",
"50 466 LINE",
"50 416 LINE",
"157 416 LINE",
"157 310 LINE",
"207 310 LINE",
"207 416 LINE",
"314 416 LINE",
"314 466 LINE"
);
}
);
width = 364;
}
);
unicode = EE55;
},
{
glyphname = asterisk_o_four_three.liga;
lastChange = "2025-02-15 08:54:04 +0000";
layers = (
{
layerId = m01;
paths = (
{
closed = 1;
nodes = (
"210 334 LINE",
"360 254 LINE",
"210 487 LINE",
"60 254 LINE"
);
}
);
width = 420;
}
);
unicode = EE57;
},
{
glyphname = asterisk_o_four_seven.liga;
lastChange = "2025-02-15 08:54:04 +0000";
layers = (
{
layerId = m01;
paths = (
{
closed = 1;
nodes = (
"50 227 LINE",
"240 227 LINE",
"240 327 LINE",
"50 327 LINE"
);
},
{
closed = 1;
nodes = (
"198 314 LINE",
"240 314 LINE",
"240 737 LINE",
"198 737 LINE"
);
}
);
width = 290;
}
);
unicode = EE58;
},
{
glyphname = asterisk_o_seven.liga;
lastChange = "2025-02-15 08:54:04 +0000";
layers = (
{
layerId = m01;
paths = (
{
closed = 1;
nodes = (
"50 237 LINE",
"290 326 LINE",
"290 473 LINE",
"50 384 LINE"
);
},
{
closed = 1;
nodes = (
"50 324 LINE",
"92 324 LINE",
"92 737 LINE",
"50 737 LINE"
);
}
);
width = 340;
}
);
unicode = E2DE;
},
{
glyphname = asterisk_q_f.liga;
lastChange = "2025-02-15 08:54:04 +0000";
layers = (
{
background = {
paths = (
{
closed = 1;
nodes = (
"214 613 LINE",
"214 695 LINE",
"10 589 LINE",
"10 507 LINE"
);
},
{
closed = 1;
nodes = (
"127 334 LINE",
"127 868 LINE",
"95 868 LINE",
"95 334 LINE"
);
}
);
};
components = (
{
name = asterisk_f.liga;
}
);
layerId = m01;
paths = (
{
closed = 1;
nodes = (
"184 613 LINE",
"184 695 LINE",
"-20 589 LINE",
"-20 507 LINE"
);
}
);
width = 392;
}
);
unicode = E442;
},
{
glyphname = asterisk_q_s.liga;
lastChange = "2025-02-15 08:54:04 +0000";
layers = (
{
layerId = m01;
paths = (
{
closed = 1;
nodes = (
"292 497 LINE",
"292 596 LINE",
"50 524 LINE",
"50 425 LINE"
);
},
{
closed = 1;
nodes = (
"292 217 LINE",
"292 316 LINE",
"50 244 LINE",
"50 145 LINE"
);
},
{
closed = 1;
nodes = (
"192 15 LINE",
"192 727 LINE",
"150 727 LINE",
"150 15 LINE"
);
}
);
width = 342;
}
);
unicode = E444;
},
{
glyphname = asterisk_s.liga;
lastChange = "2025-02-15 08:54:04 +0000";
layers = (
{
anchors = (
{
name = arrowUp;
position = "{131, 371}";
},
{
name = vicentino;
position = "{215, -83}";
}
);
components = (
{
locked = 1;
name = _part.sharpOtonal;
}
);
layerId = m01;
paths = (
{
closed = 1;
nodes = (
"110 1 LINE",
"152 1 LINE",
"152 95 LINE",
"110 95 LINE"
);
}
);
width = 410;
}
);
unicode = E262;
},
{
glyphname = asterisk_u_one_three.liga;
lastChange = "2025-02-15 08:54:04 +0000";
layers = (
{
layerId = m01;
paths = (
{
closed = 1;
nodes = (
"322 387 LINE",
"322 496 LINE",
"50 355 LINE",
"50 246 LINE"
);
},
{
closed = 1;
nodes = (
"152 0 LINE",
"152 697 LINE",
"110 697 LINE",
"110 0 LINE"
);
},
{
closed = 1;
nodes = (
"262 45 LINE",
"262 742 LINE",
"220 742 LINE",
"220 45 LINE"
);
}
);
width = 372;
}
);
unicode = E2E5;
},
{
glyphname = asterisk_u_one_nine.liga;
lastChange = "2025-02-15 08:54:04 +0000";
layers = (
{
layerId = m01;
paths = (
{
closed = 1;
nodes = (
"290 249 LINE",
"290 319 LINE",
"50 493 LINE",
"50 423 LINE"
);
}
);
width = 340;
}
);
unicode = E2E8;
},
{
glyphname = asterisk_u_three_one.liga;
lastChange = "2025-02-15 08:54:04 +0000";
layers = (
{
components = (
{
name = _part.thirtyOne;
}
);
layerId = m01;
paths = (
{
closed = 1;
nodes = (
"186 15 LINE",
"186 727 LINE",
"144 727 LINE",
"144 15 LINE"
);
}
);
width = 424;
}
);
unicode = E2ED;
},
{
glyphname = asterisk_u_three_seven.liga;
lastChange = "2025-02-15 08:54:04 +0000";
layers = (
{
background = {
paths = (
{
closed = 1;
nodes = (
"74 292 CURVE SMOOTH",
"112 238 OFFCURVE",
"181 210 OFFCURVE",
"181 174 CURVE SMOOTH",
"181 157 OFFCURVE",
"165 146 OFFCURVE",
"142 146 CURVE SMOOTH",
"113 146 OFFCURVE",
"97 167 OFFCURVE",
"75 167 CURVE SMOOTH",
"59 167 OFFCURVE",
"48 150 OFFCURVE",
"48 123 CURVE SMOOTH",
"48 87 OFFCURVE",
"63 75 OFFCURVE",
"107 75 CURVE SMOOTH",
"172 75 OFFCURVE",
"225 123 OFFCURVE",
"225 182 CURVE SMOOTH",
"225 259 OFFCURVE",
"146 286 OFFCURVE",
"146 370 CURVE SMOOTH",
"146 407 OFFCURVE",
"168 432 OFFCURVE",
"205 432 CURVE SMOOTH",
"249 432 OFFCURVE",
"300 393 OFFCURVE",
"300 329 CURVE SMOOTH",
"300 0 LINE",
"342 0 LINE",
"342 742 LINE",
"300 742 LINE",
"300 428 LINE",
"264 468 OFFCURVE",
"216 487 OFFCURVE",
"172 487 CURVE SMOOTH",
"107 487 OFFCURVE",
"50 447 OFFCURVE",
"50 376 CURVE SMOOTH",
"50 341 OFFCURVE",
"57 318 OFFCURVE"
);
}
);
};
layerId = m01;
paths = (
{
closed = 1;
nodes = (
"342 0 LINE",
"342 742 LINE",
"300 742 LINE",
"300 428 LINE",
"264 468 OFFCURVE",
"216 487 OFFCURVE",
"172 487 CURVE SMOOTH",
"107 487 OFFCURVE",
"50 447 OFFCURVE",
"50 376 CURVE SMOOTH",
"50 341 OFFCURVE",
"57 318 OFFCURVE",
"74 292 CURVE SMOOTH",
"112 238 OFFCURVE",
"181 210 OFFCURVE",
"181 174 CURVE SMOOTH",
"181 157 OFFCURVE",
"165 146 OFFCURVE",
"142 146 CURVE SMOOTH",
"113 146 OFFCURVE",
"89 157 OFFCURVE",
"67 166 CURVE",
"67 82 LINE",
"88 76 OFFCURVE",
"106 73 OFFCURVE",
"122 73 CURVE SMOOTH",
"197 73 OFFCURVE",
"225 133 OFFCURVE",
"225 182 CURVE SMOOTH",
"225 259 OFFCURVE",
"146 286 OFFCURVE",
"146 370 CURVE SMOOTH",
"146 407 OFFCURVE",
"168 432 OFFCURVE",
"205 432 CURVE SMOOTH",
"249 432 OFFCURVE",
"300 393 OFFCURVE",
"300 329 CURVE SMOOTH",
"300 0 LINE"
);
}
);
width = 392;
}
);
unicode = EE52;
},
{
glyphname = asterisk_u_four_one.liga;
lastChange = "2025-02-15 08:54:04 +0000";
layers = (
{
layerId = m01;
paths = (
{
closed = 1;
nodes = (
"50 326 LINE",
"50 276 LINE",
"314 276 LINE",
"314 326 LINE"
);
}
);
width = 364;
}
);
unicode = EE54;
},
{
glyphname = .notdef;
lastChange = "2025-02-15 08:54:04 +0000";
layers = (
{
layerId = m01;
paths = (
{
closed = 1;
nodes = (
"225 0 LINE",
"225 727 LINE",
"40 727 LINE",
"40 0 LINE"
);
},
{
closed = 1;
nodes = (
"80 687 LINE",
"185 687 LINE",
"185 40 LINE",
"80 40 LINE"
);
}
);
vertWidth = 1200;
width = 265;
}
);
note = .notdef;
unicode = "0309,0313,0314,2015,2016,2017,201B,201F,2023,2024,2025,2031,2213,2214,2262,2263";
},
{
glyphname = at;
lastChange = "2025-02-15 08:54:04 +0000";
layers = (
{
layerId = m01;
paths = (
{
closed = 1;
nodes = (
"457 -119 OFFCURVE",
"494 -110 OFFCURVE",
"533 -98 CURVE",
"533 -30 LINE",
"501 -47 OFFCURVE",
"465 -62 OFFCURVE",
"391 -62 CURVE SMOOTH",
"232 -62 OFFCURVE",
"127 58 OFFCURVE",
"127 308 CURVE SMOOTH",
"127 558 OFFCURVE",
"232 679 OFFCURVE",
"391 679 CURVE SMOOTH",
"568 679 OFFCURVE",
"654 581 OFFCURVE",
"654 327 CURVE SMOOTH",
"654 205 OFFCURVE",
"626 129 OFFCURVE",
"580 129 CURVE SMOOTH",
"554 129 OFFCURVE",
"527 142 OFFCURVE",
"527 204 CURVE SMOOTH",
"527 514 LINE",
"454 514 LINE",
"454 469 LINE",
"436 498 OFFCURVE",
"406 521 OFFCURVE",
"360 521 CURVE SMOOTH",
"282 521 OFFCURVE",
"244 469 OFFCURVE",
"244 364 CURVE SMOOTH",
"244 220 LINE SMOOTH",
"244 117 OFFCURVE",
"282 70 OFFCURVE",
"360 70 CURVE SMOOTH",
"424 70 OFFCURVE",
"459 97 OFFCURVE",
"475 157 CURVE",
"482 96 OFFCURVE",
"516 71 OFFCURVE",
"574 71 CURVE SMOOTH",
"675 71 OFFCURVE",
"721 156 OFFCURVE",
"721 330 CURVE SMOOTH",
"721 613 OFFCURVE",
"622 736 OFFCURVE",
"391 736 CURVE SMOOTH",
"189 736 OFFCURVE",
"60 601 OFFCURVE",
"60 309 CURVE SMOOTH",
"60 17 OFFCURVE",
"189 -119 OFFCURVE",
"391 -119 CURVE SMOOTH"
);
},
{
closed = 1;
nodes = (
"339 134 OFFCURVE",
"317 163 OFFCURVE",
"317 220 CURVE SMOOTH",
"317 371 LINE SMOOTH",
"317 428 OFFCURVE",
"339 457 OFFCURVE",
"385 457 CURVE SMOOTH",
"423 457 OFFCURVE",
"449 424 OFFCURVE",
"449 371 CURVE SMOOTH",
"449 220 LINE SMOOTH",
"449 167 OFFCURVE",
"423 134 OFFCURVE",
"385 134 CURVE SMOOTH"
);
}
);
vertWidth = 1200;
width = 781;
}
);
leftMetricsKey = O;
note = at;
rightMetricsKey = O;
unicode = 0040;
},
{
glyphname = ampersand;
lastChange = "2025-02-15 08:54:04 +0000";
layers = (
{
layerId = m01;
paths = (
{
closed = 1;
nodes = (
"201 414 LINE SMOOTH",
"141 500 OFFCURVE",
"119 544 OFFCURVE",
"119 594 CURVE SMOOTH",
"119 677 OFFCURVE",
"182 737 OFFCURVE",
"274 737 CURVE SMOOTH",
"369 737 OFFCURVE",
"427 682 OFFCURVE",
"427 594 CURVE SMOOTH",
"427 392 OFFCURVE",
"136 380 OFFCURVE",
"136 214 CURVE SMOOTH",
"136 134 OFFCURVE",
"184 57 OFFCURVE",
"270 57 CURVE SMOOTH",
"409 57 OFFCURVE",
"473 219 OFFCURVE",
"455 377 CURVE",
"520 377 LINE",
"543 181 OFFCURVE",
"451 -10 OFFCURVE",
"272 -10 CURVE SMOOTH",
"122 -10 OFFCURVE",
"60 92 OFFCURVE",
"60 196 CURVE SMOOTH",
"60 426 OFFCURVE",
"351 431 OFFCURVE",
"351 595 CURVE SMOOTH",
"351 633 OFFCURVE",
"329 670 OFFCURVE",
"274 670 CURVE SMOOTH",
"219 670 OFFCURVE",
"195 633 OFFCURVE",
"195 597 CURVE SMOOTH",
"195 531 OFFCURVE",
"252 470 OFFCURVE",
"267 448 CURVE SMOOTH",
"574 0 LINE",
"488 0 LINE"
);
}
);
vertWidth = 1200;
width = 634;
}
);
leftMetricsKey = O;
note = ampersand;
rightMetricsKey = O;
unicode = 0026;
},
{
glyphname = paragraph;
lastChange = "2025-02-15 08:54:04 +0000";
layers = (
{
layerId = m01;
paths = (
{
closed = 1;
nodes = (
"279 0 LINE",
"279 656 LINE",
"352 656 LINE",
"352 0 LINE",
"428 0 LINE",
"428 727 LINE",
"246 727 LINE SMOOTH",
"120 727 OFFCURVE",
"45 659 OFFCURVE",
"45 523 CURVE SMOOTH",
"45 401 OFFCURVE",
"107 336 OFFCURVE",
"203 325 CURVE",
"203 0 LINE"
);
}
);
vertWidth = 1000;
width = 503;
}
);
leftMetricsKey = o;
note = paragraph;
rightMetricsKey = N;
unicode = 00B6;
},
{
glyphname = section;
lastChange = "2025-02-15 08:54:04 +0000";
layers = (
{
layerId = m01;
paths = (
{
closed = 1;
nodes = (
"246 495 LINE",
"155 495 OFFCURVE",
"87 465 OFFCURVE",
"87 384 CURVE SMOOTH",
"87 218 OFFCURVE",
"335 254 OFFCURVE",
"335 113 CURVE SMOOTH",
"335 68 OFFCURVE",
"291 45 OFFCURVE",
"247 45 CURVE SMOOTH",
"185 45 OFFCURVE",
"152 76 OFFCURVE",
"154 156 CURVE",
"75 156 LINE",
"75 135 LINE SMOOTH",
"75 40 OFFCURVE",
"142 -10 OFFCURVE",
"246 -10 CURVE SMOOTH",
"339 -10 OFFCURVE",
"411 42 OFFCURVE",
"411 126 CURVE SMOOTH",
"411 314 OFFCURVE",
"163 274 OFFCURVE",
"163 397 CURVE SMOOTH",
"163 436 OFFCURVE",
"207 460 OFFCURVE",
"246 460 CURVE SMOOTH",
"254 460 OFFCURVE",
"261 459 OFFCURVE",
"268 458 CURVE"
);
},
{
closed = 1;
nodes = (
"379 261 OFFCURVE",
"411 292 OFFCURVE",
"411 348 CURVE SMOOTH",
"411 536 OFFCURVE",
"163 496 OFFCURVE",
"163 619 CURVE SMOOTH",
"163 658 OFFCURVE",
"207 682 OFFCURVE",
"246 682 CURVE SMOOTH",
"306 682 OFFCURVE",
"338 652 OFFCURVE",
"335 578 CURVE",
"408 578 LINE",
"409 590 OFFCURVE",
"410 600 OFFCURVE",
"410 609 CURVE SMOOTH",
"410 691 OFFCURVE",
"345 737 OFFCURVE",
"246 737 CURVE SMOOTH",
"155 737 OFFCURVE",
"87 687 OFFCURVE",
"87 606 CURVE SMOOTH",
"87 440 OFFCURVE",
"335 476 OFFCURVE",
"335 335 CURVE SMOOTH",
"335 304 OFFCURVE",
"314 283 OFFCURVE",
"286 273 CURVE",
"331 249 LINE"
);
},
{
closed = 1;
nodes = (
"157 480 LINE",
"171 480 LINE",
"171 491 LINE",
"157 491 LINE"
);
},
{
closed = 1;
nodes = (
"340 246 LINE",
"354 246 LINE",
"354 257 LINE",
"340 257 LINE"
);
}
);
vertWidth = 1200;
width = 486;
}
);
leftMetricsKey = H;
note = section;
rightMetricsKey = H;
unicode = 00A7;
},
{
glyphname = copyright;
lastChange = "2025-02-15 08:54:04 +0000";
layers = (
{
layerId = m01;
paths = (
{
closed = 1;
nodes = (
"639 -10 OFFCURVE",
"807 157 OFFCURVE",
"807 363 CURVE SMOOTH",
"807 569 OFFCURVE",
"639 737 OFFCURVE",
"433 737 CURVE SMOOTH",
"227 737 OFFCURVE",
"60 569 OFFCURVE",
"60 363 CURVE SMOOTH",
"60 157 OFFCURVE",
"227 -10 OFFCURVE",
"433 -10 CURVE SMOOTH"
);
},
{
closed = 1;
nodes = (
"258 47 OFFCURVE",
"117 189 OFFCURVE",
"117 363 CURVE SMOOTH",
"117 538 OFFCURVE",
"258 680 OFFCURVE",
"433 680 CURVE SMOOTH",
"608 680 OFFCURVE",
"750 538 OFFCURVE",
"750 363 CURVE SMOOTH",
"750 189 OFFCURVE",
"608 47 OFFCURVE",
"433 47 CURVE SMOOTH"
);
},
{
closed = 1;
nodes = (
"508 231 OFFCURVE",
"482 197 OFFCURVE",
"431 197 CURVE SMOOTH",
"372 197 OFFCURVE",
"347 244 OFFCURVE",
"347 320 CURVE SMOOTH",
"347 421 LINE SMOOTH",
"347 498 OFFCURVE",
"374 548 OFFCURVE",
"433 548 CURVE SMOOTH",
"483 548 OFFCURVE",
"499 513 OFFCURVE",
"506 455 CURVE",
"570 455 LINE",
"561 544 OFFCURVE",
"524 595 OFFCURVE",
"433 595 CURVE SMOOTH",
"332 595 OFFCURVE",
"283 531 OFFCURVE",
"283 421 CURVE SMOOTH",
"283 321 LINE SMOOTH",
"283 211 OFFCURVE",
"329 150 OFFCURVE",
"431 150 CURVE SMOOTH",
"522 150 OFFCURVE",
"570 199 OFFCURVE",
"578 289 CURVE",
"514 289 LINE"
);
}
);
vertWidth = 1200;
width = 867;
}
);
leftMetricsKey = O;
note = copyright;
rightMetricsKey = O;
unicode = 00A9;
},
{
glyphname = registered;
lastChange = "2025-02-15 08:54:04 +0000";
layers = (
{
layerId = m01;
paths = (
{
closed = 1;
nodes = (
"639 -10 OFFCURVE",
"807 157 OFFCURVE",
"807 363 CURVE SMOOTH",
"807 569 OFFCURVE",
"639 737 OFFCURVE",
"433 737 CURVE SMOOTH",
"227 737 OFFCURVE",
"60 569 OFFCURVE",
"60 363 CURVE SMOOTH",
"60 157 OFFCURVE",
"227 -10 OFFCURVE",
"433 -10 CURVE SMOOTH"
);
},
{
closed = 1;
nodes = (
"258 47 OFFCURVE",
"117 189 OFFCURVE",
"117 363 CURVE SMOOTH",
"117 538 OFFCURVE",
"258 680 OFFCURVE",
"433 680 CURVE SMOOTH",
"608 680 OFFCURVE",
"750 538 OFFCURVE",
"750 363 CURVE SMOOTH",
"750 189 OFFCURVE",
"608 47 OFFCURVE",
"433 47 CURVE SMOOTH"
);
},
{
closed = 1;
nodes = (
"405 342 LINE",
"456 342 OFFCURVE",
"479 333 OFFCURVE",
"487 310 CURVE SMOOTH",
"491 294 OFFCURVE",
"494 276 OFFCURVE",
"497 230 CURVE SMOOTH",
"500 175 OFFCURVE",
"502 155 OFFCURVE",
"509 139 CURVE",
"578 139 LINE",
"567 165 OFFCURVE",
"563 182 OFFCURVE",
"562 218 CURVE SMOOTH",
"559 336 OFFCURVE",
"534 355 OFFCURVE",
"478 367 CURVE"
);
},
{
closed = 1;
nodes = (
"364 139 LINE",
"364 365 LINE",
"434 365 LINE SMOOTH",
"501 365 OFFCURVE",
"569 376 OFFCURVE",
"569 457 CURVE SMOOTH",
"569 540 OFFCURVE",
"512 581 OFFCURVE",
"435 581 CURVE SMOOTH",
"300 581 LINE",
"300 139 LINE"
);
},
{
closed = 1;
nodes = (
"364 534 LINE",
"421 534 LINE SMOOTH",
"479 534 OFFCURVE",
"505 517 OFFCURVE",
"505 460 CURVE SMOOTH",
"505 404 OFFCURVE",
"480 389 OFFCURVE",
"421 389 CURVE SMOOTH",
"364 389 LINE"
);
},
{
closed = 1;
nodes = (
"360 342 LINE",
"484 342 LINE",
"484 371 LINE",
"360 371 LINE"
);
}
);
vertWidth = 1200;
width = 867;
}
);
leftMetricsKey = O;
note = registered;
rightMetricsKey = O;
unicode = 00AE;
},
{
glyphname = degree;
lastChange = "2025-02-15 08:54:04 +0000";
layers = (
{
hints = (
{
horizontal = 1;
place = "{685, 63}";
type = Stem;
},
{
horizontal = 1;
place = "{435, 64}";
type = Stem;
},
{
place = "{334, 63}";
type = Stem;
},
{
place = "{88, 63}";
type = Stem;
}
);
layerId = m01;
paths = (
{
closed = 1;
nodes = (
"300 435 OFFCURVE",
"369 505 OFFCURVE",
"369 593 CURVE SMOOTH",
"369 678 OFFCURVE",
"301 748 OFFCURVE",
"217 748 CURVE SMOOTH",
"129 748 OFFCURVE",
"60 680 OFFCURVE",
"60 594 CURVE SMOOTH",
"60 504 OFFCURVE",
"127 435 OFFCURVE",
"214 435 CURVE SMOOTH"
);
},
{
closed = 1;
nodes = (
"162 499 OFFCURVE",
"123 539 OFFCURVE",
"123 593 CURVE SMOOTH",
"123 645 OFFCURVE",
"163 685 OFFCURVE",
"216 685 CURVE SMOOTH",
"264 685 OFFCURVE",
"306 641 OFFCURVE",
"306 591 CURVE SMOOTH",
"306 538 OFFCURVE",
"266 499 OFFCURVE",
"214 499 CURVE SMOOTH"
);
}
);
vertWidth = 1200;
width = 429;
}
);
leftMetricsKey = O;
note = degree;
rightMetricsKey = O;
unicode = 00B0;
},
{
glyphname = bar;
lastChange = "2025-02-15 08:54:04 +0000";
layers = (
{
layerId = m01;
paths = (
{
closed = 1;
nodes = (
"136 -214 LINE",
"136 750 LINE",
"75 750 LINE",
"75 -214 LINE"
);
}
);
vertWidth = 1200;
width = 211;
}
);
leftMetricsKey = H;
note = bar;
rightMetricsKey = H;
unicode = 007C;
},
{
glyphname = brokenbar;
lastChange = "2025-02-15 08:54:04 +0000";
layers = (
{
layerId = m01;
paths = (
{
closed = 1;
nodes = (
"136 -213 LINE",
"136 217 LINE",
"75 217 LINE",
"75 -213 LINE"
);
},
{
closed = 1;
nodes = (
"136 320 LINE",
"136 750 LINE",
"75 750 LINE",
"75 320 LINE"
);
}
);
vertWidth = 1200;
width = 211;
}
);
leftMetricsKey = H;
note = brokenbar;
rightMetricsKey = H;
unicode = 00A6;
},
{
glyphname = dagger;
lastChange = "2025-02-15 08:54:04 +0000";
layers = (
{
layerId = m01;
paths = (
{
closed = 1;
nodes = (
"250 0 LINE",
"250 482 LINE",
"378 482 LINE",
"378 544 LINE",
"250 544 LINE",
"250 727 LINE",
"189 727 LINE",
"189 544 LINE",
"60 544 LINE",
"60 482 LINE",
"189 482 LINE",
"189 0 LINE"
);
}
);
vertWidth = 1200;
width = 438;
}
);
leftMetricsKey = O;
note = dagger;
rightMetricsKey = O;
unicode = 2020;
},
{
glyphname = daggerdbl;
lastChange = "2025-02-15 08:54:04 +0000";
layers = (
{
layerId = m01;
paths = (
{
closed = 1;
nodes = (
"250 0 LINE",
"250 181 LINE",
"378 181 LINE",
"378 243 LINE",
"250 243 LINE",
"250 482 LINE",
"378 482 LINE",
"378 544 LINE",
"250 544 LINE",
"250 727 LINE",
"189 727 LINE",
"189 544 LINE",
"60 544 LINE",
"60 482 LINE",
"189 482 LINE",
"189 243 LINE",
"60 243 LINE",
"60 181 LINE",
"189 181 LINE",
"189 0 LINE"
);
}
);
vertWidth = 1200;
width = 438;
}
);
leftMetricsKey = O;
note = daggerdbl;
rightMetricsKey = O;
unicode = 2021;
},
{
glyphname = cent;
lastChange = "2025-02-15 08:54:04 +0000";
layers = (
{
background = {
paths = (
{
closed = 1;
nodes = (
"272 -25 LINE",
"272 103 LINE",
"348 113 OFFCURVE",
"383 163 OFFCURVE",
"390 263 CURVE",
"314 263 LINE",
"310 184 OFFCURVE",
"290 156 OFFCURVE",
"236 156 CURVE SMOOTH",
"176 156 OFFCURVE",
"161 185 OFFCURVE",
"161 300 CURVE SMOOTH",
"161 419 LINE SMOOTH",
"161 539 OFFCURVE",
"172 564 OFFCURVE",
"231 564 CURVE SMOOTH",
"284 564 OFFCURVE",
"301 541 OFFCURVE",
"304 459 CURVE",
"380 459 LINE",
"374 557 OFFCURVE",
"343 604 OFFCURVE",
"272 616 CURVE",
"272 735 LINE",
"202 735 LINE",
"202 617 LINE",
"122 605 OFFCURVE",
"85 542 OFFCURVE",
"85 419 CURVE SMOOTH",
"85 300 LINE SMOOTH",
"85 172 OFFCURVE",
"119 115 OFFCURVE",
"202 103 CURVE",
"202 -25 LINE"
);
}
);
};
components = (
{
alignment = -1;
name = c;
transform = "{1, 0, 0, 1, 15, 110}";
}
);
layerId = m01;
paths = (
{
closed = 1;
nodes = (
"202 608 LINE",
"272 608 LINE",
"272 727 LINE",
"202 727 LINE"
);
},
{
closed = 1;
nodes = (
"202 0 LINE",
"272 0 LINE",
"272 119 LINE",
"202 119 LINE"
);
}
);
width = 469;
}
);
leftMetricsKey = O;
note = cent;
rightMetricsKey = O;
unicode = 00A2;
},
{
glyphname = dollar;
lastChange = "2025-02-15 08:54:04 +0000";
layers = (
{
components = (
{
alignment = -1;
name = s;
transform = "{1, 0, 0, 1, 15, 110}";
}
);
layerId = m01;
paths = (
{
closed = 1;
nodes = (
"198 608 LINE",
"268 608 LINE",
"268 727 LINE",
"198 727 LINE"
);
},
{
closed = 1;
nodes = (
"198 0 LINE",
"268 0 LINE",
"268 119 LINE",
"198 119 LINE"
);
}
);
width = 456;
}
);
leftMetricsKey = O;
note = dollar;
rightMetricsKey = O;
unicode = 0024;
},
{
glyphname = euro;
lastChange = "2025-02-15 08:54:04 +0000";
layers = (
{
background = {
paths = (
{
closed = 1;
nodes = (
"66 314 LINE",
"55 247 LINE",
"113 247 LINE",
"113 187 LINE SMOOTH",
"113 54 OFFCURVE",
"171 -18 OFFCURVE",
"296 -18 CURVE SMOOTH",
"415 -18 OFFCURVE",
"472 43 OFFCURVE",
"472 162 CURVE",
"385 162 LINE",
"385 90 OFFCURVE",
"361 61 OFFCURVE",
"301 61 CURVE SMOOTH",
"234 61 OFFCURVE",
"207 104 OFFCURVE",
"207 188 CURVE SMOOTH",
"207 247 LINE",
"333 247 LINE",
"344 314 LINE",
"206 314 LINE",
"206 380 LINE",
"356 380 LINE",
"367 447 LINE",
"207 447 LINE",
"207 506 LINE SMOOTH",
"207 583 OFFCURVE",
"233 629 OFFCURVE",
"296 629 CURVE SMOOTH",
"356 629 OFFCURVE",
"382 590 OFFCURVE",
"382 529 CURVE",
"471 529 LINE",
"471 653 OFFCURVE",
"405 710 OFFCURVE",
"296 710 CURVE SMOOTH",
"172 710 OFFCURVE",
"114 637 OFFCURVE",
"114 496 CURVE SMOOTH",
"114 447 LINE",
"66 447 LINE",
"55 380 LINE",
"112 380 LINE",
"112 314 LINE"
);
}
);
};
layerId = m01;
paths = (
{
closed = 1;
nodes = (
"390 119 OFFCURVE",
"373 57 OFFCURVE",
"294 57 CURVE SMOOTH",
"206 57 OFFCURVE",
"195 130 OFFCURVE",
"195 234 CURVE SMOOTH",
"195 492 LINE SMOOTH",
"195 595 OFFCURVE",
"207 670 OFFCURVE",
"294 670 CURVE SMOOTH",
"382 670 OFFCURVE",
"390 602 OFFCURVE",
"392 518 CURVE",
"468 518 LINE",
"465 642 OFFCURVE",
"443 737 OFFCURVE",
"294 737 CURVE SMOOTH",
"148 737 OFFCURVE",
"119 637 OFFCURVE",
"119 490 CURVE SMOOTH",
"119 236 LINE SMOOTH",
"119 95 OFFCURVE",
"154 -10 OFFCURVE",
"294 -10 CURVE SMOOTH",
"430 -10 OFFCURVE",
"464 82 OFFCURVE",
"468 194 CURVE",
"392 194 LINE"
);
},
{
closed = 1;
nodes = (
"468 518 LINE",
"392 518 LINE"
);
},
{
closed = 1;
nodes = (
"69 332 LINE",
"60 273 LINE",
"337 273 LINE",
"346 332 LINE"
);
},
{
closed = 1;
nodes = (
"69 453 LINE",
"60 394 LINE",
"356 394 LINE",
"365 453 LINE"
);
}
);
width = 528;
}
);
leftMetricsKey = O;
note = Euro;
rightMetricsKey = O;
unicode = 20AC;
},
{
glyphname = sterling;
lastChange = "2025-02-15 08:54:04 +0000";
layers = (
{
layerId = m01;
paths = (
{
closed = 1;
nodes = (
"465 0 LINE",
"465 60 LINE",
"221 60 LINE",
"221 370 LINE",
"342 370 LINE",
"342 430 LINE",
"221 430 LINE",
"221 573 LINE SMOOTH",
"221 645 OFFCURVE",
"256 671 OFFCURVE",
"297 671 CURVE SMOOTH",
"359 671 OFFCURVE",
"371 636 OFFCURVE",
"368 541 CURVE",
"445 541 LINE",
"451 673 OFFCURVE",
"420 736 OFFCURVE",
"296 736 CURVE SMOOTH",
"165 736 OFFCURVE",
"145 644 OFFCURVE",
"145 587 CURVE SMOOTH",
"145 430 LINE",
"80 430 LINE",
"80 370 LINE",
"145 370 LINE",
"145 60 LINE",
"60 60 LINE",
"60 0 LINE"
);
}
);
vertWidth = 1200;
width = 525;
}
);
leftMetricsKey = O;
note = sterling;
rightMetricsKey = O;
unicode = 00A3;
},
{
glyphname = yen;
lastChange = "2025-02-15 08:54:04 +0000";
layers = (
{
components = (
{
name = Y;
transform = "{1, 0, 0, 1, 15, 0}";
}
);
layerId = m01;
paths = (
{
closed = 1;
nodes = (
"83 176 LINE",
"404 176 LINE",
"404 228 LINE",
"83 228 LINE"
);
},
{
closed = 1;
nodes = (
"83 66 LINE",
"404 66 LINE",
"404 118 LINE",
"83 118 LINE"
);
}
);
width = 488;
}
);
leftMetricsKey = V;
note = yen;
rightMetricsKey = V;
unicode = 00A5;
},
{
glyphname = dotmath;
lastChange = "2025-02-15 08:54:04 +0000";
layers = (
{
anchors = (
{
name = _vicentino;
position = "{252, 385}";
}
);
layerId = m01;
paths = (
{
closed = 1;
nodes = (
"296 289 OFFCURVE",
"332 325 OFFCURVE",
"332 371 CURVE SMOOTH",
"332 416 OFFCURVE",
"296 452 OFFCURVE",
"251 452 CURVE SMOOTH",
"205 452 OFFCURVE",
"169 416 OFFCURVE",
"169 371 CURVE SMOOTH",
"169 325 OFFCURVE",
"205 289 OFFCURVE",
"251 289 CURVE SMOOTH"
);
}
);
width = 500;
}
);
unicode = 22C5;
},
{
glyphname = equivalence;
lastChange = "2025-02-15 08:54:04 +0000";
layers = (
{
layerId = m01;
paths = (
{
closed = 1;
nodes = (
"450 479 LINE",
"450 550 LINE",
"50 550 LINE",
"50 479 LINE"
);
},
{
closed = 1;
nodes = (
"450 197 LINE",
"450 268 LINE",
"50 268 LINE",
"50 197 LINE"
);
},
{
closed = 1;
nodes = (
"450 338 LINE",
"450 409 LINE",
"50 409 LINE",
"50 338 LINE"
);
}
);
vertWidth = 1200;
width = 500;
}
);
widthMetricsKey = plus;
note = equivalence;
unicode = 2261;
},
{
glyphname = plus;
lastChange = "2025-02-15 08:54:04 +0000";
layers = (
{
layerId = m01;
paths = (
{
closed = 1;
nodes = (
"285 176 LINE",
"285 336 LINE",
"450 336 LINE",
"450 407 LINE",
"285 407 LINE",
"285 566 LINE",
"215 566 LINE",
"215 407 LINE",
"50 407 LINE",
"50 336 LINE",
"215 336 LINE",
"215 176 LINE"
);
}
);
vertWidth = 1200;
width = 500;
}
);
note = plus;
unicode = 002B;
},
{
glyphname = minus;
lastChange = "2025-02-15 08:54:04 +0000";
layers = (
{
layerId = m01;
paths = (
{
closed = 1;
nodes = (
"450 336 LINE",
"450 406 LINE",
"50 406 LINE",
"50 336 LINE"
);
}
);
vertWidth = 1200;
width = 500;
}
);
widthMetricsKey = plus;
note = minus;
unicode = 2212;
},
{
glyphname = multiply;
lastChange = "2025-02-15 08:54:04 +0000";
layers = (
{
layerId = m01;
paths = (
{
closed = 1;
nodes = (
"249 318 LINE",
"387 179 LINE",
"440 232 LINE",
"301 371 LINE",
"440 508 LINE",
"387 561 LINE",
"249 422 LINE",
"111 561 LINE",
"59 508 LINE",
"197 371 LINE",
"59 232 LINE",
"111 179 LINE"
);
}
);
vertWidth = 1200;
width = 500;
}
);
widthMetricsKey = plus;
note = multiply;
unicode = 00D7;
},
{
glyphname = divide;
lastChange = "2025-02-15 08:54:04 +0000";
layers = (
{
layerId = m01;
paths = (
{
closed = 1;
nodes = (
"450 336 LINE",
"450 407 LINE",
"50 407 LINE",
"50 336 LINE"
);
},
{
closed = 1;
nodes = (
"292 165 LINE",
"292 253 LINE",
"209 253 LINE",
"209 165 LINE"
);
},
{
closed = 1;
nodes = (
"292 489 LINE",
"292 575 LINE",
"209 575 LINE",
"209 489 LINE"
);
}
);
vertWidth = 1200;
width = 500;
}
);
widthMetricsKey = plus;
note = divide;
unicode = 00F7;
},
{
glyphname = equal;
lastChange = "2025-02-15 08:54:04 +0000";
layers = (
{
layerId = m01;
paths = (
{
closed = 1;
nodes = (
"450 422 LINE",
"450 493 LINE",
"50 493 LINE",
"50 422 LINE"
);
},
{
closed = 1;
nodes = (
"450 251 LINE",
"450 322 LINE",
"50 322 LINE",
"50 251 LINE"
);
}
);
vertWidth = 1200;
width = 500;
}
);
widthMetricsKey = plus;
note = equal;
unicode = 003D;
},
{
glyphname = notequal;
lastChange = "2025-02-15 08:54:04 +0000";
layers = (
{
components = (
{
name = equal;
}
);
layerId = m01;
paths = (
{
closed = 1;
nodes = (
"138 153 LINE",
"424 595 LINE",
"363 595 LINE",
"77 153 LINE"
);
}
);
vertWidth = 1200;
width = 500;
}
);
widthMetricsKey = plus;
note = notequal;
unicode = 2260;
},
{
glyphname = greater;
lastChange = "2025-02-15 08:54:04 +0000";
layers = (
{
hints = (
{
horizontal = 1;
place = "{-1, 21}";
target = up;
type = BottomGhost;
}
);
layerId = m01;
paths = (
{
closed = 1;
nodes = (
"465 423 LINE",
"50 551 LINE",
"50 479 LINE",
"409 372 LINE",
"50 260 LINE",
"50 188 LINE",
"465 315 LINE"
);
}
);
vertWidth = 1200;
width = 515;
}
);
widthMetricsKey = greater;
note = greater;
unicode = 003E;
},
{
glyphname = greaterequal;
lastChange = "2025-02-15 08:54:04 +0000";
layers = (
{
components = (
{
name = greater;
}
);
layerId = m01;
paths = (
{
closed = 1;
nodes = (
"465 40 LINE",
"465 111 LINE",
"50 111 LINE",
"50 40 LINE"
);
}
);
vertWidth = 1200;
width = 515;
}
);
widthMetricsKey = greater;
note = greaterequal;
unicode = 2265;
},
{
glyphname = asciitilde;
lastChange = "2025-02-15 08:54:04 +0000";
layers = (
{
layerId = m01;
paths = (
{
closed = 1;
nodes = (
"107 603 LINE",
"111 628 OFFCURVE",
"137 648 OFFCURVE",
"167 648 CURVE SMOOTH",
"213 648 OFFCURVE",
"273 611 OFFCURVE",
"329 611 CURVE SMOOTH",
"404 611 OFFCURVE",
"441 657 OFFCURVE",
"448 719 CURVE",
"393 719 LINE",
"386 689 OFFCURVE",
"361 674 OFFCURVE",
"332 674 CURVE SMOOTH",
"282 674 OFFCURVE",
"238 711 OFFCURVE",
"174 711 CURVE SMOOTH",
"104 711 OFFCURVE",
"60 672 OFFCURVE",
"52 603 CURVE"
);
}
);
vertWidth = 1200;
width = 500;
}
);
widthMetricsKey = plus;
note = asciitilde;
unicode = 007E;
},
{
glyphname = logicalnot;
lastChange = "2025-02-15 08:54:04 +0000";
layers = (
{
layerId = m01;
paths = (
{
closed = 1;
nodes = (
"454 171 LINE",
"454 407 LINE",
"46 407 LINE",
"46 345 LINE",
"393 345 LINE",
"393 171 LINE"
);
}
);
vertWidth = 1200;
width = 500;
}
);
widthMetricsKey = plus;
note = logicalnot;
unicode = 00AC;
},
{
glyphname = asciicircum;
lastChange = "2025-02-15 08:54:04 +0000";
layers = (
{
layerId = m01;
paths = (
{
closed = 1;
nodes = (
"147 517 LINE",
"250 678 LINE",
"354 517 LINE",
"437 517 LINE",
"295 727 LINE",
"204 727 LINE",
"63 517 LINE"
);
}
);
vertWidth = 1200;
width = 500;
}
);
widthMetricsKey = plus;
note = asciicircum;
unicode = 005E;
},
{
glyphname = infinity;
lastChange = "2025-02-15 08:54:04 +0000";
layers = (
{
layerId = m01;
paths = (
{
closed = 1;
nodes = (
"412 367 LINE",
"407 367 LINE",
"382 435 OFFCURVE",
"328 483 OFFCURVE",
"241 483 CURVE SMOOTH",
"129 483 OFFCURVE",
"60 407 OFFCURVE",
"60 300 CURVE SMOOTH",
"60 187 OFFCURVE",
"127 125 OFFCURVE",
"241 125 CURVE SMOOTH",
"326 125 OFFCURVE",
"385 166 OFFCURVE",
"408 237 CURVE",
"413 237 LINE"
);
},
{
closed = 1;
nodes = (
"179 192 OFFCURVE",
"136 230 OFFCURVE",
"136 300 CURVE SMOOTH",
"136 366 OFFCURVE",
"178 416 OFFCURVE",
"251 416 CURVE SMOOTH",
"332 416 OFFCURVE",
"362 357 OFFCURVE",
"372 300 CURVE",
"362 244 OFFCURVE",
"330 192 OFFCURVE",
"251 192 CURVE SMOOTH"
);
},
{
closed = 1;
nodes = (
"401 237 LINE",
"424 166 OFFCURVE",
"483 125 OFFCURVE",
"568 125 CURVE SMOOTH",
"682 125 OFFCURVE",
"749 187 OFFCURVE",
"749 300 CURVE SMOOTH",
"749 407 OFFCURVE",
"680 483 OFFCURVE",
"568 483 CURVE SMOOTH",
"481 483 OFFCURVE",
"427 435 OFFCURVE",
"402 367 CURVE",
"397 367 LINE",
"396 237 LINE"
);
},
{
closed = 1;
nodes = (
"479 192 OFFCURVE",
"447 244 OFFCURVE",
"437 300 CURVE",
"447 357 OFFCURVE",
"477 416 OFFCURVE",
"558 416 CURVE SMOOTH",
"631 416 OFFCURVE",
"673 366 OFFCURVE",
"673 300 CURVE SMOOTH",
"673 230 OFFCURVE",
"630 192 OFFCURVE",
"558 192 CURVE SMOOTH"
);
}
);
vertWidth = 1200;
width = 809;
}
);
leftMetricsKey = O;
note = infinity;
rightMetricsKey = O;
unicode = 221E;
},
{
glyphname = percent;
lastChange = "2025-02-15 08:54:04 +0000";
layers = (
{
layerId = m01;
paths = (
{
closed = 1;
nodes = (
"289 352 OFFCURVE",
"336 414 OFFCURVE",
"336 525 CURVE SMOOTH",
"336 560 LINE SMOOTH",
"336 677 OFFCURVE",
"293 733 OFFCURVE",
"203 733 CURVE SMOOTH",
"115 733 OFFCURVE",
"75 678 OFFCURVE",
"75 560 CURVE SMOOTH",
"75 525 LINE SMOOTH",
"75 410 OFFCURVE",
"118 352 OFFCURVE",
"203 352 CURVE SMOOTH"
);
},
{
closed = 1;
nodes = (
"145 405 OFFCURVE",
"139 455 OFFCURVE",
"139 524 CURVE SMOOTH",
"139 561 LINE SMOOTH",
"139 648 OFFCURVE",
"155 681 OFFCURVE",
"203 681 CURVE SMOOTH",
"254 681 OFFCURVE",
"272 648 OFFCURVE",
"272 561 CURVE SMOOTH",
"272 524 LINE SMOOTH",
"272 455 OFFCURVE",
"260 405 OFFCURVE",
"203 405 CURVE SMOOTH"
);
},
{
closed = 1;
nodes = (
"698 -10 OFFCURVE",
"745 52 OFFCURVE",
"745 163 CURVE SMOOTH",
"745 198 LINE SMOOTH",
"745 315 OFFCURVE",
"702 371 OFFCURVE",
"612 371 CURVE SMOOTH",
"524 371 OFFCURVE",
"484 316 OFFCURVE",
"484 198 CURVE SMOOTH",
"484 163 LINE SMOOTH",
"484 48 OFFCURVE",
"527 -10 OFFCURVE",
"612 -10 CURVE SMOOTH"
);
},
{
closed = 1;
nodes = (
"554 43 OFFCURVE",
"548 93 OFFCURVE",
"548 162 CURVE SMOOTH",
"548 199 LINE SMOOTH",
"548 286 OFFCURVE",
"564 319 OFFCURVE",
"612 319 CURVE SMOOTH",
"663 319 OFFCURVE",
"681 286 OFFCURVE",
"681 199 CURVE SMOOTH",
"681 162 LINE SMOOTH",
"681 93 OFFCURVE",
"669 43 OFFCURVE",
"612 43 CURVE SMOOTH"
);
},
{
closed = 1;
nodes = (
"258 0 LINE",
"628 727 LINE",
"563 727 LINE",
"192 0 LINE"
);
}
);
width = 820;
}
);
leftMetricsKey = H;
note = percent;
rightMetricsKey = H;
unicode = 0025;
},
{
glyphname = perthousand;
lastChange = "2025-02-15 08:54:04 +0000";
layers = (
{
layerId = m01;
paths = (
{
closed = 1;
nodes = (
"289 352 OFFCURVE",
"336 414 OFFCURVE",
"336 525 CURVE SMOOTH",
"336 560 LINE SMOOTH",
"336 677 OFFCURVE",
"293 733 OFFCURVE",
"203 733 CURVE SMOOTH",
"115 733 OFFCURVE",
"75 678 OFFCURVE",
"75 560 CURVE SMOOTH",
"75 525 LINE SMOOTH",
"75 410 OFFCURVE",
"118 352 OFFCURVE",
"203 352 CURVE SMOOTH"
);
},
{
closed = 1;
nodes = (
"145 405 OFFCURVE",
"139 455 OFFCURVE",
"139 524 CURVE SMOOTH",
"139 561 LINE SMOOTH",
"139 648 OFFCURVE",
"155 681 OFFCURVE",
"203 681 CURVE SMOOTH",
"254 681 OFFCURVE",
"272 648 OFFCURVE",
"272 561 CURVE SMOOTH",
"272 524 LINE SMOOTH",
"272 455 OFFCURVE",
"260 405 OFFCURVE",
"203 405 CURVE SMOOTH"
);
},
{
closed = 1;
nodes = (
"698 -10 OFFCURVE",
"745 52 OFFCURVE",
"745 163 CURVE SMOOTH",
"745 198 LINE SMOOTH",
"745 315 OFFCURVE",
"702 371 OFFCURVE",
"612 371 CURVE SMOOTH",
"524 371 OFFCURVE",
"484 316 OFFCURVE",
"484 198 CURVE SMOOTH",
"484 163 LINE SMOOTH",
"484 48 OFFCURVE",
"527 -10 OFFCURVE",
"612 -10 CURVE SMOOTH"
);
},
{
closed = 1;
nodes = (
"554 43 OFFCURVE",
"548 93 OFFCURVE",
"548 162 CURVE SMOOTH",
"548 199 LINE SMOOTH",
"548 286 OFFCURVE",
"564 319 OFFCURVE",
"612 319 CURVE SMOOTH",
"663 319 OFFCURVE",
"681 286 OFFCURVE",
"681 199 CURVE SMOOTH",
"681 162 LINE SMOOTH",
"681 93 OFFCURVE",
"669 43 OFFCURVE",
"612 43 CURVE SMOOTH"
);
},
{
closed = 1;
nodes = (
"258 0 LINE",
"628 727 LINE",
"563 727 LINE",
"192 0 LINE"
);
},
{
closed = 1;
nodes = (
"1003 -10 OFFCURVE",
"1050 52 OFFCURVE",
"1050 163 CURVE SMOOTH",
"1050 198 LINE SMOOTH",
"1050 315 OFFCURVE",
"1007 371 OFFCURVE",
"917 371 CURVE SMOOTH",
"829 371 OFFCURVE",
"789 316 OFFCURVE",
"789 198 CURVE SMOOTH",
"789 163 LINE SMOOTH",
"789 48 OFFCURVE",
"832 -10 OFFCURVE",
"917 -10 CURVE SMOOTH"
);
},
{
closed = 1;
nodes = (
"859 43 OFFCURVE",
"853 93 OFFCURVE",
"853 162 CURVE SMOOTH",
"853 199 LINE SMOOTH",
"853 286 OFFCURVE",
"869 319 OFFCURVE",
"917 319 CURVE SMOOTH",
"968 319 OFFCURVE",
"986 286 OFFCURVE",
"986 199 CURVE SMOOTH",
"986 162 LINE SMOOTH",
"986 93 OFFCURVE",
"974 43 OFFCURVE",
"917 43 CURVE SMOOTH"
);
}
);
vertWidth = 1200;
width = 1125;
}
);
leftMetricsKey = H;
note = perthousand;
rightMetricsKey = H;
unicode = 2030;
},
{
glyphname = upArrow;
lastChange = "2025-02-15 08:54:04 +0000";
layers = (
{
hints = (
{
horizontal = 1;
place = "{0, 21}";
target = up;
type = BottomGhost;
},
{
place = "{350, 64}";
type = Stem;
}
);
layerId = m01;
paths = (
{
closed = 1;
nodes = (
"414 0 LINE",
"414 598 LINE",
"500 376 LINE",
"556 400 LINE",
"422 702 LINE",
"344 702 LINE",
"208 400 LINE",
"262 376 LINE",
"350 598 LINE",
"350 0 LINE"
);
}
);
vertWidth = 1200;
width = 759;
}
);
note = arrowup;
unicode = 2191;
},
{
glyphname = northEastArrow;
lastChange = "2025-02-15 08:54:04 +0000";
layers = (
{
layerId = m01;
paths = (
{
closed = 1;
nodes = (
"667 566 LINE",
"574 352 LINE",
"622 331 LINE",
"760 642 LINE",
"701 699 LINE",
"384 566 LINE",
"407 520 LINE",
"622 611 LINE",
"-3 -13 LINE",
"40 -56 LINE"
);
}
);
vertWidth = 1200;
width = 764;
}
);
note = uni2197;
unicode = 2197;
},
{
glyphname = rightArrow;
lastChange = "2025-02-15 08:54:04 +0000";
layers = (
{
hints = (
{
horizontal = 1;
place = "{379, 65}";
type = Stem;
}
);
layerId = m01;
paths = (
{
closed = 1;
nodes = (
"764 373 LINE",
"764 451 LINE",
"462 586 LINE",
"437 530 LINE",
"659 444 LINE",
"0 444 LINE",
"0 379 LINE",
"659 379 LINE",
"437 292 LINE",
"462 237 LINE"
);
}
);
vertWidth = 1200;
width = 764;
}
);
note = arrowright;
unicode = 2192;
},
{
glyphname = southEastArrow;
lastChange = "2025-02-15 08:54:04 +0000";
layers = (
{
layerId = m01;
paths = (
{
closed = 1;
nodes = (
"760 0 LINE",
"622 311 LINE",
"574 290 LINE",
"667 77 LINE",
"40 699 LINE",
"-3 656 LINE",
"622 33 LINE",
"407 124 LINE",
"384 77 LINE",
"701 -56 LINE"
);
}
);
vertWidth = 1200;
width = 764;
}
);
note = uni2198;
unicode = 2198;
},
{
glyphname = downArrow;
lastChange = "2025-02-15 08:54:04 +0000";
layers = (
{
hints = (
{
horizontal = 1;
place = "{0, 21}";
target = up;
type = BottomGhost;
},
{
place = "{350, 64}";
type = Stem;
}
);
layerId = m01;
paths = (
{
closed = 1;
nodes = (
"420 0 LINE",
"556 302 LINE",
"502 326 LINE",
"414 104 LINE",
"414 702 LINE",
"350 702 LINE",
"350 104 LINE",
"264 326 LINE",
"208 302 LINE",
"342 0 LINE"
);
}
);
vertWidth = 1200;
width = 759;
}
);
note = arrowdown;
unicode = 2193;
},
{
glyphname = southWestArrow;
lastChange = "2025-02-15 08:54:04 +0000";
layers = (
{
layerId = m01;
paths = (
{
closed = 1;
nodes = (
"365 77 LINE",
"343 124 LINE",
"128 33 LINE",
"753 656 LINE",
"709 699 LINE",
"84 77 LINE",
"176 290 LINE",
"128 311 LINE",
"-10 0 LINE",
"50 -56 LINE"
);
}
);
vertWidth = 1200;
width = 764;
}
);
note = uni2199;
unicode = 2199;
},
{
glyphname = leftArrow;
lastChange = "2025-02-15 08:54:04 +0000";
layers = (
{
hints = (
{
horizontal = 1;
place = "{379, 65}";
type = Stem;
}
);
layerId = m01;
paths = (
{
closed = 1;
nodes = (
"327 292 LINE",
"105 379 LINE",
"764 379 LINE",
"764 444 LINE",
"105 444 LINE",
"327 530 LINE",
"303 586 LINE",
"0 451 LINE",
"0 373 LINE",
"303 237 LINE"
);
}
);
vertWidth = 1200;
width = 764;
}
);
note = arrowleft;
unicode = 2190;
},
{
glyphname = northWestArrow;
lastChange = "2025-02-15 08:54:04 +0000";
layers = (
{
layerId = m01;
paths = (
{
closed = 1;
nodes = (
"753 -13 LINE",
"128 611 LINE",
"343 520 LINE",
"365 566 LINE",
"50 699 LINE",
"-10 642 LINE",
"128 331 LINE",
"176 352 LINE",
"84 566 LINE",
"709 -56 LINE"
);
}
);
vertWidth = 1200;
width = 764;
}
);
note = uni2196;
unicode = 2196;
},
{
glyphname = leftRightArrow;
lastChange = "2025-02-15 08:54:04 +0000";
layers = (
{
hints = (
{
horizontal = 1;
place = "{504, -20}";
target = down;
type = TopGhost;
},
{
horizontal = 1;
place = "{295, 64}";
type = Stem;
}
);
layerId = m01;
paths = (
{
closed = 1;
nodes = (
"327 208 LINE",
"105 295 LINE",
"659 295 LINE",
"437 208 LINE",
"462 153 LINE",
"764 288 LINE",
"764 366 LINE",
"462 504 LINE",
"437 448 LINE",
"659 359 LINE",
"105 359 LINE",
"327 448 LINE",
"303 504 LINE",
"0 366 LINE",
"0 288 LINE",
"303 153 LINE"
);
}
);
vertWidth = 1200;
width = 764;
}
);
note = arrowboth;
unicode = 2194;
},
{
glyphname = upDownArrow;
lastChange = "2025-02-15 08:54:04 +0000";
layers = (
{
hints = (
{
horizontal = 1;
place = "{731, -20}";
target = down;
type = TopGhost;
},
{
place = "{350, 61}";
type = Stem;
}
);
layerId = m01;
paths = (
{
closed = 1;
nodes = (
"424 -33 LINE",
"554 269 LINE",
"504 289 LINE",
"411 74 LINE",
"411 617 LINE",
"504 415 LINE",
"554 435 LINE",
"419 731 LINE",
"342 731 LINE",
"206 435 LINE",
"257 415 LINE",
"350 617 LINE",
"350 74 LINE",
"257 289 LINE",
"206 269 LINE",
"338 -33 LINE"
);
}
);
vertWidth = 1200;
width = 760;
}
);
note = arrowupdn;
unicode = 2195;
},
{
glyphname = caroncomb.alt;
lastChange = "2025-02-15 08:54:04 +0000";
layers = (
{
anchors = (
{
name = _topright;
position = "{172, 505}";
}
);
layerId = m01;
paths = (
{
closed = 1;
nodes = (
"245 561 LINE",
"309 727 LINE",
"229 727 LINE",
"192 561 LINE"
);
}
);
width = 500;
}
);
},
{
glyphname = commaturnedabovecomb;
lastChange = "2025-02-15 08:54:04 +0000";
layers = (
{
anchors = (
{
name = _top;
position = "{232, 505}";
},
{
name = top;
position = "{251, 727}";
}
);
layerId = m01;
paths = (
{
closed = 1;
nodes = (
"256 727 LINE",
"192 561 LINE",
"272 561 LINE",
"309 727 LINE"
);
}
);
width = 500;
}
);
unicode = 0312;
},
{
glyphname = commaaccentcomb;
lastChange = "2025-02-15 08:54:04 +0000";
layers = (
{
anchors = (
{
name = _bottom;
position = "{269, 0}";
},
{
name = bottom;
position = "{251, -231}";
}
);
layerId = m01;
paths = (
{
closed = 1;
nodes = (
"245 -231 LINE",
"309 -65 LINE",
"229 -65 LINE",
"192 -231 LINE"
);
}
);
vertWidth = 1200;
width = 500;
}
);
note = uni0326;
unicode = 0326;
},
{
glyphname = dieresis;
lastChange = "2025-02-15 08:54:04 +0000";
layers = (
{
hints = (
{
horizontal = 1;
place = "{611, 83}";
type = Stem;
},
{
place = "{289, 80}";
type = Stem;
},
{
place = "{109, 80}";
type = Stem;
}
);
layerId = m01;
paths = (
{
closed = 1;
nodes = (
"380 591 LINE",
"380 674 LINE",
"300 674 LINE",
"300 591 LINE"
);
},
{
closed = 1;
nodes = (
"200 591 LINE",
"200 674 LINE",
"120 674 LINE",
"120 591 LINE"
);
}
);
vertWidth = 1200;
width = 500;
}
);
note = dieresis;
unicode = 00A8;
},
{
glyphname = dotaccent;
lastChange = "2025-02-15 08:54:04 +0000";
layers = (
{
layerId = m01;
paths = (
{
closed = 1;
nodes = (
"290 591 LINE",
"290 674 LINE",
"210 674 LINE",
"210 591 LINE"
);
}
);
width = 500;
}
);
unicode = 02D9;
},
{
glyphname = grave;
lastChange = "2025-02-15 08:54:04 +0000";
layers = (
{
layerId = m01;
paths = (
{
closed = 1;
nodes = (
"349 586 LINE",
"260 727 LINE",
"161 727 LINE",
"282 586 LINE"
);
}
);
vertWidth = 1200;
width = 500;
}
);
note = grave;
unicode = 0060;
},
{
glyphname = acute;
lastChange = "2025-02-15 08:54:04 +0000";
layers = (
{
layerId = m01;
paths = (
{
closed = 1;
nodes = (
"218 586 LINE",
"339 727 LINE",
"240 727 LINE",
"151 586 LINE"
);
}
);
vertWidth = 1200;
width = 500;
}
);
note = acute;
unicode = 00B4;
},
{
glyphname = hungarumlaut;
lastChange = "2025-02-15 08:54:04 +0000";
layers = (
{
layerId = m01;
paths = (
{
closed = 1;
nodes = (
"292 586 LINE",
"413 727 LINE",
"314 727 LINE",
"225 586 LINE"
);
},
{
closed = 1;
nodes = (
"145 586 LINE",
"266 727 LINE",
"167 727 LINE",
"78 586 LINE"
);
}
);
width = 500;
}
);
unicode = 02DD;
},
{
glyphname = circumflex;
lastChange = "2025-02-15 08:54:04 +0000";
layers = (
{
background = {
paths = (
{
closed = 1;
nodes = (
"175 704 OFFCURVE",
"135 668 OFFCURVE",
"120 586 CURVE",
"183 586 LINE",
"190 623 OFFCURVE",
"212 641 OFFCURVE",
"250 641 CURVE SMOOTH",
"288 641 OFFCURVE",
"310 623 OFFCURVE",
"317 586 CURVE",
"380 586 LINE",
"366 663 OFFCURVE",
"324 704 OFFCURVE",
"249 704 CURVE SMOOTH"
);
}
);
};
layerId = m01;
paths = (
{
closed = 1;
nodes = (
"194 586 LINE",
"250 680 LINE",
"306 586 LINE",
"381 586 LINE",
"291 727 LINE",
"209 727 LINE",
"119 586 LINE"
);
}
);
width = 500;
}
);
unicode = 02C6;
},
{
glyphname = caron;
lastChange = "2025-02-15 08:54:04 +0000";
layers = (
{
layerId = m01;
paths = (
{
closed = 1;
nodes = (
"306 727 LINE",
"250 633 LINE",
"194 727 LINE",
"119 727 LINE",
"209 586 LINE",
"291 586 LINE",
"381 727 LINE"
);
}
);
width = 500;
}
);
unicode = 02C7;
},
{
glyphname = breve;
lastChange = "2025-02-15 08:54:04 +0000";
layers = (
{
background = {
paths = (
{
closed = 1;
nodes = (
"324 586 OFFCURVE",
"366 627 OFFCURVE",
"380 704 CURVE",
"317 704 LINE",
"310 667 OFFCURVE",
"288 649 OFFCURVE",
"250 649 CURVE SMOOTH",
"212 649 OFFCURVE",
"190 667 OFFCURVE",
"183 704 CURVE",
"120 704 LINE",
"135 622 OFFCURVE",
"175 586 OFFCURVE",
"249 586 CURVE SMOOTH"
);
}
);
};
layerId = m01;
paths = (
{
closed = 1;
nodes = (
"292 649 OFFCURVE",
"281 638 OFFCURVE",
"249 638 CURVE SMOOTH",
"221 638 OFFCURVE",
"209 652 OFFCURVE",
"205 704 CURVE",
"135 704 LINE",
"142 610 OFFCURVE",
"170 586 OFFCURVE",
"250 586 CURVE SMOOTH",
"331 586 OFFCURVE",
"358 608 OFFCURVE",
"364 704 CURVE",
"296 704 LINE"
);
}
);
width = 500;
}
);
unicode = 02D8;
},
{
glyphname = ring;
lastChange = "2025-02-15 08:54:04 +0000";
layers = (
{
layerId = m01;
paths = (
{
closed = 1;
nodes = (
"309 550 OFFCURVE",
"349 596 OFFCURVE",
"349 649 CURVE SMOOTH",
"347 705 OFFCURVE",
"301 748 OFFCURVE",
"252 748 CURVE SMOOTH",
"191 748 OFFCURVE",
"152 702 OFFCURVE",
"152 649 CURVE SMOOTH",
"152 592 OFFCURVE",
"197 548 OFFCURVE",
"250 548 CURVE SMOOTH"
);
},
{
closed = 1;
nodes = (
"221 597 OFFCURVE",
"200 620 OFFCURVE",
"200 649 CURVE SMOOTH",
"200 678 OFFCURVE",
"222 699 OFFCURVE",
"251 699 CURVE SMOOTH",
"277 699 OFFCURVE",
"301 678 OFFCURVE",
"301 649 CURVE SMOOTH",
"301 620 OFFCURVE",
"279 597 OFFCURVE",
"250 597 CURVE SMOOTH"
);
}
);
width = 500;
}
);
unicode = 02DA;
},
{
glyphname = tilde;
lastChange = "2025-02-15 08:54:04 +0000";
layers = (
{
layerId = m01;
paths = (
{
closed = 1;
nodes = (
"146 586 LINE",
"149 611 OFFCURVE",
"168 631 OFFCURVE",
"193 631 CURVE SMOOTH",
"229 631 OFFCURVE",
"256 593 OFFCURVE",
"302 593 CURVE SMOOTH",
"329 593 OFFCURVE",
"351 605 OFFCURVE",
"369 626 CURVE SMOOTH",
"386 645 OFFCURVE",
"397 673 OFFCURVE",
"400 702 CURVE",
"348 702 LINE",
"345 672 OFFCURVE",
"332 657 OFFCURVE",
"305 657 CURVE SMOOTH",
"263 657 OFFCURVE",
"253 694 OFFCURVE",
"199 694 CURVE SMOOTH",
"140 694 OFFCURVE",
"107 655 OFFCURVE",
"100 586 CURVE"
);
}
);
width = 500;
}
);
unicode = 02DC;
},
{
glyphname = macron;
lastChange = "2025-02-15 08:54:04 +0000";
layers = (
{
hints = (
{
horizontal = 1;
place = "{608, 61}";
type = Stem;
},
{
place = "{136, 207}";
type = Stem;
}
);
layerId = m01;
paths = (
{
closed = 1;
nodes = (
"354 586 LINE",
"354 647 LINE",
"146 647 LINE",
"146 586 LINE"
);
}
);
vertWidth = 1200;
width = 500;
}
);
note = macron;
unicode = 00AF;
},
{
glyphname = cedilla;
lastChange = "2025-02-15 08:54:04 +0000";
layers = (
{
background = {
paths = (
{
closed = 1;
nodes = (
"287 -225 OFFCURVE",
"335 -188 OFFCURVE",
"335 -134 CURVE SMOOTH",
"335 -88 OFFCURVE",
"303 -56 OFFCURVE",
"256 -56 CURVE SMOOTH",
"245 -56 OFFCURVE",
"232 -58 OFFCURVE",
"222 -62 CURVE",
"220 -60 LINE",
"266 0 LINE",
"218 0 LINE",
"155 -86 LINE",
"172 -105 LINE",
"190 -99 OFFCURVE",
"200 -97 OFFCURVE",
"211 -97 CURVE SMOOTH",
"240 -97 OFFCURVE",
"259 -113 OFFCURVE",
"259 -137 CURVE SMOOTH",
"259 -163 OFFCURVE",
"236 -178 OFFCURVE",
"199 -178 CURVE SMOOTH",
"180 -178 OFFCURVE",
"163 -174 OFFCURVE",
"137 -163 CURVE",
"120 -203 LINE",
"156 -218 OFFCURVE",
"188 -225 OFFCURVE",
"217 -225 CURVE SMOOTH"
);
}
);
};
hints = (
{
place = "{259, 76}";
type = Stem;
}
);
layerId = m01;
paths = (
{
closed = 1;
nodes = (
"177 -65 LINE",
"236 -65 LINE",
"278 20 LINE",
"219 20 LINE"
);
},
{
closed = 1;
nodes = (
"220 -79 OFFCURVE",
"231 -76 OFFCURVE",
"241 -76 CURVE SMOOTH",
"267 -76 OFFCURVE",
"290 -93 OFFCURVE",
"290 -125 CURVE SMOOTH",
"290 -153 OFFCURVE",
"270 -182 OFFCURVE",
"231 -182 CURVE SMOOTH",
"206 -182 OFFCURVE",
"180 -171 OFFCURVE",
"167 -155 CURVE",
"136 -185 LINE",
"160 -214 OFFCURVE",
"197 -227 OFFCURVE",
"233 -227 CURVE SMOOTH",
"290 -227 OFFCURVE",
"345 -193 OFFCURVE",
"345 -130 CURVE SMOOTH",
"345 -64 OFFCURVE",
"299 -35 OFFCURVE",
"249 -35 CURVE SMOOTH",
"224 -35 OFFCURVE",
"199 -44 OFFCURVE",
"177 -65 CURVE",
"211 -85 LINE"
);
}
);
vertWidth = 1200;
width = 500;
}
);
note = cedilla;
unicode = 00B8;
},
{
glyphname = ogonek;
lastChange = "2025-02-15 08:54:04 +0000";
layers = (
{
layerId = m01;
paths = (
{
closed = 1;
nodes = (
"220 -188 OFFCURVE",
"285 -188 CURVE SMOOTH",
"298 -188 OFFCURVE",
"312 -187 OFFCURVE",
"326 -185 CURVE",
"326 -125 LINE",
"318 -128 OFFCURVE",
"309 -129 OFFCURVE",
"300 -129 CURVE SMOOTH",
"269 -129 OFFCURVE",
"237 -113 OFFCURVE",
"237 -80 CURVE SMOOTH",
"237 -54 OFFCURVE",
"255 -28 OFFCURVE",
"292 0 CURVE",
"227 0 LINE",
"189 -30 OFFCURVE",
"174 -56 OFFCURVE",
"174 -94 CURVE SMOOTH",
"174 -161 OFFCURVE"
);
}
);
width = 500;
}
);
unicode = 02DB;
},
{
export = 0;
glyphname = _part.arrowDownOne;
lastChange = "2025-02-15 08:54:04 +0000";
layers = (
{
anchors = (
{
name = _arrowDown;
position = "{150, 371}";
}
);
layerId = m01;
paths = (
{
closed = 1;
nodes = (
"129 -4 LINE",
"50 31 LINE",
"150 -112 LINE",
"250 31 LINE",
"171 -4 LINE",
"171 176 LINE",
"129 176 LINE"
);
}
);
width = 300;
}
);
},
{
export = 0;
glyphname = _part.arrowDownThree;
lastChange = "2025-02-15 08:54:04 +0000";
layers = (
{
anchors = (
{
name = _arrowDown;
position = "{150, 371}";
}
);
layerId = m01;
paths = (
{
closed = 1;
nodes = (
"129 -89 LINE",
"50 -54 LINE",
"150 -197 LINE",
"250 -54 LINE",
"171 -89 LINE",
"171 89 LINE",
"129 89 LINE"
);
},
{
closed = 1;
nodes = (
"129 4 LINE",
"50 39 LINE",
"150 -104 LINE",
"250 39 LINE",
"171 4 LINE",
"171 86 LINE",
"129 86 LINE"
);
},
{
closed = 1;
nodes = (
"129 97 LINE",
"50 132 LINE",
"150 -11 LINE",
"250 132 LINE",
"171 97 LINE",
"171 176 LINE",
"129 176 LINE"
);
}
);
width = 300;
}
);
},
{
export = 0;
glyphname = _part.arrowDownTwo;
lastChange = "2025-02-15 08:54:04 +0000";
layers = (
{
anchors = (
{
name = _arrowDown;
position = "{150, 371}";
}
);
layerId = m01;
paths = (
{
closed = 1;
nodes = (
"129 -60 LINE",
"50 -25 LINE",
"150 -168 LINE",
"250 -25 LINE",
"171 -60 LINE",
"171 176 LINE",
"129 176 LINE"
);
},
{
closed = 1;
nodes = (
"129 33 LINE",
"50 68 LINE",
"150 -75 LINE",
"250 68 LINE",
"171 33 LINE",
"171 176 LINE",
"129 176 LINE"
);
}
);
width = 300;
}
);
},
{
export = 0;
glyphname = _part.arrowUpOne;
lastChange = "2025-02-15 08:54:04 +0000";
layers = (
{
anchors = (
{
name = _arrowUp;
position = "{150, 371}";
}
);
layerId = m01;
paths = (
{
closed = 1;
nodes = (
"171 566 LINE",
"171 746 LINE",
"250 711 LINE",
"150 854 LINE",
"50 711 LINE",
"129 746 LINE",
"129 566 LINE"
);
}
);
width = 300;
}
);
},
{
export = 0;
glyphname = _part.arrowUpThree;
lastChange = "2025-02-15 08:54:04 +0000";
layers = (
{
anchors = (
{
name = _arrowUp;
position = "{150, 371}";
}
);
background = {
paths = (
{
closed = 1;
nodes = (
"171 568 LINE",
"171 721 LINE",
"250 686 LINE",
"150 829 LINE",
"50 686 LINE",
"129 721 LINE",
"129 568 LINE"
);
},
{
closed = 1;
nodes = (
"171 568 LINE",
"171 639 LINE",
"250 604 LINE",
"150 747 LINE",
"50 604 LINE",
"129 639 LINE",
"129 568 LINE"
);
},
{
closed = 1;
nodes = (
"171 586 LINE",
"171 802 LINE",
"250 767 LINE",
"150 910 LINE",
"50 767 LINE",
"129 802 LINE",
"129 586 LINE"
);
}
);
};
layerId = m01;
paths = (
{
closed = 1;
nodes = (
"171 653 LINE",
"171 831 LINE",
"250 796 LINE",
"150 939 LINE",
"50 796 LINE",
"129 831 LINE",
"129 653 LINE"
);
},
{
closed = 1;
nodes = (
"171 656 LINE",
"171 738 LINE",
"250 703 LINE",
"150 846 LINE",
"50 703 LINE",
"129 738 LINE",
"129 656 LINE"
);
},
{
closed = 1;
nodes = (
"171 566 LINE",
"171 645 LINE",
"250 610 LINE",
"150 753 LINE",
"50 610 LINE",
"129 645 LINE",
"129 566 LINE"
);
}
);
width = 300;
}
);
},
{
export = 0;
glyphname = _part.arrowUpTwo;
lastChange = "2025-02-15 08:54:04 +0000";
layers = (
{
anchors = (
{
name = _arrowUp;
position = "{150, 371}";
}
);
layerId = m01;
paths = (
{
closed = 1;
nodes = (
"171 566 LINE",
"171 802 LINE",
"250 767 LINE",
"150 910 LINE",
"50 767 LINE",
"129 802 LINE",
"129 566 LINE"
);
},
{
closed = 1;
nodes = (
"171 566 LINE",
"171 709 LINE",
"250 674 LINE",
"150 817 LINE",
"50 674 LINE",
"129 709 LINE",
"129 566 LINE"
);
}
);
width = 300;
}
);
},
{
export = 0;
glyphname = _part.bowl;
lastChange = "2025-02-17 08:27:26 +0000";
layers = (
{
background = {
paths = (
{
closed = 1;
nodes = (
"330 -10 OFFCURVE",
"388 62 OFFCURVE",
"388 192 CURVE SMOOTH",
"388 310 LINE SMOOTH",
"388 440 OFFCURVE",
"330 515 OFFCURVE",
"240 515 CURVE SMOOTH",
"150 515 OFFCURVE",
"92 450 OFFCURVE",
"92 310 CURVE SMOOTH",
"92 192 LINE SMOOTH",
"92 52 OFFCURVE",
"150 -10 OFFCURVE",
"240 -10 CURVE SMOOTH"
);
},
{
closed = 1;
nodes = (
"140 45 OFFCURVE",
"113 111 OFFCURVE",
"113 201 CURVE SMOOTH",
"113 300 LINE SMOOTH",
"113 390 OFFCURVE",
"140 460 OFFCURVE",
"210 460 CURVE SMOOTH",
"280 460 OFFCURVE",
"312 390 OFFCURVE",
"312 300 CURVE SMOOTH",
"312 201 LINE SMOOTH",
"312 111 OFFCURVE",
"280 45 OFFCURVE",
"210 45 CURVE SMOOTH"
);
},
{
closed = 1;
nodes = (
"90 430 LINE",
"129 430 LINE",
"129 455 LINE",
"90 455 LINE"
);
},
{
closed = 1;
nodes = (
"90 50 LINE",
"129 50 LINE",
"129 75 LINE",
"90 75 LINE"
);
},
{
closed = 1;
nodes = (
"90 66 LINE",
"113 66 LINE",
"113 435 LINE",
"90 435 LINE"
);
}
);
};
layerId = m01;
paths = (
{
closed = 1;
nodes = (
"340 -10 OFFCURVE",
"388 62 OFFCURVE",
"388 192 CURVE SMOOTH",
"388 310 LINE SMOOTH",
"388 440 OFFCURVE",
"340 515 OFFCURVE",
"240 515 CURVE SMOOTH",
"186 515 OFFCURVE",
"142 496 OFFCURVE",
"113 455 CURVE",
"90 455 LINE",
"90 50 LINE",
"113 50 LINE",
"141 9 OFFCURVE",
"185 -10 OFFCURVE",
"240 -10 CURVE SMOOTH"
);
},
{
closed = 1;
nodes = (
"113 300 LINE SMOOTH",
"113 390 OFFCURVE",
"140 460 OFFCURVE",
"210 460 CURVE SMOOTH",
"290 460 OFFCURVE",
"312 390 OFFCURVE",
"312 300 CURVE SMOOTH",
"312 201 LINE SMOOTH",
"312 111 OFFCURVE",
"290 45 OFFCURVE",
"210 45 CURVE SMOOTH",
"140 45 OFFCURVE",
"113 111 OFFCURVE",
"113 201 CURVE SMOOTH"
);
}
);
width = 431;
}
);
},
{
export = 0;
glyphname = _part.sharpOtonal;
lastChange = "2025-02-15 08:54:04 +0000";
layers = (
{
anchors = (
{
name = arrowDown;
position = "{279, 371}";
}
);
layerId = m01;
paths = (
{
closed = 1;
nodes = (
"360 503 LINE",
"360 612 LINE",
"50 519 LINE",
"50 410 LINE"
);
},
{
closed = 1;
nodes = (
"360 223 LINE",
"360 332 LINE",
"50 239 LINE",
"50 130 LINE"
);
},
{
closed = 1;
nodes = (
"152 63 LINE",
"152 697 LINE",
"110 697 LINE",
"110 63 LINE"
);
},
{
closed = 1;
nodes = (
"300 45 LINE",
"300 742 LINE",
"258 742 LINE",
"258 45 LINE"
);
}
);
width = 410;
}
);
},
{
export = 0;
glyphname = _part.sharpUtonal;
lastChange = "2025-02-15 08:54:04 +0000";
layers = (
{
anchors = (
{
name = arrowUp;
position = "{131, 371}";
}
);
layerId = m01;
paths = (
{
closed = 1;
nodes = (
"360 503 LINE",
"360 612 LINE",
"50 519 LINE",
"50 410 LINE"
);
},
{
closed = 1;
nodes = (
"360 223 LINE",
"360 332 LINE",
"50 239 LINE",
"50 130 LINE"
);
},
{
closed = 1;
nodes = (
"152 0 LINE",
"152 697 LINE",
"110 697 LINE",
"110 0 LINE"
);
},
{
closed = 1;
nodes = (
"300 45 LINE",
"300 679 LINE",
"258 679 LINE",
"258 45 LINE"
);
}
);
width = 410;
}
);
},
{
export = 0;
glyphname = _part.shoulder;
lastChange = "2025-02-17 08:29:54 +0000";
layers = (
{
background = {
paths = (
{
closed = 1;
nodes = (
"340 -10 OFFCURVE",
"388 62 OFFCURVE",
"388 192 CURVE SMOOTH",
"388 310 LINE SMOOTH",
"388 440 OFFCURVE",
"340 515 OFFCURVE",
"240 515 CURVE SMOOTH",
"186 515 OFFCURVE",
"142 496 OFFCURVE",
"113 455 CURVE",
"90 455 LINE",
"90 50 LINE",
"113 50 LINE",
"141 9 OFFCURVE",
"185 -10 OFFCURVE",
"240 -10 CURVE SMOOTH"
);
},
{
closed = 1;
nodes = (
"113 300 LINE SMOOTH",
"113 390 OFFCURVE",
"140 460 OFFCURVE",
"210 460 CURVE SMOOTH",
"290 460 OFFCURVE",
"312 390 OFFCURVE",
"312 300 CURVE SMOOTH",
"312 201 LINE SMOOTH",
"312 111 OFFCURVE",
"290 45 OFFCURVE",
"210 45 CURVE SMOOTH",
"140 45 OFFCURVE",
"113 111 OFFCURVE",
"113 201 CURVE SMOOTH"
);
}
);
};
layerId = m01;
paths = (
{
closed = 1;
nodes = (
"90 262 LINE",
"113 262 LINE",
"113 300 LINE SMOOTH",
"113 390 OFFCURVE",
"140 460 OFFCURVE",
"210 460 CURVE SMOOTH",
"300 460 OFFCURVE",
"307 390 OFFCURVE",
"307 300 CURVE SMOOTH",
"307 0 LINE",
"383 0 LINE",
"383 310 LINE SMOOTH",
"383 460 OFFCURVE",
"340 515 OFFCURVE",
"245 515 CURVE SMOOTH",
"194 515 OFFCURVE",
"144 500 OFFCURVE",
"113 455 CURVE",
"90 455 LINE"
);
}
);
width = 431;
}
);
},
{
export = 0;
glyphname = _part.tempered;
lastChange = "2025-02-15 08:54:04 +0000";
layers = (
{
anchors = (
{
name = _arrowUp;
position = "{150, 371}";
}
);
background = {
paths = (
{
closed = 1;
nodes = (
"171 566 LINE",
"171 746 LINE",
"250 711 LINE",
"150 854 LINE",
"50 711 LINE",
"129 746 LINE",
"129 566 LINE"
);
}
);
};
layerId = m01;
paths = (
{
closed = 1;
nodes = (
"129 566 LINE",
"171 566 LINE",
"171 731 LINE",
"129 731 LINE"
);
},
{
closed = 1;
nodes = (
"50 711 LINE",
"250 711 LINE",
"250 753 LINE",
"50 753 LINE"
);
}
);
width = 300;
}
);
},
{
export = 0;
glyphname = _part.thirtyOne;
lastChange = "2025-02-15 08:54:04 +0000";
layers = (
{
layerId = m01;
paths = (
{
closed = 1;
nodes = (
"50 505 LINE",
"301 340 LINE",
"374 357 LINE",
"374 388 LINE",
"50 601 LINE"
);
},
{
closed = 1;
nodes = (
"50 209 LINE",
"374 357 LINE",
"374 387 LINE",
"339 391 LINE",
"50 259 LINE"
);
}
);
width = 424;
}
);
},
